<svg width="90" height="29" viewBox="0 0 90 29" fill="none" xmlns="http://www.w3.org/2000/svg">
<g clip-path="url(#clip0_933_2181)">
<path d="M16.1863 3.13648H15.4083C15.4083 3.01136 15.4219 2.88625 15.4356 2.76113C15.4492 2.64992 15.4902 2.5109 15.5311 2.37189H16.3092L16.3501 2.09385C16.4593 1.45437 16.6641 0.967812 16.9781 0.648072C17.292 0.328333 17.7288 0.175415 18.2885 0.175415C18.4523 0.175415 18.5888 0.189316 18.7116 0.203218C18.8345 0.231021 18.9437 0.258826 19.0393 0.286629C18.9983 0.45345 18.9574 0.592467 18.9164 0.703681C18.8755 0.814894 18.8208 0.926108 18.7662 1.05122C18.698 1.02342 18.6297 1.00952 18.5478 0.981715C18.4659 0.967813 18.384 0.953912 18.2885 0.953912C18.152 0.953912 18.0428 0.967813 17.9336 1.00952C17.8244 1.05122 17.7288 1.10683 17.6469 1.19024C17.565 1.27365 17.4831 1.39876 17.4285 1.55168C17.3603 1.7046 17.3193 1.88533 17.2784 2.12165C17.2647 2.16336 17.2511 2.20506 17.2511 2.24677C17.2511 2.28847 17.2374 2.33018 17.2238 2.37189H18.384C18.384 2.5109 18.3704 2.63602 18.3567 2.74723C18.3431 2.85845 18.3021 2.98356 18.2612 3.13648H17.1009L16.3774 7.32089C16.2955 7.75185 16.2136 8.11329 16.1044 8.40523C15.9952 8.69716 15.8587 8.93349 15.6949 9.11422C15.5311 9.29494 15.34 9.43396 15.1216 9.50347C14.9032 9.58688 14.6575 9.62858 14.3572 9.62858C14.2207 9.62858 14.0842 9.61468 13.9613 9.60078C13.8385 9.57297 13.7293 9.54517 13.6337 9.50347C13.661 9.35055 13.6883 9.22543 13.7293 9.10032C13.7702 8.9752 13.8112 8.86399 13.8794 8.75277C13.9477 8.78057 14.0159 8.79448 14.0978 8.80838C14.1797 8.82228 14.2616 8.83618 14.3435 8.83618C14.4937 8.83618 14.6166 8.82228 14.7394 8.78057C14.8486 8.73887 14.9578 8.66936 15.0397 8.54425C15.1216 8.43303 15.2035 8.26621 15.2854 8.05769C15.3537 7.84916 15.4219 7.58503 15.4765 7.25139L16.1863 3.13648ZM23.6394 7.41821C24.1035 7.41821 24.4994 7.32089 24.8406 7.11237C25.1819 6.90384 25.4549 6.65361 25.6733 6.33387C25.8917 6.01414 26.0555 5.66659 26.1647 5.29125C26.2739 4.902 26.3285 4.54055 26.3285 4.17911C26.3285 3.58134 26.1784 3.10868 25.8917 2.77504C25.5914 2.44139 25.1546 2.27457 24.5676 2.27457C24.1035 2.27457 23.7077 2.37189 23.3801 2.58041C23.0388 2.78894 22.7658 3.05307 22.5474 3.37281C22.329 3.69255 22.1652 4.04009 22.056 4.42934C21.9468 4.81859 21.8922 5.18003 21.8922 5.54148C21.8922 6.13925 22.0423 6.61191 22.329 6.93165C22.6156 7.25139 23.0524 7.41821 23.6394 7.41821ZM23.7213 6.65361C23.421 6.65361 23.2026 6.5563 23.0524 6.36168C22.9023 6.16705 22.8204 5.88902 22.8204 5.52757C22.8204 5.27734 22.8477 5.01321 22.9159 4.72127C22.9705 4.42934 23.0661 4.16521 23.2026 3.91498C23.3391 3.66474 23.5029 3.45622 23.7077 3.2894C23.9124 3.12258 24.1718 3.03917 24.4584 3.03917C24.7587 3.03917 24.9771 3.13648 25.1409 3.3311C25.3047 3.52573 25.3866 3.80376 25.3866 4.16521C25.3866 4.41544 25.3593 4.69347 25.2911 4.98541C25.2228 5.27734 25.1273 5.54148 25.0044 5.79171C24.8679 6.04194 24.7041 6.25046 24.4857 6.40338C24.2673 6.5702 24.0216 6.65361 23.7213 6.65361ZM31.229 4.45714L30.7239 7.30699C30.7922 7.3209 30.8604 7.3348 30.9423 7.3348C31.0242 7.3348 31.1061 7.3487 31.1744 7.3487C31.2426 7.3487 31.3245 7.3487 31.4064 7.3348C31.4883 7.3348 31.5702 7.3209 31.6521 7.30699L31.9661 5.51367C32.0343 5.12442 32.1299 4.77688 32.2391 4.48495C32.3483 4.17911 32.4848 3.92888 32.635 3.73425C32.7851 3.52573 32.9353 3.37281 33.0991 3.2755C33.2629 3.16428 33.4267 3.12258 33.5905 3.12258C33.7816 3.12258 33.9454 3.17818 34.0546 3.2894C34.1638 3.40061 34.232 3.58134 34.232 3.83157C34.232 3.90107 34.232 3.98449 34.2184 4.0818C34.2047 4.17911 34.1911 4.27642 34.1774 4.37373L33.6724 7.32089C33.7406 7.3348 33.8089 7.3487 33.8908 7.3487C33.9727 7.3487 34.0546 7.3626 34.1228 7.3626C34.1911 7.3626 34.273 7.3626 34.3549 7.3487C34.4368 7.3487 34.5187 7.3348 34.6006 7.32089L35.133 4.20691C35.1466 4.0957 35.1739 3.98449 35.1739 3.87327C35.1876 3.76206 35.1876 3.65084 35.1876 3.55353C35.1876 3.12258 35.0784 2.80284 34.8736 2.60821C34.6689 2.39969 34.3685 2.30238 34 2.30238C33.7952 2.30238 33.5905 2.34408 33.413 2.41359C33.2219 2.4831 33.0581 2.58041 32.908 2.70553C32.7578 2.81674 32.6213 2.95576 32.5121 3.09477C32.4029 3.23379 32.3074 3.37281 32.2528 3.51183C32.2664 3.41451 32.2937 3.3033 32.3074 3.19209C32.321 3.08087 32.3347 2.96966 32.3347 2.84454C32.3347 2.73333 32.3347 2.64992 32.321 2.58041C32.321 2.5109 32.3074 2.4553 32.2937 2.39969C32.2255 2.38579 32.1572 2.37189 32.0753 2.37189C31.9934 2.37189 31.9251 2.35798 31.8705 2.35798C31.8023 2.35798 31.7204 2.35798 31.6385 2.37189C31.5566 2.37189 31.4883 2.38579 31.4064 2.39969C31.4201 2.4692 31.4337 2.52481 31.4337 2.58041C31.4337 2.62212 31.4337 2.69162 31.4337 2.77504C31.4337 2.98356 31.4064 3.21989 31.3791 3.49792C31.3518 3.74815 31.2972 4.0679 31.229 4.45714ZM43.7463 5.20783L44.3333 1.84362C44.3742 1.6351 44.4015 1.41267 44.4288 1.17634C44.4561 0.940009 44.4698 0.759288 44.4698 0.606369C44.4698 0.495155 44.4561 0.383941 44.4425 0.244924C44.3742 0.231022 44.306 0.231022 44.2377 0.217121C44.1558 0.217121 44.0876 0.217121 44.0193 0.217121C43.9511 0.217121 43.8692 0.217119 43.7736 0.231021C43.6781 0.231021 43.5962 0.244924 43.5279 0.258826C43.5279 0.328335 43.5416 0.383941 43.5416 0.425646V0.620269C43.5416 0.828795 43.5279 1.06513 43.487 1.32926C43.446 1.59339 43.3914 1.91313 43.3232 2.28848C43.2685 2.28848 43.2139 2.27457 43.132 2.27457C43.0501 2.27457 42.9819 2.26067 42.9136 2.26067C42.3813 2.26067 41.9172 2.35798 41.5213 2.56651C41.1118 2.77504 40.7842 3.03917 40.5112 3.37281C40.2382 3.70645 40.0334 4.0957 39.8969 4.52665C39.7604 4.9576 39.6922 5.40246 39.6922 5.84731C39.6922 6.31997 39.8014 6.70922 40.0061 6.98725C40.2245 7.26529 40.5385 7.40431 40.948 7.40431C41.1664 7.40431 41.3575 7.3626 41.5486 7.29309C41.7397 7.20968 41.9035 7.11237 42.0537 7.00116C42.2038 6.87604 42.3403 6.75093 42.4495 6.59801C42.5587 6.44509 42.6543 6.30607 42.7362 6.16705C42.7089 6.27827 42.6816 6.40338 42.6679 6.5424C42.6543 6.68142 42.6406 6.79263 42.6406 6.86214C42.6406 6.97335 42.6406 7.05676 42.6543 7.11237C42.6679 7.16798 42.6816 7.22358 42.6816 7.27919C42.7498 7.29309 42.8181 7.30699 42.8863 7.30699C42.9682 7.30699 43.0365 7.32089 43.1047 7.32089C43.173 7.32089 43.2412 7.3209 43.3232 7.30699C43.4051 7.30699 43.4733 7.29309 43.5416 7.27919C43.5279 7.20968 43.5279 7.15408 43.5279 7.09847V6.90384C43.5279 6.69532 43.5416 6.45899 43.5825 6.18095C43.6235 5.91682 43.6781 5.59708 43.7463 5.20783ZM43.0228 4.1374C42.9546 4.48495 42.8727 4.80469 42.7635 5.11052C42.6543 5.41636 42.5178 5.68049 42.3676 5.90292C42.2175 6.12535 42.0537 6.30607 41.8626 6.43119C41.6851 6.5563 41.494 6.62581 41.3029 6.62581C41.0845 6.62581 40.9343 6.5424 40.8251 6.37558C40.7159 6.20876 40.6613 5.97243 40.6613 5.66659C40.6613 5.34685 40.7023 5.02711 40.7978 4.70737C40.8934 4.40154 41.0299 4.1235 41.2074 3.87327C41.3848 3.62304 41.6032 3.42842 41.8489 3.2894C42.0946 3.15038 42.3813 3.06697 42.6952 3.06697C42.7908 3.06697 42.8863 3.06697 42.9682 3.08087C43.0501 3.08087 43.132 3.09477 43.2003 3.12258L43.0228 4.1374ZM52.5371 5.20783L53.0012 2.4692C52.8238 2.39969 52.619 2.35798 52.4006 2.31628C52.1685 2.27457 51.9501 2.26067 51.7181 2.26067C51.1857 2.26067 50.7216 2.35798 50.3121 2.56651C49.9162 2.77504 49.575 3.03917 49.302 3.37281C49.029 3.70645 48.8242 4.0957 48.6877 4.52665C48.5512 4.9576 48.483 5.40246 48.483 5.84731C48.483 6.31997 48.5922 6.70922 48.7969 6.98725C49.0017 7.26529 49.3156 7.40431 49.7388 7.40431C49.9572 7.40431 50.1483 7.3626 50.3394 7.29309C50.5305 7.20968 50.6943 7.11237 50.8445 7.00116C50.9946 6.88994 51.1175 6.75093 51.2403 6.61191C51.3495 6.47289 51.4451 6.31997 51.5133 6.18095C51.4997 6.27827 51.4724 6.38948 51.4587 6.50069C51.4451 6.62581 51.4314 6.72312 51.4314 6.79263C51.4314 6.90385 51.4314 6.98726 51.4451 7.07067C51.4451 7.14017 51.4587 7.20968 51.4724 7.29309C51.5406 7.30699 51.6089 7.32089 51.6908 7.32089C51.759 7.32089 51.8409 7.3348 51.8955 7.3348C51.9638 7.3348 52.0457 7.3348 52.1276 7.32089C52.2095 7.32089 52.2778 7.30699 52.3597 7.29309C52.346 7.22358 52.3324 7.16798 52.3324 7.11237C52.3324 7.07066 52.3324 7.00116 52.3324 6.91775C52.3324 6.70922 52.3597 6.47289 52.387 6.19486C52.4143 5.91682 52.4689 5.59708 52.5371 5.20783ZM51.8136 4.1374C51.7454 4.48495 51.6635 4.80469 51.5543 5.11052C51.4451 5.41636 51.3086 5.68049 51.1584 5.90292C51.0083 6.12535 50.8445 6.30607 50.6534 6.43119C50.4759 6.5563 50.2848 6.62581 50.0937 6.62581C49.8753 6.62581 49.7251 6.5424 49.6159 6.37558C49.5067 6.20876 49.4521 5.97243 49.4521 5.66659C49.4521 5.34685 49.4931 5.02711 49.5886 4.70737C49.6842 4.40154 49.8207 4.1235 49.9982 3.87327C50.1756 3.62304 50.394 3.42842 50.6397 3.2894C50.8854 3.15038 51.1721 3.06697 51.486 3.06697C51.5816 3.06697 51.6771 3.06697 51.759 3.08087C51.8409 3.08087 51.9228 3.09477 51.9911 3.12258L51.8136 4.1374ZM58.1474 3.13648L57.7379 5.48587C57.7106 5.63879 57.6833 5.77781 57.6696 5.91682C57.6423 6.05584 57.6423 6.18096 57.6423 6.30607C57.6423 6.5285 57.6696 6.70922 57.7379 6.84824C57.8061 6.98725 57.9017 7.09847 58.0109 7.16798C58.1337 7.25139 58.2702 7.30699 58.434 7.3348C58.5978 7.3626 58.7889 7.3765 58.9801 7.3765C59.1302 7.3765 59.2667 7.3626 59.4032 7.3487C59.5397 7.3209 59.6353 7.30699 59.7172 7.27919C59.7172 7.22358 59.7308 7.18188 59.7308 7.12627V6.98725C59.7308 6.90384 59.7308 6.82043 59.7172 6.73702C59.7035 6.66751 59.6899 6.5841 59.6762 6.5285C59.5943 6.5563 59.4988 6.5702 59.4169 6.58411C59.335 6.59801 59.2258 6.61191 59.1302 6.61191C58.9664 6.61191 58.8435 6.5702 58.7343 6.50069C58.6388 6.43119 58.5842 6.29217 58.5842 6.09755C58.5842 5.97243 58.5978 5.83341 58.6251 5.66659C58.6524 5.51367 58.6797 5.36075 58.707 5.20783L59.0756 3.12258H60.2768C60.3178 2.99746 60.3587 2.87235 60.3724 2.74723C60.386 2.63602 60.3997 2.497 60.3997 2.35798H59.1848L59.2394 2.06605C59.294 1.77411 59.3213 1.52388 59.3213 1.32926C59.3213 1.25975 59.3213 1.20414 59.3213 1.14854C59.3213 1.09293 59.3077 1.03732 59.3077 0.981715C59.1848 0.981715 59.0347 0.995617 58.8572 1.02342C58.6797 1.05122 58.5296 1.10683 58.4067 1.16244V1.31536C58.4067 1.49608 58.3931 1.6768 58.3658 1.85752C58.3385 2.02434 58.3112 2.20507 58.2839 2.37189H57.5331C57.4785 2.5109 57.4512 2.63602 57.4239 2.76113C57.4103 2.87235 57.3966 2.99746 57.3966 3.13648H58.1474ZM65.15 3.13648L64.4402 7.29309C64.5084 7.30699 64.5767 7.32089 64.6586 7.32089C64.7268 7.32089 64.8087 7.32089 64.877 7.32089C64.9452 7.32089 65.0271 7.32089 65.1227 7.32089C65.2182 7.32089 65.3001 7.30699 65.3684 7.29309L66.2147 2.37189H64.7132C64.6586 2.5109 64.6313 2.63602 64.6176 2.76113C64.604 2.88625 64.5903 3.01136 64.5903 3.13648H65.15ZM65.1363 1.37096C65.2182 1.38486 65.3001 1.39877 65.3957 1.39877C65.4912 1.39877 65.5868 1.39877 65.6551 1.39877C65.7233 1.39877 65.8189 1.39877 65.9144 1.39877C66.01 1.39877 66.1055 1.38486 66.2011 1.37096C66.2557 1.20414 66.2966 1.03732 66.3239 0.870501C66.3512 0.70368 66.3785 0.522957 66.3785 0.342235C66.2966 0.328333 66.2011 0.314432 66.1055 0.314432C66.01 0.314432 65.9281 0.30053 65.8462 0.30053C65.7643 0.30053 65.6824 0.30053 65.5868 0.314432C65.4912 0.314432 65.3957 0.328333 65.3001 0.342235C65.2455 0.509056 65.2046 0.689778 65.1773 0.856598C65.15 1.00952 65.1363 1.19024 65.1363 1.37096ZM72.3437 7.41821C72.8078 7.41821 73.2037 7.32089 73.5449 7.11237C73.8862 6.90384 74.1592 6.65361 74.3776 6.33387C74.596 6.01414 74.7598 5.66659 74.869 5.29125C74.9782 4.902 75.0328 4.54055 75.0328 4.17911C75.0328 3.58134 74.8827 3.10868 74.596 2.77504C74.2957 2.44139 73.8589 2.27457 73.2719 2.27457C72.8078 2.27457 72.412 2.37189 72.0844 2.58041C71.7431 2.78894 71.4701 3.05307 71.2517 3.37281C71.0333 3.69255 70.8695 4.04009 70.7603 4.42934C70.6511 4.81859 70.5965 5.18003 70.5965 5.54148C70.5965 6.13925 70.7466 6.61191 71.0333 6.93165C71.3199 7.25139 71.7567 7.41821 72.3437 7.41821ZM72.4393 6.65361C72.1389 6.65361 71.9205 6.5563 71.7704 6.36168C71.6202 6.16705 71.5383 5.88902 71.5383 5.52757C71.5383 5.27734 71.5656 5.01321 71.6339 4.72127C71.6885 4.42934 71.784 4.16521 71.9205 3.91498C72.057 3.66474 72.2208 3.45622 72.4256 3.2894C72.6304 3.12258 72.8897 3.03917 73.1764 3.03917C73.4767 3.03917 73.6951 3.13648 73.8589 3.3311C74.0227 3.52573 74.1046 3.80376 74.1046 4.16521C74.1046 4.41544 74.0773 4.69347 74.009 4.98541C73.9408 5.27734 73.8452 5.54148 73.7224 5.79171C73.5859 6.04194 73.4221 6.25046 73.2037 6.40338C72.9853 6.5702 72.7259 6.65361 72.4393 6.65361ZM79.9333 4.45714L79.4282 7.30699C79.4965 7.3209 79.5647 7.3348 79.6466 7.3348C79.7285 7.3348 79.8104 7.3487 79.8787 7.3487C79.9469 7.3487 80.0288 7.3487 80.1107 7.3348C80.1926 7.3348 80.2745 7.3209 80.3564 7.30699L80.6704 5.51367C80.7386 5.12442 80.8342 4.77688 80.9434 4.48495C81.0663 4.17911 81.1891 3.92888 81.3393 3.73425C81.4894 3.52573 81.6396 3.37281 81.8034 3.2755C81.9672 3.16428 82.131 3.12258 82.3084 3.12258C82.4995 3.12258 82.6633 3.17818 82.7725 3.2894C82.8954 3.40061 82.95 3.58134 82.95 3.83157C82.95 3.90107 82.95 3.98449 82.9363 4.0818C82.9227 4.17911 82.909 4.27642 82.8954 4.37373L82.3903 7.32089C82.4586 7.3348 82.5268 7.3487 82.6087 7.3487C82.6906 7.3487 82.7725 7.3626 82.8408 7.3626C82.909 7.3626 82.9909 7.3626 83.0728 7.3487C83.1547 7.3487 83.2366 7.3348 83.3186 7.32089L83.8509 4.20691C83.8646 4.0957 83.8919 3.98449 83.8919 3.87327C83.9055 3.76206 83.9055 3.65084 83.9055 3.55353C83.9055 3.12258 83.7963 2.80284 83.5916 2.60821C83.3868 2.39969 83.0865 2.30238 82.7179 2.30238C82.5132 2.30238 82.3084 2.34408 82.131 2.41359C81.9399 2.4831 81.7761 2.58041 81.6259 2.70553C81.4758 2.81674 81.3393 2.95576 81.2301 3.09477C81.1208 3.23379 81.0253 3.37281 80.9707 3.51183C80.9843 3.41451 81.0117 3.3033 81.0253 3.19209C81.0389 3.08087 81.0526 2.96966 81.0526 2.84454C81.0526 2.73333 81.0526 2.64992 81.0389 2.58041C81.0389 2.5109 81.0253 2.4553 81.0117 2.39969C80.9434 2.38579 80.8751 2.37189 80.8069 2.37189C80.725 2.37189 80.6567 2.35798 80.5885 2.35798C80.5202 2.35798 80.4383 2.35798 80.3564 2.37189C80.2745 2.37189 80.2063 2.38579 80.1244 2.39969C80.138 2.4692 80.1517 2.52481 80.1517 2.58041C80.1517 2.62212 80.1517 2.69162 80.1517 2.77504C80.1517 2.98356 80.1244 3.21989 80.0971 3.49792C80.0561 3.74815 80.0015 4.0679 79.9333 4.45714ZM13.4836 23.5303C13.4836 22.9881 13.4153 22.5016 13.2788 22.0845C13.1423 21.6675 12.9649 21.306 12.7328 21.0002C12.5008 20.6943 12.2414 20.4441 11.9411 20.2495C11.6408 20.041 11.3405 19.888 11.0265 19.749C11.4633 19.4571 11.8319 19.04 12.1185 18.4979C12.4052 17.9557 12.5554 17.3579 12.5554 16.7046C12.5554 15.8983 12.4052 15.2449 12.1049 14.7166C11.8046 14.1883 11.4087 13.7713 10.89 13.4516C10.385 13.1318 9.78435 12.9094 9.10183 12.7843C8.41931 12.6453 7.6822 12.5896 6.90413 12.5896C6.07146 12.5896 5.348 12.6174 4.73373 12.6731C4.11947 12.7287 3.54616 12.7982 3.01379 12.8816V27.9232C3.69631 28.0066 4.33787 28.0762 4.93849 28.1318C5.52545 28.1874 6.19431 28.2152 6.94508 28.2152C7.88695 28.2152 8.74692 28.1457 9.55229 28.0066C10.3577 27.8676 11.0402 27.6174 11.6135 27.2699C12.1868 26.9223 12.6509 26.4358 12.9785 25.838C13.3198 25.2263 13.4836 24.4617 13.4836 23.5303ZM6.60382 15.4951C6.68573 15.4812 6.78128 15.4673 6.90413 15.4673H7.20444C7.40919 15.4673 7.6276 15.4951 7.846 15.5368C8.06441 15.5785 8.26916 15.6619 8.44662 15.7731C8.62407 15.8844 8.77422 16.0373 8.89708 16.2319C9.01993 16.4265 9.07453 16.6767 9.07453 16.9687C9.07453 17.5665 8.91073 17.9974 8.58312 18.2476C8.25551 18.4979 7.7914 18.6091 7.20444 18.6091H6.63112V15.4951H6.60382ZM7.45014 21.598C8.13266 21.598 8.70597 21.7231 9.12913 21.9872C9.56594 22.2513 9.78435 22.7101 9.78435 23.3913C9.78435 23.7388 9.71609 24.0308 9.59324 24.2671C9.45674 24.5034 9.29293 24.6841 9.06088 24.8093C8.84247 24.9483 8.59677 25.0317 8.32376 25.0873C8.05076 25.1429 7.7914 25.1707 7.53204 25.1707C7.29999 25.1707 7.10889 25.1707 6.95873 25.1568C6.80858 25.1568 6.69938 25.1429 6.60382 25.129V21.598H7.45014ZM15.8041 20.4441C15.8041 21.5702 15.927 22.5989 16.1863 23.5442C16.4457 24.4895 16.8279 25.3097 17.3603 26.0048C17.8926 26.6999 18.5615 27.2421 19.3805 27.6313C20.1995 28.0205 21.1687 28.2152 22.3017 28.2152C23.4347 28.2152 24.4038 28.0205 25.2092 27.6313C26.0146 27.2421 26.6971 26.6999 27.2294 26.0048C27.7618 25.3097 28.1577 24.4895 28.4034 23.5442C28.6627 22.5989 28.7856 21.5562 28.7856 20.4441C28.7856 19.3181 28.6627 18.2754 28.4034 17.3162C28.144 16.357 27.7618 15.5229 27.2294 14.8278C26.6971 14.1327 26.0282 13.5767 25.2092 13.1735C24.3902 12.7704 23.421 12.5757 22.3017 12.5757C21.1687 12.5757 20.1995 12.7704 19.3805 13.1735C18.5615 13.5767 17.879 14.1188 17.3603 14.8278C16.8279 15.5229 16.432 16.357 16.1863 17.3162C15.927 18.2754 15.8041 19.3181 15.8041 20.4441ZM24.9498 20.4441C24.9498 23.4747 24.0626 24.99 22.3017 24.99C21.3871 24.99 20.7182 24.6146 20.2814 23.8639C19.8446 23.1132 19.6262 21.9733 19.6262 20.4441C19.6262 17.3857 20.5271 15.8565 22.3153 15.8565C24.0762 15.8565 24.9498 17.3857 24.9498 20.4441ZM33.7952 16.1068V27.8954C34.5051 28.0205 35.1193 28.0901 35.638 28.0901C36.1158 28.0901 36.73 28.0205 37.4535 27.8954V16.1068H40.907C41.0162 15.4673 41.0708 14.9112 41.0708 14.4386C41.0708 14.2022 41.0572 13.952 41.0299 13.6879C41.0026 13.4237 40.9616 13.1318 40.907 12.826H30.3417C30.2189 13.4376 30.1506 13.9798 30.1506 14.4525C30.1506 14.9529 30.2189 15.509 30.3417 16.1207H33.7952M43.76 12.8677V27.8954C44.3742 28.0205 44.9339 28.0901 45.4389 28.0901C45.9304 28.0901 46.49 28.0205 47.0906 27.8954V19.6934L51.9092 27.8954C52.032 27.9232 52.2368 27.9649 52.5098 28.0066C52.7828 28.0623 53.0968 28.0762 53.438 28.0762C53.7383 28.0762 54.025 28.0484 54.2843 28.0066C54.5437 27.9649 54.7485 27.9232 54.885 27.8815L54.9123 12.8538C54.6256 12.7982 54.3526 12.7565 54.0796 12.7287C53.8202 12.7009 53.5745 12.687 53.3425 12.687C53.1104 12.687 52.8511 12.7009 52.5508 12.7287C52.2641 12.7565 51.9365 12.7982 51.5816 12.8538V21.0975L46.7903 12.8538C46.5992 12.8121 46.3672 12.7704 46.0942 12.7426C45.8212 12.7148 45.5618 12.687 45.3161 12.687C45.084 12.687 44.8383 12.7009 44.5926 12.7287C44.3333 12.7704 44.0603 12.8121 43.76 12.8677ZM61.2733 27.9093L62.0377 25.0317C62.3926 25.129 62.7339 25.1985 63.0751 25.2541C63.4028 25.3097 63.7304 25.3236 64.0443 25.3236C64.3856 25.3236 64.7405 25.2958 65.0817 25.2402C65.4366 25.1846 65.8052 25.1012 66.1874 24.99L66.9791 27.9093C67.2931 27.9649 67.5934 28.0066 67.8664 28.0344C68.1394 28.0623 68.4124 28.0762 68.6991 28.0762C69.286 28.0762 69.9822 28.0066 70.7603 27.8815L66.1874 12.8399C65.7916 12.7982 65.4366 12.7565 65.1227 12.7287C64.8087 12.7009 64.5221 12.687 64.2627 12.687C63.9488 12.687 63.6348 12.7009 63.3209 12.7287C63.0069 12.7565 62.6793 12.7982 62.3244 12.8399L57.6969 27.8676C58.0928 27.9371 58.4613 27.9927 58.7753 28.0205C59.1029 28.0623 59.3896 28.0762 59.6353 28.0762C59.881 28.0762 60.1403 28.0623 60.3997 28.0344C60.6727 28.0066 60.9593 27.9649 61.2733 27.9093ZM65.4912 22.2235C65.2455 22.293 64.9998 22.3486 64.7814 22.3765C64.5494 22.4182 64.3173 22.4321 64.0853 22.4321C63.8669 22.4321 63.6485 22.4043 63.4437 22.3626C63.2389 22.3208 63.0205 22.2652 62.7885 22.1957L64.1672 16.788L65.4912 22.2235ZM73.6541 12.8677V27.8954C74.364 28.0205 74.9782 28.0901 75.4969 28.0901C75.961 28.0901 76.5616 28.0205 77.2988 27.8954V15.8565C77.3261 15.8426 77.3943 15.8287 77.4899 15.8148C77.5854 15.8009 77.7083 15.787 77.8448 15.787C78.4044 15.787 78.8822 15.9539 79.2644 16.2736C79.6466 16.5933 79.8377 17.1077 79.8377 17.8167C79.8377 18.1781 79.7831 18.5257 79.6603 18.8732C79.5374 19.2069 79.4009 19.5127 79.2235 19.7907C79.046 20.0688 78.8685 20.3051 78.6638 20.4997C78.459 20.6943 78.2816 20.8334 78.1178 20.9168L77.9267 21.028L80.8615 27.9093C81.1345 27.9649 81.4621 28.0066 81.817 28.0344C82.1856 28.0623 82.4995 28.0762 82.7725 28.0762C83.0865 28.0762 83.4414 28.0623 83.8373 28.0344C84.2331 28.0066 84.588 27.9649 84.9156 27.9093L81.6942 21.4311C81.9126 21.2643 82.1446 21.0558 82.363 20.8195C82.5951 20.5831 82.7998 20.3051 82.9773 19.9715C83.1684 19.6517 83.3186 19.2764 83.4277 18.8732C83.5506 18.4562 83.6052 17.9974 83.6052 17.4691C83.6052 16.496 83.4141 15.7036 83.0455 15.0642C82.677 14.4386 82.1856 13.9381 81.5986 13.5767C81.0116 13.2152 80.3291 12.9511 79.5784 12.8121C78.8276 12.6592 78.0632 12.5896 77.2988 12.5896C76.6708 12.5896 76.0566 12.6174 75.4969 12.687C74.9509 12.7287 74.323 12.7982 73.6541 12.8677Z" fill="#E74076"/>
</g>
<defs>
<clipPath id="clip0_933_2181">
<rect width="89" height="28" fill="white" transform="translate(0.469604 0.134766)"/>
</clipPath>
</defs>
</svg>
