<svg width="49" height="52" viewBox="0 0 49 52" fill="none" xmlns="http://www.w3.org/2000/svg">
<g clip-path="url(#clip0_933_2206)">
<path fill-rule="evenodd" clip-rule="evenodd" d="M31.9855 0.724348C27.9596 1.32072 27.1401 3.10717 30.9099 3.06916C34.284 3.03524 37.1113 1.88079 36.0785 0.958683C35.79 0.700901 33.1598 0.550418 31.9855 0.724348ZM32.9267 1.25541C31.6136 1.42139 29.3637 2.03074 29.3637 2.2203C29.3637 2.74633 33.9243 2.23249 35.1234 1.57134C35.6422 1.28535 34.261 1.08665 32.9267 1.25541ZM32.6738 21.4367C31.1877 21.8752 31.5684 22.9809 33.0766 22.6068C35.7857 21.9347 37.6105 23.7888 35.424 24.992C34.9389 25.2591 34.6553 25.3346 33.9015 25.3977C33.8461 25.4024 33.8006 25.6516 33.8006 25.9515V26.4968L34.6517 26.4434C36.1649 26.3485 37.7054 25.0405 37.6956 23.859C37.6811 22.1167 34.9062 20.7782 32.6738 21.4367ZM30.8071 24.0283C30.7731 24.0618 30.8268 24.4302 30.9263 24.8471C31.0259 25.2638 31.1083 25.6649 31.1094 25.7383C31.1106 25.8117 30.1955 25.9813 29.0759 26.1152C26.1399 26.4664 23.0443 27.293 23.0443 27.7259C23.0443 28.2568 23.8921 28.5746 24.4964 28.27C24.8498 28.0919 26.0721 27.8468 29.7399 27.2185L31.5278 26.9122L32.1165 27.9807C33.2386 30.0178 33.328 29.7004 31.1807 31.301C30.6919 31.6653 29.9167 32.4034 29.458 32.9412C28.9994 33.4792 28.4729 34.0801 28.288 34.2768C28.1031 34.4735 27.5586 35.1005 27.0779 35.6702C26.5973 36.24 25.7779 37.1888 25.257 37.7788C24.1251 39.0614 22.1595 41.4229 21.4512 42.3517C15.4761 50.1864 9.17636 52.4153 4.42651 48.3752C-2.64482 42.3603 3.76849 31.0678 12.6428 33.9081L13.6026 34.2153L12.7937 35.6062C10.0643 40.2998 9.28405 42.1782 9.9414 42.4732C10.4658 42.7086 10.5296 42.6739 10.8178 41.9978C12.0472 39.1113 14.3251 34.9439 14.6734 34.9439C15.4324 34.9439 17.4744 37.4482 17.9949 39.0173C18.2471 39.7779 18.4476 39.8706 18.871 39.4227C19.5368 38.7188 18.2864 36.4179 16.3292 34.7452C15.3089 33.8733 15.3337 33.9183 15.6556 33.5151C17.0141 31.8135 18.6658 30.5342 20.8258 29.5103C21.3435 29.265 21.7888 29.0493 21.8153 29.0312C21.9142 28.9634 21.272 28.1882 21.1192 28.1912C20.1335 28.2107 17.7857 29.7599 15.8775 31.65C14.0956 33.4148 14.2859 33.3344 12.9272 32.8974C3.18335 29.7637 -3.98411 41.3544 3.12365 48.7508C8.14308 53.9742 15.5675 51.8006 22.3332 43.1272C22.5395 42.8628 23.1583 42.0608 23.7084 41.3451C24.2586 40.6295 25.1433 39.56 25.6744 38.9685C26.2055 38.377 26.9049 37.5493 27.2287 37.1292C29.1817 34.5952 29.9434 33.7199 31.0482 32.7402C31.612 32.2401 32.4275 31.6342 32.8601 31.3936L33.6468 30.9563L34.1701 31.7248C34.458 32.1475 35.0754 33.2086 35.5422 34.0828C37.7598 38.236 38.1233 38.6932 38.75 38.1179C39.1235 37.7752 39.1274 37.8029 38.5947 37.0068C37.9796 36.0875 37.2889 34.9247 36.7003 33.8179C35.8435 32.2068 35.0847 30.8812 34.8849 30.6465C34.167 29.8032 39.0665 29.371 41.2666 30.0834C45.2659 31.3785 47.8669 35.5948 47.0441 39.4488C45.0076 48.9872 31.628 48.7769 30.1048 39.1828C29.9257 38.0549 29.2502 37.5709 28.9479 38.3539C26.8304 43.8411 37.2201 49.7747 43.1979 46.4921C54.1342 40.4867 46.4578 25.4042 34.3872 29.181C34.0843 29.2757 32.5723 26.5419 32.1778 25.1865C31.9975 24.5669 31.0623 23.7767 30.8071 24.0283ZM13.7442 24.7373C12.5853 24.7774 11.6097 24.8399 11.576 24.8764C11.308 25.1662 11.3638 25.5317 11.7116 25.7651C13.4053 26.9019 15.5423 26.9158 17.4264 25.8024L17.7919 25.5865L17.143 25.099C16.7516 24.805 16.3664 24.6219 16.1725 24.6379C15.9957 24.6525 14.9029 24.6973 13.7442 24.7373Z" fill="#2C3394"/>
<path fill-rule="evenodd" clip-rule="evenodd" d="M31.1787 4.32754C29.1408 5.5787 28.5951 9.11585 30.1211 11.1819C30.9252 12.2706 31.6958 11.3817 31.0591 10.1003C29.9186 7.80561 30.7904 5.41563 32.7102 5.5742L33.6254 5.6497L33.839 5.20845C34.2846 4.2878 32.309 3.63368 31.1787 4.32754ZM25.6309 11.505C17.223 13.1382 10.2029 19.8466 13.9255 22.6906C14.2116 22.9092 14.6784 23.2668 14.9628 23.4854C15.2473 23.704 15.9857 24.2405 16.6037 24.6776C18.0936 25.7315 19.5676 26.8106 19.8174 27.0304C19.9283 27.128 20.3553 27.4855 20.7664 27.8248C21.1775 28.1642 21.5982 28.6082 21.7015 28.8117C21.8048 29.0151 21.9912 29.3007 22.116 29.4464C23.8214 31.4378 23.7133 33.9652 21.8171 36.4325C21.0155 37.4756 19.54 38.9179 19.2745 38.9179C19.2284 38.9179 19.1087 39.0685 19.0088 39.2526C18.9088 39.4367 18.6868 39.6221 18.5155 39.6643C18.116 39.7631 18.1233 39.8771 18.5897 40.8386C19.3069 42.3169 20.9133 43.1442 21.4904 42.3325C21.8167 41.8735 21.7484 41.7284 21.0393 41.3743C20.676 41.193 20.2511 40.8679 20.095 40.652L19.8113 40.2594L20.3857 39.8609C26.6872 35.4899 26.023 29.7152 18.6073 24.3998C18.2006 24.1084 17.414 23.5392 16.8594 23.1352C16.3048 22.7311 15.5664 22.2115 15.2183 21.9803C11.5877 19.5685 19.9778 13.2802 27.3824 12.8634C28.9668 12.7742 29.1884 12.6835 29.2531 12.0978C29.3285 11.4142 27.5752 11.1272 25.6309 11.505ZM26.7934 14.2458C25.8077 16.7492 25.9808 19.3239 27.2437 20.9459C28.3371 22.3501 30.2632 23.9321 31.0181 24.0456C31.1727 24.0688 31.3931 24.1687 31.5079 24.2674C32.112 24.7872 33.9899 25.4641 34.1803 25.2307C34.7782 24.498 34.543 24.1541 32.996 23.4985C28.4169 21.558 26.837 19.1689 27.819 15.6707C28.0031 15.0156 28.1535 14.4654 28.1535 14.4481C28.1535 14.403 27.1034 13.8815 27.0127 13.8815C26.971 13.8815 26.8722 14.0454 26.7934 14.2458Z" fill="#F20810"/>
</g>
<defs>
<clipPath id="clip0_933_2206">
<rect width="48" height="51" fill="white" transform="translate(0.321655 0.634766)"/>
</clipPath>
</defs>
</svg>
