<svg width="56" height="56" viewBox="0 0 56 56" fill="none" xmlns="http://www.w3.org/2000/svg">
<g filter="url(#filter0_d_790_1857)">
<g clip-path="url(#clip0_790_1857)">
<path d="M28.8459 33.5541C29.0459 33.7541 29.3172 33.8664 29.6 33.8664C29.8828 33.8664 30.1541 33.7541 30.3541 33.5541L35.1541 28.7541C35.3541 28.5541 35.4664 28.2828 35.4664 28C35.4664 27.7172 35.3541 27.4459 35.1541 27.2459L30.3541 22.4459C30.153 22.2516 29.8835 22.144 29.6038 22.1465C29.3242 22.1489 29.0566 22.2611 28.8589 22.4589C28.6611 22.6566 28.5489 22.9242 28.5465 23.2038C28.544 23.4835 28.6516 23.753 28.8459 23.9541L31.7333 26.9333L21.6 26.9333C21.3171 26.9333 21.0458 27.0457 20.8457 27.2458C20.6457 27.4458 20.5333 27.7171 20.5333 28C20.5333 28.2829 20.6457 28.5542 20.8457 28.7542C21.0458 28.9543 21.3171 29.0667 21.6 29.0667L31.7333 29.0667L28.8459 32.0459C28.6459 32.2459 28.5336 32.5172 28.5336 32.8C28.5336 33.0828 28.6459 33.3541 28.8459 33.5541Z" fill="black"/>
</g>
</g>
<defs>
<filter id="filter0_d_790_1857" x="0" y="-1.90735e-06" width="56" height="58" filterUnits="userSpaceOnUse" color-interpolation-filters="sRGB">
<feFlood flood-opacity="0" result="BackgroundImageFix"/>
<feColorMatrix in="SourceAlpha" type="matrix" values="0 0 0 0 0 0 0 0 0 0 0 0 0 0 0 0 0 0 127 0" result="hardAlpha"/>
<feOffset dy="2"/>
<feColorMatrix type="matrix" values="0 0 0 0 0 0 0 0 0 0 0 0 0 0 0 0 0 0 0.043 0"/>
<feBlend mode="normal" in2="BackgroundImageFix" result="effect1_dropShadow_790_1857"/>
<feBlend mode="normal" in="SourceGraphic" in2="effect1_dropShadow_790_1857" result="shape"/>
</filter>
<clipPath id="clip0_790_1857">
<rect width="16" height="16" fill="white" transform="matrix(1 4.37114e-08 4.37114e-08 -1 20 36)"/>
</clipPath>
</defs>
</svg>
