<svg width="17" height="16" viewBox="0 0 17 16" fill="none" xmlns="http://www.w3.org/2000/svg">
<g clip-path="url(#clip0_535_32890)">
<path d="M9.0109 2.44585C9.21093 2.24588 9.48219 2.13354 9.76503 2.13354C10.0479 2.13354 10.3191 2.24588 10.5192 2.44585L15.3192 7.24585C15.5191 7.44588 15.6315 7.71714 15.6315 7.99998C15.6315 8.28283 15.5191 8.55409 15.3192 8.75412L10.5192 13.5541C10.318 13.7484 10.0485 13.8559 9.76887 13.8535C9.48919 13.8511 9.22166 13.7389 9.02389 13.5411C8.82612 13.3434 8.71394 13.0758 8.71151 12.7961C8.70908 12.5165 8.8166 12.247 9.0109 12.0459L11.8984 9.06665H1.76503C1.48213 9.06665 1.21082 8.95427 1.01078 8.75423C0.810745 8.55419 0.698364 8.28288 0.698364 7.99998C0.698364 7.71709 0.810745 7.44578 1.01078 7.24574C1.21082 7.0457 1.48213 6.93332 1.76503 6.93332H11.8984L9.0109 3.95412C8.81093 3.75409 8.69859 3.48283 8.69859 3.19998C8.69859 2.91714 8.81093 2.64588 9.0109 2.44585Z" fill="white"/>
</g>
<defs>
<clipPath id="clip0_535_32890">
<rect width="16" height="16" fill="white" transform="translate(0.165039)"/>
</clipPath>
</defs>
</svg>
