<svg width="57" height="56" viewBox="0 0 57 56" fill="none" xmlns="http://www.w3.org/2000/svg">
<g filter="url(#filter0_d_788_3654)">
<g clip-path="url(#clip0_788_3654)">
<path d="M29.0197 33.5541C29.2197 33.7541 29.491 33.8664 29.7738 33.8664C30.0567 33.8664 30.3279 33.7541 30.528 33.5541L35.328 28.7541C35.5279 28.5541 35.6403 28.2828 35.6403 28C35.6403 27.7172 35.5279 27.4459 35.328 27.2459L30.528 22.4459C30.3268 22.2516 30.0573 22.1441 29.7777 22.1465C29.498 22.1489 29.2304 22.2611 29.0327 22.4589C28.8349 22.6566 28.7227 22.9242 28.7203 23.2038C28.7179 23.4835 28.8254 23.753 29.0197 23.9541L31.9072 26.9333L21.7738 26.9333C21.4909 26.9333 21.2196 27.0457 21.0196 27.2458C20.8195 27.4458 20.7072 27.7171 20.7072 28C20.7072 28.2829 20.8195 28.5542 21.0196 28.7542C21.2196 28.9543 21.4909 29.0667 21.7738 29.0667L31.9072 29.0667L29.0197 32.0459C28.8197 32.2459 28.7074 32.5172 28.7074 32.8C28.7074 33.0828 28.8197 33.3541 29.0197 33.5541Z" fill="#28A1B7"/>
</g>
</g>
<defs>
<filter id="filter0_d_788_3654" x="0.173828" y="0" width="56" height="58" filterUnits="userSpaceOnUse" color-interpolation-filters="sRGB">
<feFlood flood-opacity="0" result="BackgroundImageFix"/>
<feColorMatrix in="SourceAlpha" type="matrix" values="0 0 0 0 0 0 0 0 0 0 0 0 0 0 0 0 0 0 127 0" result="hardAlpha"/>
<feOffset dy="2"/>
<feColorMatrix type="matrix" values="0 0 0 0 0 0 0 0 0 0 0 0 0 0 0 0 0 0 0.043 0"/>
<feBlend mode="normal" in2="BackgroundImageFix" result="effect1_dropShadow_788_3654"/>
<feBlend mode="normal" in="SourceGraphic" in2="effect1_dropShadow_788_3654" result="shape"/>
</filter>
<clipPath id="clip0_788_3654">
<rect width="16" height="16" fill="white" transform="matrix(1 4.37114e-08 4.37114e-08 -1 20.1738 36)"/>
</clipPath>
</defs>
</svg>
