<svg width="56" height="59" viewBox="0 0 56 59" fill="none" xmlns="http://www.w3.org/2000/svg">
<g filter="url(#filter0_d_788_3488)">
<rect y="56.5" width="56" height="56" rx="28" transform="rotate(-90 0 56.5)" fill="#1D1D1B"/>
<g clip-path="url(#clip0_788_3488)">
<path d="M27.1541 34.0541C26.9541 34.2541 26.6828 34.3665 26.4 34.3665C26.1172 34.3665 25.8459 34.2541 25.6459 34.0542L20.8459 29.2541C20.6459 29.0541 20.5336 28.7829 20.5336 28.5C20.5336 28.2172 20.6459 27.9459 20.8459 27.7459L25.6459 22.9459C25.847 22.7516 26.1165 22.6441 26.3962 22.6465C26.6758 22.6489 26.9434 22.7611 27.1411 22.9589C27.3389 23.1566 27.4511 23.4242 27.4535 23.7039C27.456 23.9835 27.3484 24.253 27.1541 24.4541L24.2667 27.4333L34.4 27.4333C34.6829 27.4333 34.9542 27.5457 35.1543 27.7458C35.3543 27.9458 35.4667 28.2171 35.4667 28.5C35.4667 28.7829 35.3543 29.0542 35.1543 29.2543C34.9542 29.4543 34.6829 29.5667 34.4 29.5667L24.2667 29.5667L27.1541 32.5459C27.3541 32.7459 27.4664 33.0172 27.4664 33.3C27.4664 33.5829 27.3541 33.8541 27.1541 34.0541Z" fill="white"/>
</g>
<rect x="0.5" y="56" width="55" height="55" rx="27.5" transform="rotate(-90 0.5 56)" stroke="#1D1D1B"/>
</g>
<defs>
<filter id="filter0_d_788_3488" x="0" y="0.5" width="56" height="58" filterUnits="userSpaceOnUse" color-interpolation-filters="sRGB">
<feFlood flood-opacity="0" result="BackgroundImageFix"/>
<feColorMatrix in="SourceAlpha" type="matrix" values="0 0 0 0 0 0 0 0 0 0 0 0 0 0 0 0 0 0 127 0" result="hardAlpha"/>
<feOffset dy="2"/>
<feColorMatrix type="matrix" values="0 0 0 0 0 0 0 0 0 0 0 0 0 0 0 0 0 0 0.043 0"/>
<feBlend mode="normal" in2="BackgroundImageFix" result="effect1_dropShadow_788_3488"/>
<feBlend mode="normal" in="SourceGraphic" in2="effect1_dropShadow_788_3488" result="shape"/>
</filter>
<clipPath id="clip0_788_3488">
<rect width="16" height="16" fill="white" transform="translate(36 36.5) rotate(180)"/>
</clipPath>
</defs>
</svg>
