<svg width="11" height="11" viewBox="0 0 11 11" fill="none" xmlns="http://www.w3.org/2000/svg">
<path fill-rule="evenodd" clip-rule="evenodd" d="M6.56178 5.47719L10.8446 1.19062C11.0098 1.03084 11.0144 0.7672 10.8548 0.601757C10.6952 0.436313 10.4317 0.431726 10.2665 0.591508C10.263 0.594851 10.2596 0.598267 10.2562 0.601757L5.97342 4.88833L1.69064 0.601733C1.52534 0.44195 1.26194 0.446538 1.1023 0.611981C0.946562 0.773374 0.946562 1.02923 1.1023 1.19062L5.38508 5.47719L1.1023 9.76377C0.939858 9.92638 0.939858 10.19 1.1023 10.3526C1.26477 10.5152 1.52817 10.5152 1.69064 10.3526L5.97342 6.06606L10.2562 10.3526C10.4215 10.5124 10.6849 10.5078 10.8445 10.3424C11.0002 10.181 11.0002 9.92514 10.8445 9.76377L6.56178 5.47719Z" fill="#1F263E"/>
</svg>
