<svg width="84" height="22" viewBox="0 0 84 22" fill="none" xmlns="http://www.w3.org/2000/svg">
<path d="M6.36987 16H4.17387L0.429867 4.444H2.33787L2.60787 5.758L5.25387 14.2H5.37987L8.31387 5.848L8.60187 4.444H10.4559L6.36987 16ZM17.1216 11.932L12.0636 11.95C12.0756 12.862 12.2976 13.558 12.7296 14.038C13.1616 14.506 13.7736 14.74 14.5656 14.74C15.3936 14.74 16.2036 14.494 16.9956 14.002L17.1756 14.11L16.9056 15.586C16.0296 15.97 15.1776 16.162 14.3496 16.162C13.1136 16.162 12.1416 15.784 11.4336 15.028C10.7376 14.26 10.3896 13.216 10.3896 11.896C10.3896 10.564 10.7376 9.508 11.4336 8.728C12.1296 7.948 13.0716 7.558 14.2596 7.558C15.2676 7.558 16.0416 7.834 16.5816 8.386C17.1336 8.938 17.4096 9.718 17.4096 10.726C17.4096 11.002 17.3796 11.332 17.3196 11.716L17.1216 11.932ZM15.7536 10.51C15.7536 9.946 15.6216 9.52 15.3576 9.232C15.1056 8.944 14.7336 8.8 14.2416 8.8C13.6896 8.8 13.2336 8.98 12.8736 9.34C12.5136 9.688 12.2736 10.186 12.1536 10.834L15.7176 10.762L15.7536 10.51ZM23.5268 7.684C23.6588 7.684 23.8088 7.696 23.9768 7.72V9.466L23.7788 9.52C23.5868 9.46 23.3648 9.43 23.1128 9.43C22.7408 9.43 22.3928 9.568 22.0688 9.844C21.7448 10.12 21.4328 10.564 21.1328 11.176L21.1148 12.364L21.2228 16H19.3868L19.5128 12.526L19.4048 7.828L21.1508 7.666L21.1328 9.322H21.2588C21.5828 8.746 21.9428 8.332 22.3388 8.08C22.7348 7.816 23.1308 7.684 23.5268 7.684ZM31.1974 14.614C31.5934 14.614 32.0134 14.506 32.4574 14.29L32.6374 14.416L32.4574 15.568C31.7974 15.88 31.1854 16.06 30.6214 16.108C29.8774 15.988 29.3374 15.742 29.0014 15.37C28.6654 14.986 28.4974 14.434 28.4974 13.714L28.5694 12.418L28.5514 8.908H27.4174L27.3454 8.8L27.4354 7.738H28.5334V6.424L30.1534 5.812L30.3154 5.956L30.2794 7.738H32.5834L32.6554 7.864L32.5654 8.908H30.2434L30.1534 13.426C30.1414 13.87 30.2134 14.182 30.3694 14.362C30.5374 14.53 30.8134 14.614 31.1974 14.614ZM37.2167 7.54C38.3807 7.54 39.2747 7.906 39.8987 8.638C40.5347 9.358 40.8527 10.384 40.8527 11.716C40.8527 13.144 40.5167 14.242 39.8447 15.01C39.1727 15.778 38.2187 16.162 36.9827 16.162C35.8187 16.162 34.9187 15.802 34.2827 15.082C33.6587 14.35 33.3467 13.318 33.3467 11.986C33.3467 10.558 33.6827 9.46 34.3547 8.692C35.0267 7.924 35.9807 7.54 37.2167 7.54ZM37.1087 8.818C35.7407 8.818 35.0567 9.742 35.0567 11.59C35.0567 12.718 35.2247 13.552 35.5607 14.092C35.8967 14.632 36.4127 14.902 37.1087 14.902C37.7927 14.902 38.3027 14.674 38.6387 14.218C38.9747 13.762 39.1427 13.066 39.1427 12.13C39.1427 11.002 38.9747 10.168 38.6387 9.628C38.3027 9.088 37.7927 8.818 37.1087 8.818ZM49.352 12.346L49.406 14.074C49.418 14.302 49.454 14.458 49.514 14.542C49.574 14.626 49.694 14.668 49.874 14.668C50.006 14.668 50.192 14.644 50.432 14.596L50.594 14.722L50.414 15.73C50.066 15.946 49.688 16.078 49.28 16.126C48.908 16.09 48.602 15.964 48.362 15.748C48.134 15.52 47.99 15.226 47.93 14.866H47.786C47.438 15.166 47.126 15.412 46.85 15.604C46.574 15.784 46.268 15.952 45.932 16.108C44.732 16.108 43.808 15.742 43.16 15.01C42.524 14.266 42.206 13.222 42.206 11.878C42.206 10.498 42.566 9.436 43.286 8.692C44.006 7.936 45.008 7.558 46.292 7.558C46.712 7.558 47.18 7.606 47.696 7.702L47.66 3.508L49.478 3.364L49.352 12.346ZM46.112 8.818C45.428 8.818 44.888 9.052 44.492 9.52C44.108 9.988 43.916 10.684 43.916 11.608C43.916 12.58 44.096 13.324 44.456 13.84C44.816 14.356 45.32 14.614 45.968 14.614C46.268 14.614 46.556 14.542 46.832 14.398C47.108 14.254 47.402 14.008 47.714 13.66L47.75 12.508L47.696 9.232C47.12 8.956 46.592 8.818 46.112 8.818ZM55.4628 7.54C56.6268 7.54 57.5208 7.906 58.1448 8.638C58.7808 9.358 59.0988 10.384 59.0988 11.716C59.0988 13.144 58.7628 14.242 58.0908 15.01C57.4188 15.778 56.4648 16.162 55.2288 16.162C54.0648 16.162 53.1648 15.802 52.5288 15.082C51.9048 14.35 51.5928 13.318 51.5928 11.986C51.5928 10.558 51.9288 9.46 52.6008 8.692C53.2728 7.924 54.2268 7.54 55.4628 7.54ZM55.3548 8.818C53.9868 8.818 53.3028 9.742 53.3028 11.59C53.3028 12.718 53.4708 13.552 53.8068 14.092C54.1428 14.632 54.6588 14.902 55.3548 14.902C56.0388 14.902 56.5488 14.674 56.8848 14.218C57.2208 13.762 57.3888 13.066 57.3888 12.13C57.3888 11.002 57.2208 10.168 56.8848 9.628C56.5488 9.088 56.0388 8.818 55.3548 8.818Z" fill="#28A1B7"/>
<path d="M76.846 5.44585C77.046 5.24588 77.3173 5.13354 77.6001 5.13354C77.883 5.13354 78.1542 5.24588 78.3542 5.44585L83.1542 10.2459C83.3542 10.4459 83.4666 10.7171 83.4666 11C83.4666 11.2828 83.3542 11.5541 83.1542 11.7541L78.3542 16.5541C78.1531 16.7484 77.8836 16.8559 77.604 16.8535C77.3243 16.8511 77.0567 16.7389 76.859 16.5411C76.6612 16.3434 76.549 16.0758 76.5466 15.7961C76.5442 15.5165 76.6517 15.247 76.846 15.0459L79.7334 12.0667H69.6001C69.3172 12.0667 69.0459 11.9543 68.8459 11.7542C68.6458 11.5542 68.5334 11.2829 68.5334 11C68.5334 10.7171 68.6458 10.4458 68.8459 10.2457C69.0459 10.0457 69.3172 9.93332 69.6001 9.93332H79.7334L76.846 6.95412C76.646 6.75409 76.5337 6.48283 76.5337 6.19998C76.5337 5.91714 76.646 5.64588 76.846 5.44585Z" fill="#28A1B7"/>
</svg>
