<svg width="100" height="100" viewBox="0 0 100 100" fill="none" xmlns="http://www.w3.org/2000/svg">
<g clip-path="url(#clip0_1026_9055)">
<rect width="100" height="100" fill="white"/>
<path d="M53.4405 58.138L44.1736 53.9094C44.1736 53.9094 49.2401 41.3018 49.008 40.2186C48.7634 39.0907 36.524 35.964 34.2534 31.2274C31.5616 25.6115 38.2314 21.8663 38.2314 21.8663L47.3068 26.2315C47.3068 26.2315 47.0441 27.9916 47.1253 28.3075C47.2182 28.6775 59.8142 32.0086 60.4977 36.7075C61.4604 43.3454 53.4405 58.138 53.4405 58.138Z" fill="#AD6359"/>
<path d="M56.1474 31.8879L48.4287 40.2261C48.0549 40.0575 47.0115 40.1562 46.5038 39.9315C42.5726 38.1693 35.8578 34.6077 34.2398 31.2293C31.548 25.6135 38.1568 21.1203 38.1568 21.1203L47.9301 26.4075C47.9301 26.4075 47.6687 28.0409 47.7471 28.3549C47.7946 28.5456 51.9901 29.3037 55.253 30.8061C55.7592 31.0358 56.1474 31.8879 56.1474 31.8879Z" fill="#FFC727"/>
<path opacity="0.3" d="M56.1474 31.8879L48.4287 40.2261C48.0549 40.0575 47.0115 40.1562 46.5038 39.9315C42.5726 38.1693 35.8578 34.6077 34.2398 31.2293C31.548 25.6135 38.1568 21.1203 38.1568 21.1203L47.9301 26.4075C47.9301 26.4075 47.6687 28.0409 47.7471 28.3549C47.7946 28.5456 51.9901 29.3037 55.253 30.8061C55.7592 31.0358 56.1474 31.8879 56.1474 31.8879Z" fill="black"/>
<path d="M55.0018 67.9542C54.3994 67.8842 42.2674 61.5238 41.8707 60.8909C41.7171 60.6556 41.8499 58.916 43.012 56.2631L43.0511 56.1789C43.288 55.634 46.1561 48.9167 46.1561 48.9167L56.0101 52.8481L52.67 60.6128L52.588 60.7723C52.588 60.7723 57.0624 66.0053 57.4231 66.7405C57.7838 67.4757 55.5999 68.0272 55.0018 67.9542Z" fill="#EBEBEB"/>
<path d="M57.2163 69.4366C56.5861 69.3551 40.9604 61.8185 40.5449 61.1585C40.3843 60.9103 43.0678 55.8903 43.0793 55.8625L52.8302 60.4746L52.7425 60.6421C52.7425 60.6421 57.3779 66.1794 57.7481 66.955C58.1183 67.7307 57.8445 69.5208 57.2163 69.4366Z" fill="#37474F"/>
<path d="M57.335 68.7506C54.759 67.4134 44.2309 62.268 41.5824 61.1449C41.5595 61.1349 41.5529 61.1501 41.5848 61.1585C44.1122 62.5393 54.6791 67.5984 57.3255 68.7897C57.37 68.817 57.3891 68.7786 57.335 68.7506Z" fill="white"/>
<path d="M53.5805 61.0859C52.6468 60.3949 51.3144 59.9402 50.1632 60.2919C50.1177 60.2999 50.1388 60.3665 50.1775 60.3737C51.316 60.5331 52.434 60.8151 53.5118 61.215C53.5285 61.2211 53.5469 61.221 53.5636 61.2147C53.5803 61.2083 53.5941 61.1961 53.6025 61.1804C53.6109 61.1646 53.6132 61.1464 53.6092 61.129C53.6051 61.1116 53.5949 61.0963 53.5805 61.0859Z" fill="white"/>
<path d="M54.1016 61.8967C53.1675 61.2035 51.8351 60.7488 50.6823 61.0914C50.6369 61.0994 50.6583 61.1682 50.6966 61.1732C51.8319 61.3348 52.9467 61.6173 54.0218 62.0161C54.0374 62.0218 54.0544 62.0222 54.0702 62.017C54.086 62.0119 54.0996 62.0016 54.1088 61.9878C54.118 61.9741 54.1223 61.9576 54.121 61.941C54.1197 61.9245 54.1129 61.9089 54.1016 61.8967Z" fill="white"/>
<path d="M54.627 62.7024C53.6929 62.0092 52.3605 61.5545 51.2077 61.8971C51.1623 61.9051 51.1837 61.9739 51.222 61.9789C52.3621 62.1449 53.481 62.4331 54.5595 62.8383C54.5775 62.8473 54.5984 62.8487 54.6175 62.8423C54.6365 62.8358 54.6523 62.8221 54.6612 62.8041C54.6702 62.7861 54.6716 62.7652 54.6652 62.7462C54.6588 62.7271 54.645 62.7113 54.627 62.7024Z" fill="white"/>
<path d="M57.7247 68.9951C57.9497 69.2366 57.4355 70.1369 57.1999 70.115C56.9642 70.0931 40.1225 61.791 39.8667 61.5877C39.611 61.3843 40.2165 60.4048 40.5754 60.5151C40.9343 60.6254 57.7247 68.9951 57.7247 68.9951Z" fill="#FFC727"/>
<path d="M44.5113 58.7018C43.6618 57.5957 41.9409 58.9184 42.7901 60.0222C43.6393 61.1259 45.3617 59.8124 44.5113 58.7018Z" fill="white"/>
<path opacity="0.1" d="M56.3371 52.1928C56.1147 52.7001 55.8935 53.1744 55.6785 53.6312L55.6704 53.6514L52.7531 60.4358L52.8426 60.4786L52.7777 60.6024C53.0601 60.7372 53.3291 60.8986 53.581 61.0844C53.5955 61.0948 53.6057 61.1101 53.6098 61.1275C53.6138 61.1449 53.6114 61.1631 53.603 61.1789C53.5947 61.1946 53.5809 61.2068 53.5642 61.2132C53.5475 61.2195 53.5291 61.2196 53.5124 61.2135C53.3769 61.1623 53.2423 61.1157 53.1077 61.069L53.4551 61.4881C53.682 61.6062 53.8991 61.7419 54.1047 61.894C54.1176 61.905 54.1263 61.9201 54.1294 61.9367C54.1324 61.9534 54.1297 61.9706 54.1216 61.9854C54.1135 62.0003 54.1005 62.0119 54.0849 62.0184C54.0692 62.0248 54.0518 62.0257 54.0356 62.0208L53.8382 61.9501C53.9666 62.1079 54.1056 62.2732 54.2462 62.4475C54.3779 62.5253 54.5053 62.6101 54.6279 62.7014C54.6413 62.712 54.6506 62.7269 54.6542 62.7437C54.6578 62.7604 54.6555 62.7778 54.6477 62.793C54.6398 62.8082 54.627 62.8203 54.6112 62.827C54.5955 62.8338 54.5779 62.8349 54.5615 62.8301C55.907 64.4673 57.5482 66.5093 57.7593 66.9523C58.0037 67.4644 57.9614 68.4248 57.7204 68.9868C57.9454 69.2284 57.4313 70.1287 57.1956 70.1068C56.96 70.0849 40.1182 61.7828 39.8625 61.5794C39.6067 61.3761 40.2123 60.3965 40.5712 60.5068C40.6234 60.5267 40.6744 60.5498 40.7238 60.5761C41.2957 59.2044 43.0743 55.8743 43.0844 55.8515L43.1712 55.8924C43.6115 54.8786 44.9812 51.6601 45.7018 49.9743C45.6994 49.9606 45.7133 49.9465 45.7181 49.9339C47.1856 46.1386 49.1384 40.8908 48.9931 40.2091C48.9383 40.0783 48.8418 39.9693 48.7186 39.899L48.4267 40.2241C48.053 40.0555 47.0096 40.1542 46.5019 39.9295C42.7415 38.2474 36.4305 34.9053 34.4789 31.6674C34.4331 31.5935 34.3923 31.5211 34.3527 31.4554C34.3131 31.3898 34.2753 31.3074 34.2402 31.241C34.1842 31.122 34.1309 31.0049 34.0821 30.8871C34.073 30.8348 34.0411 30.7865 34.0232 30.7382C33.9806 30.6286 33.9425 30.5182 33.9075 30.4119C33.9039 30.3915 33.9003 30.371 33.8971 30.3529C33.8551 30.2197 33.8175 30.0858 33.7827 29.9538C33.712 29.6779 33.6627 29.3969 33.6353 29.1133C33.6229 29.0429 33.6223 28.9727 33.6191 28.9007L33.6101 28.6892C33.4689 24.319 38.1667 21.1326 38.1667 21.1326L45.4771 25.0862L45.6111 25.4233L50.6077 37.8936L56.3371 52.1928Z" fill="#020100"/>
<path d="M16.7012 59.1553L30.4455 87.9149" stroke="#C7C7C7" stroke-miterlimit="10"/>
<path d="M12.5234 62.0225L29.7658 88.5647" stroke="#C7C7C7" stroke-miterlimit="10"/>
<path d="M26.3774 59.0475L13.3896 87.5169" stroke="#C7C7C7" stroke-miterlimit="10"/>
<path d="M27.4644 58.5816L18.9299 90.548" stroke="#C7C7C7" stroke-miterlimit="10"/>
<path d="M36.4613 67.5198L6.20917 77.6133" stroke="#C7C7C7" stroke-miterlimit="10"/>
<path d="M6.67773 72.1318L37.9247 80.2095" stroke="#C7C7C7" stroke-miterlimit="10"/>
<path d="M38.9286 76.5108L7.00195 68.1895" stroke="#C7C7C7" stroke-miterlimit="10"/>
<path d="M35.3037 64.5985L10.7743 85.7353" stroke="#C7C7C7" stroke-miterlimit="10"/>
<path d="M22.5198 55.1555C18.7513 55.0655 15.0408 56.095 11.8575 58.1138C8.6741 60.1326 6.16087 63.05 4.63557 66.4971C3.11028 69.9443 2.64142 73.7663 3.2883 77.4799C3.93518 81.1935 5.66873 84.6319 8.26975 87.3603C10.8708 90.0886 14.2224 91.9845 17.9009 92.808C21.5793 93.6315 25.4194 93.3458 28.9355 91.9869C32.4515 90.628 35.4857 88.257 37.6543 85.1737C39.8228 82.0904 41.0284 78.4333 41.1185 74.6649C41.2332 69.6131 39.3395 64.7221 35.8529 61.0647C32.3662 57.4073 27.5712 55.2822 22.5198 55.1555ZM21.6938 89.9683C18.5769 89.8944 15.5519 88.898 13.0013 87.1049C10.4508 85.3117 8.48921 82.8026 7.36472 79.8946C6.24023 76.9867 6.00332 73.8106 6.68395 70.768C7.36458 67.7254 8.93218 64.953 11.1885 62.8013C13.4448 60.6496 16.2885 59.2154 19.36 58.6799C22.4315 58.1445 25.5928 58.5319 28.4441 59.7931C31.2954 61.0544 33.7086 63.1328 35.3786 65.7656C37.0487 68.3984 37.9004 71.4673 37.8263 74.5842C37.722 78.7619 35.965 82.7276 32.9407 85.6116C29.9164 88.4956 25.8717 90.0624 21.6938 89.9683Z" fill="#263238"/>
<path d="M24.5975 56.12L20.4789 56.0133C20.3153 56.0093 20.1599 55.9404 20.047 55.822C19.934 55.7035 19.8727 55.5451 19.8764 55.3814C19.8809 55.2176 19.9504 55.0624 20.0693 54.9497C20.1883 54.8371 20.3472 54.7763 20.511 54.7808L24.6296 54.8874C24.7106 54.8894 24.7903 54.9074 24.8643 54.9403C24.9383 54.9731 25.0051 55.0203 25.0609 55.079C25.1167 55.1378 25.1603 55.2069 25.1893 55.2825C25.2183 55.3582 25.2321 55.4388 25.2299 55.5197C25.2281 55.6008 25.2104 55.6807 25.1776 55.7548C25.1448 55.829 25.0977 55.8959 25.0389 55.9517C24.9801 56.0075 24.9108 56.0511 24.8351 56.08C24.7593 56.1089 24.6786 56.1225 24.5975 56.12Z" fill="#263238"/>
<path d="M18.2565 56.3469L14.3507 57.6546C14.1965 57.7032 14.0294 57.6893 13.8853 57.6161C13.7411 57.5429 13.6314 57.4162 13.5796 57.263C13.5305 57.1088 13.544 56.9414 13.6173 56.7971C13.6906 56.6528 13.8177 56.5432 13.9712 56.4919L17.8792 55.1837C18.0331 55.1346 18.2001 55.1478 18.3443 55.2207C18.4884 55.2935 18.5982 55.4201 18.65 55.5731C18.6999 55.7279 18.6865 55.8961 18.6128 56.0411C18.539 56.1861 18.411 56.296 18.2565 56.3469Z" fill="#263238"/>
<path d="M12.3785 58.7267L9.15488 61.294C9.0265 61.3951 8.8634 61.4414 8.70102 61.423C8.53864 61.4046 8.3901 61.3228 8.28765 61.1955C8.237 61.1322 8.19936 61.0594 8.17689 60.9815C8.15442 60.9036 8.14756 60.822 8.15671 60.7414C8.16585 60.6608 8.19083 60.5829 8.2302 60.512C8.26957 60.4411 8.32255 60.3786 8.38611 60.3283L11.6097 57.761C11.673 57.7104 11.7457 57.6727 11.8237 57.6502C11.9016 57.6278 11.9832 57.6209 12.0638 57.6301C12.1443 57.6392 12.2223 57.6642 12.2932 57.7036C12.3641 57.7429 12.4266 57.7959 12.4769 57.8595C12.5276 57.9228 12.5652 57.9955 12.5877 58.0734C12.6102 58.1514 12.617 58.233 12.6079 58.3135C12.5987 58.3941 12.5737 58.4721 12.5344 58.543C12.495 58.6139 12.442 58.6763 12.3785 58.7267Z" fill="#263238"/>
<path d="M7.66863 62.9757L5.51697 66.4883C5.43107 66.6275 5.29366 66.7272 5.13463 66.7656C4.9756 66.804 4.80784 66.7781 4.66786 66.6934C4.52862 66.6075 4.42894 66.4701 4.39053 66.311C4.35212 66.152 4.37808 65.9843 4.46276 65.8443L6.61629 62.329C6.6584 62.2599 6.71379 62.1997 6.77926 62.1521C6.84473 62.1044 6.91898 62.0702 6.99775 62.0513C7.07651 62.0325 7.15822 62.0295 7.23817 62.0424C7.31811 62.0553 7.3947 62.0839 7.46353 62.1266C7.60325 62.2121 7.70332 62.3495 7.74178 62.5087C7.78023 62.6679 7.75392 62.8359 7.66863 62.9757Z" fill="#263238"/>
<path d="M4.69295 68.5776L3.86977 72.6158C3.83725 72.7758 3.74252 72.9163 3.60641 73.0065C3.4703 73.0967 3.30395 73.1291 3.14394 73.0967C2.98336 73.0642 2.84223 72.9693 2.75157 72.8329C2.66091 72.6964 2.62812 72.5296 2.66042 72.3689L3.47905 68.3315C3.4951 68.252 3.52669 68.1765 3.572 68.1092C3.61732 68.042 3.67547 67.9843 3.74312 67.9396C3.81078 67.8949 3.8866 67.864 3.96623 67.8487C4.04586 67.8333 4.12774 67.8339 4.20716 67.8503C4.28683 67.8661 4.36261 67.8974 4.43016 67.9426C4.4977 67.9877 4.55569 68.0457 4.60081 68.1132C4.64592 68.1808 4.67728 68.2565 4.69309 68.3362C4.7089 68.4159 4.70885 68.4979 4.69295 68.5776Z" fill="#263238"/>
<path d="M3.81556 74.8603L4.4248 78.9354C4.44888 79.0972 4.40784 79.2619 4.31065 79.3935C4.21347 79.5251 4.06808 79.6128 3.90635 79.6374C3.74454 79.6615 3.57979 79.6204 3.44819 79.5233C3.31659 79.4261 3.22889 79.2807 3.20431 79.119L2.59239 75.042C2.5689 74.8801 2.61056 74.7155 2.70824 74.5842C2.80593 74.453 2.95167 74.3658 3.11352 74.3419C3.27532 74.3178 3.44008 74.3588 3.57167 74.456C3.70327 74.5532 3.79097 74.6986 3.81556 74.8603Z" fill="#263238"/>
<path d="M5.13663 81.0631L7.104 84.6846C7.182 84.8284 7.19984 84.9972 7.15362 85.154C7.1074 85.3109 7.00089 85.4431 6.85741 85.5216C6.78614 85.5605 6.70789 85.5849 6.62714 85.5935C6.5464 85.602 6.46477 85.5945 6.38694 85.5714C6.30911 85.5483 6.23662 85.51 6.17365 85.4587C6.11067 85.4075 6.05846 85.3443 6.02001 85.2727L4.05303 81.6536C3.97503 81.5098 3.95718 81.341 4.0034 81.1841C4.04962 81.0272 4.15614 80.8951 4.29962 80.8165C4.44337 80.7385 4.61218 80.7207 4.76907 80.7669C4.92595 80.8131 5.05812 80.9197 5.13663 81.0631Z" fill="#263238"/>
<path d="M8.50565 86.4393L11.5917 89.1762C11.7101 89.2838 11.7817 89.4335 11.7914 89.5932C11.801 89.7529 11.7479 89.9101 11.6433 90.0312C11.5896 90.092 11.5244 90.1415 11.4515 90.1771C11.3786 90.2126 11.2994 90.2334 11.2185 90.2382C11.1375 90.2431 11.0564 90.2319 10.9798 90.2053C10.9032 90.1787 10.8325 90.1372 10.772 90.0833L7.68371 87.3468C7.56108 87.238 7.48648 87.0851 7.47622 86.9215C7.46596 86.7579 7.52086 86.5969 7.62893 86.4736C7.68424 86.4138 7.7508 86.3655 7.82479 86.3314C7.89878 86.2973 7.97877 86.2781 8.06018 86.2749C8.14159 86.2717 8.22284 86.2846 8.29927 86.3128C8.3757 86.341 8.44583 86.384 8.50565 86.4393Z" fill="#263238"/>
<path d="M13.5052 90.3425L17.3391 91.8431C17.4914 91.9031 17.6136 92.0211 17.679 92.1712C17.7444 92.3213 17.7476 92.4912 17.6878 92.6436C17.6278 92.7959 17.5098 92.9181 17.3597 92.9835C17.2096 93.0489 17.0397 93.0521 16.8873 92.9924L13.0518 91.4827C12.9765 91.4532 12.9078 91.4091 12.8495 91.353C12.7913 91.2969 12.7446 91.2299 12.7123 91.1557C12.6799 91.0816 12.6625 91.0018 12.661 90.921C12.6595 90.8401 12.6739 90.7598 12.7035 90.6845C12.7336 90.6093 12.7782 90.5409 12.8349 90.483C12.8915 90.4251 12.9589 90.379 13.0334 90.3473C13.1079 90.3155 13.1879 90.2987 13.2688 90.2979C13.3498 90.2971 13.4301 90.3123 13.5052 90.3425Z" fill="#263238"/>
<path d="M19.5363 92.2989L23.655 92.4056C23.7359 92.4076 23.8157 92.4255 23.8897 92.4584C23.9637 92.4913 24.0305 92.5385 24.0863 92.5972C24.142 92.6559 24.1856 92.7251 24.2146 92.8007C24.2436 92.8763 24.2574 92.9569 24.2552 93.0379C24.2511 93.2015 24.1823 93.3568 24.0638 93.4698C23.9454 93.5827 23.7869 93.6441 23.6233 93.6404L19.5047 93.5337C19.3408 93.5292 19.1853 93.4599 19.0724 93.3411C18.9594 93.2222 18.898 93.0635 18.9017 92.8996C18.9069 92.736 18.9765 92.5811 19.0954 92.4686C19.2142 92.3561 19.3727 92.2951 19.5363 92.2989Z" fill="#263238"/>
<path d="M25.8753 92.0723L29.7833 90.7641C29.9375 90.715 30.1048 90.7285 30.2492 90.8018C30.3935 90.8751 30.5031 91.0022 30.5544 91.1558C30.6035 91.3096 30.5903 91.4766 30.5174 91.6208C30.4446 91.765 30.3181 91.8747 30.1651 91.9265L26.2575 93.2369C26.1032 93.2854 25.9361 93.2716 25.792 93.1984C25.6478 93.1252 25.5381 92.9985 25.4863 92.8453C25.4371 92.6912 25.4503 92.5239 25.523 92.3794C25.5957 92.2349 25.7222 92.1246 25.8753 92.0723Z" fill="#263238"/>
<path d="M31.7532 89.6925L34.9795 87.1271C35.0428 87.0764 35.1156 87.0388 35.1935 87.0163C35.2714 86.9939 35.353 86.987 35.4336 86.9962C35.5142 87.0053 35.5921 87.0303 35.663 87.0696C35.7339 87.109 35.7964 87.162 35.8467 87.2256C35.9478 87.3539 35.9942 87.517 35.9758 87.6794C35.9574 87.8418 35.8756 87.9903 35.7483 88.0928L32.522 90.6582C32.4587 90.7088 32.386 90.7465 32.308 90.7689C32.2301 90.7914 32.1485 90.7983 32.0679 90.7891C31.9874 90.78 31.9094 90.755 31.8385 90.7156C31.7676 90.6763 31.7052 90.6233 31.6548 90.5597C31.5537 90.4313 31.5073 90.2682 31.5257 90.1059C31.5442 89.9435 31.6259 89.7949 31.7532 89.6925Z" fill="#263238"/>
<path d="M36.4665 85.4438L38.6178 81.9289C38.7036 81.7895 38.8413 81.6898 39.0006 81.6518C39.1598 81.6138 39.3277 81.6405 39.4673 81.7261C39.5362 81.7684 39.5961 81.8239 39.6436 81.8894C39.6911 81.9549 39.7252 82.0291 39.744 82.1078C39.7628 82.1865 39.7659 82.2681 39.7532 82.348C39.7404 82.4279 39.7121 82.5044 39.6697 82.5734L37.5184 86.0882C37.4325 86.2274 37.2951 86.3271 37.1361 86.3655C36.9771 86.4039 36.8093 86.378 36.6693 86.2933C36.5299 86.2074 36.4302 86.0698 36.3922 85.9105C36.3542 85.7512 36.3809 85.5834 36.4665 85.4438Z" fill="#263238"/>
<path d="M39.4514 79.84L40.2723 75.8022C40.3047 75.6416 40.3996 75.5005 40.536 75.4098C40.6725 75.3191 40.8394 75.2864 41 75.3187C41.0795 75.3347 41.155 75.3663 41.2223 75.4116C41.2895 75.4569 41.3471 75.5151 41.3919 75.5827C41.4366 75.6504 41.4675 75.7262 41.4828 75.8058C41.4982 75.8855 41.4976 75.9673 41.4812 76.0468L40.6649 80.0838C40.6324 80.2444 40.5375 80.3855 40.4011 80.4762C40.2646 80.5668 40.0978 80.5996 39.9372 80.5673C39.8575 80.5515 39.7817 80.5202 39.7142 80.475C39.6466 80.4299 39.5886 80.3719 39.5435 80.3044C39.4984 80.2368 39.467 80.161 39.4512 80.0814C39.4354 80.0017 39.4355 79.9197 39.4514 79.84Z" fill="#263238"/>
<path d="M40.3196 73.5614L39.7099 69.4841C39.6977 69.404 39.7014 69.3223 39.7209 69.2437C39.7405 69.1651 39.7753 69.0912 39.8236 69.0261C39.8718 68.9611 39.9324 68.9062 40.002 68.8647C40.0715 68.8232 40.1486 68.7959 40.2288 68.7843C40.3089 68.7721 40.3907 68.7758 40.4694 68.7952C40.5482 68.8147 40.6223 68.8495 40.6875 68.8977C40.7527 68.9459 40.8078 69.0064 40.8495 69.076C40.8913 69.1455 40.9189 69.2225 40.9308 69.3028L41.5401 73.3778C41.5641 73.5396 41.5231 73.7044 41.4259 73.836C41.3287 73.9676 41.1833 74.0553 41.0216 74.0799C40.8598 74.1039 40.695 74.0629 40.5634 73.9657C40.4318 73.8685 40.3441 73.7231 40.3196 73.5614Z" fill="#263238"/>
<path d="M38.9947 67.3559L37.0274 63.7344C36.9494 63.5904 36.9318 63.4212 36.9785 63.2642C37.0252 63.1072 37.1323 62.9751 37.2762 62.897C37.4203 62.8191 37.5894 62.8015 37.7464 62.8482C37.9034 62.8948 38.0355 63.0019 38.1136 63.1459L40.0806 66.7651C40.1195 66.8363 40.1439 66.9146 40.1525 66.9953C40.161 67.0761 40.1535 67.1577 40.1304 67.2355C40.1073 67.3134 40.069 67.3859 40.0177 67.4488C39.9665 67.5118 39.9033 67.564 39.8317 67.6025C39.7606 67.6414 39.6825 67.6659 39.6019 67.6746C39.5213 67.6833 39.4398 67.6759 39.362 67.653C39.2843 67.6301 39.2118 67.5921 39.1488 67.5411C39.0857 67.4901 39.0334 67.4272 38.9947 67.3559Z" fill="#263238"/>
<path d="M35.6304 61.9793L32.5421 59.2428C32.4196 59.1344 32.3452 58.9819 32.335 58.8186C32.3248 58.6554 32.3797 58.4948 32.4877 58.372C32.5414 58.311 32.6066 58.2612 32.6795 58.2254C32.7525 58.1896 32.8318 58.1686 32.9129 58.1635C32.994 58.1584 33.0753 58.1694 33.1522 58.1958C33.229 58.2221 33.2999 58.2634 33.3608 58.3172L36.4491 61.0537C36.5099 61.1074 36.5595 61.1726 36.595 61.2455C36.6306 61.3184 36.6513 61.3976 36.6562 61.4785C36.661 61.5595 36.6498 61.6406 36.6232 61.7172C36.5966 61.7938 36.5552 61.8644 36.5012 61.925C36.3928 62.0474 36.2402 62.1219 36.077 62.1321C35.9138 62.1423 35.7532 62.0873 35.6304 61.9793Z" fill="#263238"/>
<path d="M30.6305 58.0792L26.7972 56.5691C26.645 56.5091 26.5227 56.3911 26.4573 56.241C26.3919 56.0909 26.3888 55.921 26.4485 55.7686C26.5085 55.6163 26.6265 55.4941 26.7766 55.4287C26.9267 55.3633 27.0966 55.3601 27.249 55.4198L31.0822 56.9299C31.1578 56.9594 31.2268 57.0035 31.2853 57.0598C31.3438 57.116 31.3906 57.1832 31.423 57.2576C31.4554 57.332 31.4728 57.4121 31.4742 57.4932C31.4755 57.5744 31.4609 57.655 31.431 57.7304C31.3709 57.8827 31.2529 58.0049 31.1029 58.0703C30.9528 58.1357 30.7829 58.1389 30.6305 58.0792Z" fill="#263238"/>
<path d="M62.951 81.0224L91.7129 67.2777" stroke="#C7C7C7" stroke-miterlimit="10"/>
<path d="M65.8197 85.2009L92.3616 67.9563" stroke="#C7C7C7" stroke-miterlimit="10"/>
<path d="M62.8418 71.3467L91.3112 84.3345" stroke="#C7C7C7" stroke-miterlimit="10"/>
<path d="M62.377 70.2607L94.3456 78.7949" stroke="#C7C7C7" stroke-miterlimit="10"/>
<path d="M71.3164 61.2627L81.4098 91.5148" stroke="#C7C7C7" stroke-miterlimit="10"/>
<path d="M75.9282 91.0447L84.004 59.8004" stroke="#C7C7C7" stroke-miterlimit="10"/>
<path d="M80.3072 58.7943L71.9885 90.7228" stroke="#C7C7C7" stroke-miterlimit="10"/>
<path d="M68.3984 62.4199L89.5326 86.9474" stroke="#C7C7C7" stroke-miterlimit="10"/>
<path d="M58.9516 75.2045C58.8624 78.973 59.8927 82.6832 61.9121 85.8661C63.9316 89.049 66.8495 91.5616 70.2969 93.0862C73.7443 94.6108 77.5664 95.0789 81.2798 94.4313C84.9933 93.7837 88.4313 92.0495 91.1591 89.448C93.887 86.8465 95.7822 83.4945 96.605 79.8159C97.4279 76.1373 97.1414 72.2974 95.7819 68.7816C94.4224 65.2658 92.0509 62.2321 88.9673 60.0641C85.8836 57.8961 82.2264 56.6912 78.458 56.6017C73.406 56.4878 68.5152 58.3824 64.8584 61.8699C61.2015 65.3573 59.0773 70.1529 58.9516 75.2045ZM93.7645 76.0304C93.6906 79.1474 92.6941 82.1724 90.901 84.723C89.1079 87.2735 86.5987 89.2351 83.6908 90.3596C80.7828 91.4841 77.6067 91.721 74.5641 91.0403C71.5215 90.3597 68.7491 88.7921 66.5975 86.5358C64.4458 84.2795 63.0116 81.4358 62.4761 78.3643C61.9407 75.2928 62.3281 72.1315 63.5893 69.2802C64.8505 66.4289 66.929 64.0157 69.5618 62.3457C72.1946 60.6756 75.2635 59.8239 78.3804 59.898C82.5581 60.0023 86.5238 61.7593 89.4078 64.7836C92.2918 67.8079 93.8586 71.8525 93.7645 76.0304Z" fill="#263238"/>
<path d="M59.9214 73.1363L59.8151 77.2572C59.81 77.4208 59.7404 77.5757 59.6215 77.6882C59.5027 77.8007 59.3442 77.8617 59.1805 77.8578C59.017 77.8527 58.8621 77.7831 58.7496 77.6642C58.6371 77.5454 58.5761 77.3869 58.5799 77.2233L58.6865 73.1046C58.6911 72.9409 58.7605 72.7856 58.8795 72.673C58.9985 72.5603 59.1573 72.4996 59.3211 72.504C59.4844 72.5087 59.6392 72.5778 59.7517 72.6963C59.8642 72.8148 59.9252 72.973 59.9214 73.1363Z" fill="#263238"/>
<path d="M60.1464 79.4679L61.4542 83.3736C61.48 83.4506 61.4904 83.5318 61.4847 83.6128C61.4791 83.6938 61.4576 83.7729 61.4214 83.8455C61.3852 83.9182 61.3351 83.983 61.2739 84.0363C61.2126 84.0896 61.1415 84.1303 61.0646 84.1561C60.9876 84.1819 60.9063 84.1923 60.8253 84.1866C60.7444 84.181 60.6653 84.1595 60.5926 84.1233C60.52 84.0871 60.4551 84.037 60.4019 83.9758C60.3486 83.9145 60.3079 83.8434 60.2821 83.7665L58.9739 79.8585C58.9248 79.7042 58.9383 79.5369 59.0116 79.3926C59.0849 79.2483 59.212 79.1386 59.3655 79.0873C59.5196 79.0353 59.6879 79.0461 59.8341 79.1173C59.9803 79.1885 60.0925 79.3145 60.1464 79.4679Z" fill="#263238"/>
<path d="M62.526 85.3475L65.1001 88.5699C65.1508 88.6333 65.1884 88.706 65.2109 88.7839C65.2334 88.8618 65.2402 88.9434 65.2311 89.024C65.2219 89.1046 65.1969 89.1826 65.1576 89.2535C65.1182 89.3244 65.0652 89.3868 65.0017 89.4372C64.9383 89.4878 64.8656 89.5254 64.7877 89.5479C64.7098 89.5704 64.6282 89.5772 64.5476 89.5681C64.467 89.5589 64.389 89.534 64.3181 89.4946C64.2472 89.4552 64.1848 89.4023 64.1344 89.3387L61.5694 86.1147C61.5188 86.0514 61.4811 85.9787 61.4587 85.9007C61.4362 85.8228 61.4293 85.7412 61.4385 85.6606C61.4476 85.5801 61.4726 85.5021 61.512 85.4312C61.5514 85.3603 61.6043 85.2978 61.6679 85.2475C61.7954 85.1482 61.9569 85.103 62.1175 85.1218C62.278 85.1405 62.4248 85.2216 62.526 85.3475Z" fill="#263238"/>
<path d="M66.7662 90.0603L70.281 92.2115C70.4205 92.2974 70.5201 92.4351 70.5582 92.5943C70.5962 92.7536 70.5695 92.9215 70.4838 93.061C70.3979 93.2003 70.2605 93.3 70.1015 93.3384C69.9425 93.3768 69.7747 93.3508 69.6347 93.2661L66.1218 91.1122C66.0525 91.0703 65.9921 91.0151 65.9443 90.9497C65.8964 90.8844 65.862 90.8102 65.843 90.7314C65.8239 90.6527 65.8207 90.571 65.8334 90.491C65.8461 90.411 65.8746 90.3343 65.9171 90.2654C66.0025 90.1257 66.14 90.0256 66.2992 89.9871C66.4584 89.9487 66.6263 89.975 66.7662 90.0603Z" fill="#263238"/>
<path d="M72.3744 93.0331L76.4122 93.854C76.4916 93.8699 76.5671 93.9012 76.6343 93.9463C76.7016 93.9913 76.7593 94.0492 76.8042 94.1166C76.8491 94.184 76.8802 94.2595 76.8959 94.339C76.9115 94.4184 76.9113 94.5001 76.8953 94.5795C76.8629 94.7401 76.768 94.8812 76.6316 94.9718C76.4951 95.0625 76.3282 95.0953 76.1676 95.063L72.1298 94.2421C71.9692 94.2096 71.8281 94.1148 71.7374 93.9783C71.6468 93.8419 71.614 93.675 71.6463 93.5144C71.6792 93.3541 71.7744 93.2135 71.9109 93.1233C72.0474 93.0331 72.214 93.0007 72.3744 93.0331Z" fill="#263238"/>
<path d="M78.6559 93.9085L82.7309 93.2993C82.8111 93.287 82.8929 93.2907 82.9716 93.3102C83.0503 93.3297 83.1244 93.3645 83.1896 93.4126C83.2549 93.4608 83.3099 93.5214 83.3517 93.5909C83.3935 93.6604 83.4211 93.7375 83.433 93.8177C83.4452 93.8979 83.4415 93.9797 83.422 94.0584C83.4026 94.1371 83.3677 94.2112 83.3196 94.2764C83.2714 94.3417 83.2108 94.3967 83.1413 94.4385C83.0718 94.4803 82.9947 94.5079 82.9145 94.5198L78.8398 95.1313C78.7595 95.1432 78.6776 95.1392 78.5989 95.1195C78.5201 95.0998 78.446 95.0648 78.3807 95.0165C78.3155 94.9681 78.2604 94.9074 78.2187 94.8377C78.1769 94.7681 78.1493 94.6909 78.1374 94.6105C78.114 94.4488 78.1552 94.2844 78.2523 94.1529C78.3494 94.0215 78.4944 93.9337 78.6559 93.9085Z" fill="#263238"/>
<path d="M84.8605 92.5879L88.4797 90.6209C88.5508 90.582 88.6289 90.5575 88.7095 90.5488C88.7901 90.5401 88.8716 90.5474 88.9494 90.5703C89.0271 90.5933 89.0996 90.6313 89.1626 90.6823C89.2257 90.7333 89.278 90.7962 89.3167 90.8675C89.3559 90.9385 89.3807 91.0166 89.3895 91.0973C89.3983 91.178 89.3911 91.2596 89.3681 91.3375C89.3452 91.4153 89.307 91.4878 89.2559 91.5508C89.2047 91.6138 89.1416 91.6661 89.0701 91.7045L85.4486 93.6719C85.3049 93.7499 85.136 93.7677 84.9792 93.7215C84.8223 93.6753 84.6901 93.5688 84.6116 93.4253C84.5337 93.2812 84.5161 93.1121 84.5627 92.9551C84.6094 92.7981 84.7165 92.666 84.8605 92.5879Z" fill="#263238"/>
<path d="M90.2361 89.2213L92.973 86.1353C93.0263 86.0741 93.0913 86.0242 93.1641 85.9883C93.2369 85.9524 93.3161 85.9313 93.3971 85.9263C93.4781 85.9212 93.5592 85.9323 93.6359 85.9588C93.7126 85.9854 93.7833 86.0269 93.8438 86.0809C93.9663 86.1894 94.0407 86.3419 94.0509 86.5051C94.0611 86.6683 94.0062 86.829 93.8982 86.9518L91.1617 90.0401C91.0533 90.1625 90.9007 90.237 90.7375 90.2472C90.5743 90.2574 90.4137 90.2024 90.2908 90.0945C90.1682 89.9857 90.0936 89.8328 90.0833 89.6692C90.0731 89.5056 90.128 89.3446 90.2361 89.2213Z" fill="#263238"/>
<path d="M94.14 84.2289L95.6496 80.3934C95.7097 80.2411 95.8277 80.1189 95.9777 80.0535C96.1278 79.9881 96.2977 79.9849 96.4501 80.0447C96.6024 80.1047 96.7247 80.2227 96.7901 80.3728C96.8554 80.5229 96.8586 80.6928 96.7989 80.8452L95.2892 84.6807C95.2292 84.833 95.1112 84.9552 94.9611 85.0206C94.811 85.086 94.6411 85.0892 94.4887 85.0294C94.3364 84.9694 94.2142 84.8514 94.1488 84.7013C94.0834 84.5512 94.0802 84.3813 94.14 84.2289Z" fill="#263238"/>
<path d="M96.096 78.1884L96.2026 74.0698C96.2043 73.9887 96.2221 73.9088 96.2549 73.8347C96.2876 73.7605 96.3348 73.6936 96.3936 73.6378C96.4524 73.582 96.5217 73.5384 96.5974 73.5095C96.6732 73.4806 96.7539 73.467 96.8349 73.4695C96.916 73.4712 96.9959 73.489 97.07 73.5218C97.1442 73.5546 97.2111 73.6017 97.2669 73.6605C97.3227 73.7193 97.3663 73.7886 97.3952 73.8643C97.4241 73.9401 97.4377 74.0208 97.4352 74.1018L97.3285 78.2205C97.3245 78.3841 97.2557 78.5394 97.1372 78.6524C97.0187 78.7654 96.8603 78.8267 96.6966 78.823C96.5329 78.8184 96.3776 78.749 96.265 78.63C96.1523 78.511 96.0916 78.3522 96.096 78.1884Z" fill="#263238"/>
<path d="M95.8681 71.8496L94.5599 67.9416C94.5108 67.7877 94.5241 67.6207 94.5969 67.4766C94.6697 67.3324 94.7963 67.2226 94.9493 67.1709C95.026 67.1448 95.1072 67.1341 95.1881 67.1395C95.2691 67.1448 95.3481 67.1661 95.4208 67.2021C95.4934 67.2381 95.5583 67.2881 95.6116 67.3492C95.6649 67.4103 95.7056 67.4813 95.7313 67.5582L97.0395 71.4662C97.0653 71.5432 97.0757 71.6245 97.0701 71.7055C97.0644 71.7864 97.0429 71.8655 97.0068 71.9382C96.9706 72.0108 96.9204 72.0756 96.8592 72.1289C96.798 72.1822 96.7268 72.2229 96.6499 72.2487C96.5724 72.2745 96.4905 72.2846 96.409 72.2785C96.3276 72.2723 96.2481 72.25 96.1754 72.2129C96.1026 72.1758 96.038 72.1245 95.9852 72.0621C95.9325 71.9998 95.8926 71.9275 95.8681 71.8496Z" fill="#263238"/>
<path d="M93.489 65.9707L90.9214 62.7448C90.8707 62.6815 90.8331 62.6088 90.8106 62.5308C90.7881 62.4529 90.7813 62.3713 90.7904 62.2907C90.7996 62.2102 90.8246 62.1322 90.8639 62.0613C90.9033 61.9904 90.9563 61.928 91.0198 61.8776C91.1482 61.7765 91.3113 61.7301 91.4737 61.7485C91.6361 61.767 91.7846 61.8487 91.8871 61.976L94.4547 65.2019C94.5558 65.3303 94.6022 65.4934 94.5838 65.6558C94.5654 65.8181 94.4836 65.9667 94.3563 66.0691C94.2279 66.1702 94.0648 66.2166 93.9024 66.1982C93.74 66.1798 93.5915 66.098 93.489 65.9707Z" fill="#263238"/>
<path d="M89.2396 61.2585L85.7267 59.1045C85.5869 59.0191 85.4869 58.8816 85.4484 58.7224C85.4099 58.5632 85.4363 58.3953 85.5215 58.2554C85.6074 58.116 85.7451 58.0163 85.9044 57.9783C86.0636 57.9403 86.2315 57.967 86.3711 58.0526L89.8859 60.2039C90.0253 60.2897 90.125 60.4274 90.1631 60.5867C90.2011 60.7459 90.1743 60.9138 90.0887 61.0534C90.0028 61.1926 89.8654 61.2923 89.7064 61.3307C89.5474 61.3691 89.3796 61.3432 89.2396 61.2585Z" fill="#263238"/>
<path d="M83.6372 58.2846L79.5993 57.4637C79.5198 57.4477 79.4443 57.4161 79.377 57.3708C79.3098 57.3254 79.2521 57.2673 79.2074 57.1996C79.1627 57.132 79.1318 57.0562 79.1165 56.9765C79.1011 56.8969 79.1017 56.815 79.1181 56.7356C79.1341 56.6561 79.1657 56.5806 79.211 56.5133C79.2563 56.4461 79.3145 56.3884 79.3821 56.3437C79.4498 56.299 79.5256 56.2681 79.6052 56.2527C79.6849 56.2374 79.7668 56.238 79.8462 56.2544L83.8836 57.073C84.0439 57.1059 84.1845 57.2011 84.2747 57.3376C84.3649 57.4741 84.3973 57.6407 84.3649 57.8011C84.3324 57.9617 84.2375 58.1028 84.1011 58.1935C83.9646 58.2841 83.7978 58.3169 83.6372 58.2846Z" fill="#263238"/>
<path d="M77.3579 57.4065L73.2828 58.0157C73.2026 58.028 73.1209 58.0242 73.0421 58.0048C72.9634 57.9853 72.8893 57.9505 72.8241 57.9023C72.7589 57.8542 72.7038 57.7936 72.662 57.7241C72.6203 57.6546 72.5927 57.5775 72.5808 57.4973C72.5573 57.3355 72.5986 57.1711 72.6957 57.0397C72.7927 56.9082 72.9378 56.8204 73.0992 56.7952L77.1743 56.186C77.2544 56.1737 77.3362 56.1775 77.4149 56.1969C77.4937 56.2164 77.5678 56.2512 77.633 56.2994C77.6982 56.3475 77.7533 56.4081 77.7951 56.4776C77.8368 56.5471 77.8644 56.6242 77.8763 56.7044C77.8885 56.7846 77.8848 56.8664 77.8654 56.9451C77.8459 57.0238 77.8111 57.0979 77.7629 57.1632C77.7148 57.2284 77.6542 57.2835 77.5847 57.3252C77.5151 57.367 77.4381 57.3946 77.3579 57.4065Z" fill="#263238"/>
<path d="M71.1504 58.7284L67.5312 60.6953C67.3872 60.7733 67.218 60.7909 67.061 60.7442C66.904 60.6975 66.7719 60.5905 66.6938 60.4465C66.6158 60.3027 66.598 60.1339 66.6442 59.977C66.6904 59.8202 66.7969 59.688 66.9404 59.6095L70.5619 57.6421C70.6331 57.6032 70.7114 57.5788 70.7922 57.5702C70.8729 57.5617 70.9545 57.5692 71.0324 57.5923C71.1102 57.6155 71.1827 57.6537 71.2456 57.705C71.3086 57.7563 71.3608 57.8195 71.3993 57.891C71.4772 58.035 71.4948 58.2042 71.4481 58.3612C71.4015 58.5182 71.2944 58.6503 71.1504 58.7284Z" fill="#263238"/>
<path d="M65.7771 62.0944L63.0406 65.1827C62.9322 65.3051 62.7796 65.3796 62.6164 65.3898C62.4532 65.3999 62.2926 65.345 62.1697 65.237C62.0471 65.1283 61.9725 64.9754 61.9623 64.8118C61.952 64.6482 62.0069 64.4871 62.115 64.3639L64.8519 61.2779C64.9052 61.2167 64.9702 61.1668 65.043 61.1309C65.1158 61.095 65.195 61.0739 65.276 61.0689C65.3569 61.0638 65.4382 61.0749 65.5148 61.1014C65.5915 61.128 65.6622 61.1695 65.7227 61.2235C65.7839 61.2768 65.8339 61.3418 65.8697 61.4146C65.9056 61.4874 65.9267 61.5666 65.9318 61.6476C65.9368 61.7286 65.9257 61.8098 65.8992 61.8865C65.8727 61.9632 65.8312 62.0338 65.7771 62.0944Z" fill="#263238"/>
<path d="M61.8735 67.0947L60.3657 70.9275C60.3362 71.0028 60.2921 71.0716 60.236 71.1298C60.1799 71.1881 60.1129 71.2347 60.0387 71.2671C59.9646 71.2994 59.8848 71.3169 59.804 71.3184C59.7231 71.3199 59.6427 71.3055 59.5675 71.2759C59.4919 71.2464 59.4228 71.2023 59.3643 71.1461C59.3059 71.0898 59.2591 71.0226 59.2267 70.9482C59.1942 70.8738 59.1768 70.7937 59.1755 70.7126C59.1741 70.6315 59.1888 70.5508 59.2187 70.4754L60.7265 66.6426C60.756 66.567 60.8001 66.498 60.8563 66.4395C60.9126 66.381 60.9798 66.3342 61.0542 66.3018C61.1286 66.2694 61.2087 66.252 61.2898 66.2506C61.3709 66.2492 61.4515 66.2639 61.527 66.2938C61.679 66.3543 61.8008 66.4725 61.8657 66.6227C61.9307 66.7728 61.9334 66.9425 61.8735 67.0947Z" fill="#263238"/>
<path d="M32.9223 39.3511L31.2422 39.9473L35.612 52.2624L37.2921 51.6662L32.9223 39.3511Z" fill="#263238"/>
<path d="M67.8094 38.8851L65.3828 43.6201L66.4891 44.187L68.9157 39.452L67.8094 38.8851Z" fill="#263238"/>
<path d="M65.3456 40.8153L63.7656 41.3838L66.1994 48.1484L67.7794 47.58L65.3456 40.8153Z" fill="#C7C7C7"/>
<path d="M45.3541 76.1708L21.8962 75.6577L22.2188 73.4516L42.591 73.8198L66.6151 47.4518L68.0111 50.7122L45.3541 76.1708Z" fill="#FFC727"/>
<path d="M43.2969 74.4609L34.7881 50.6814L36.8791 49.9073L45.3856 73.6872L43.2969 74.4609Z" fill="#FFC727"/>
<path d="M43.9968 71.7775L47.6091 54.1495L49.7843 54.6298L46.1738 72.2551L43.9968 71.7775Z" fill="#FFC727"/>
<path d="M68.0324 46.0358L65.9375 46.7939L69.1853 55.7677L71.2802 55.0095L68.0324 46.0358Z" fill="#FFC727"/>
<path d="M69.9962 53.2551L68.957 53.6562L77.4854 75.7507L78.5246 75.3496L69.9962 53.2551Z" fill="#FFC727"/>
<path d="M70.7885 38.6854C70.7767 39.1199 70.6364 39.5411 70.3854 39.8958C70.1343 40.2505 69.7837 40.5229 69.3779 40.6784C68.972 40.8339 68.5292 40.8656 68.1054 40.7695C67.6815 40.6734 67.2957 40.4538 66.9966 40.1385C66.6976 39.8232 66.4987 39.4263 66.4252 38.9979C66.3516 38.5696 66.4067 38.1291 66.5835 37.732C66.7603 37.335 67.0508 36.9993 67.4183 36.7674C67.7859 36.5354 68.2139 36.4176 68.6483 36.4289C68.9371 36.4364 69.2215 36.5007 69.4854 36.6182C69.7492 36.7357 69.9873 36.904 70.1861 37.1136C70.3849 37.3232 70.5404 37.5698 70.6437 37.8396C70.7471 38.1093 70.7963 38.3967 70.7885 38.6854Z" fill="#263238"/>
<path d="M72.6294 41.4054L68.5023 40.0218C68.3316 39.9645 68.174 39.8741 68.0384 39.7557C67.9028 39.6373 67.7918 39.4934 67.712 39.332C67.6321 39.1707 67.5849 38.9952 67.5731 38.8156C67.5612 38.6359 67.5849 38.4558 67.6428 38.2853C67.7002 38.1147 67.7906 37.957 67.9089 37.8214C68.0272 37.6857 68.1711 37.5747 68.3323 37.4947C68.4935 37.4146 68.669 37.3672 68.8486 37.355C69.0281 37.3428 69.2084 37.3661 69.3789 37.4236L73.5081 38.8185C73.6787 38.8759 73.8364 38.9663 73.972 39.0846C74.1077 39.2029 74.2187 39.3468 74.2987 39.508C74.3788 39.6693 74.4262 39.8447 74.4384 40.0243C74.4506 40.2039 74.4273 40.3841 74.3698 40.5547C74.2488 40.896 73.9987 41.1763 73.6733 41.3354C73.3479 41.4944 72.9731 41.5196 72.6294 41.4054Z" fill="#37474F"/>
<path d="M73.9881 40.2799C74.0542 39.8094 73.7887 39.3832 73.3952 39.3279C73.0016 39.2727 72.6291 39.6093 72.563 40.0798C72.4969 40.5502 72.7624 40.9764 73.1559 41.0317C73.5495 41.087 73.9221 40.7504 73.9881 40.2799Z" fill="#455A64"/>
<path d="M66.9429 49.3779L38.7776 58.8735L38.8259 56.9591L66.9931 47.4608L66.9429 49.3779Z" fill="#FFC727"/>
<path opacity="0.3" d="M64.5193 50.7906C58.9374 57.6148 52.9919 64.1335 46.7089 70.3183C52.2903 63.4936 58.2358 56.9749 64.5193 50.7906Z" fill="white"/>
<path d="M46.5021 59.5496L46.2319 60.8661L41.9313 62.3789C41.8591 62.4074 41.7819 62.421 41.7043 62.4189C41.6267 62.4169 41.5503 62.3992 41.4797 62.3668C41.4091 62.3345 41.3458 62.2883 41.2935 62.2309C41.2412 62.1735 41.201 62.1062 41.1754 62.0329C41.1497 61.9596 41.1392 61.8819 41.1443 61.8045C41.1494 61.727 41.1702 61.6514 41.2052 61.5821C41.2403 61.5128 41.289 61.4514 41.3484 61.4014C41.4078 61.3514 41.4767 61.3139 41.5509 61.2912L46.5021 59.5496Z" fill="#263238"/>
<path d="M21.7296 75.0629C21.6004 75.0594 21.4763 75.0117 21.3781 74.9279C21.3196 74.8798 21.2713 74.8206 21.2358 74.7538C21.2003 74.6869 21.1783 74.6137 21.1712 74.5384C21.1641 74.4631 21.1719 74.387 21.1943 74.3147C21.2166 74.2424 21.253 74.1753 21.3015 74.1171L33.9624 58.8852C34.0095 58.8231 34.0686 58.7712 34.1363 58.7327C34.204 58.6941 34.2788 58.6696 34.3562 58.6608C34.4336 58.6519 34.512 58.6588 34.5867 58.6811C34.6613 58.7034 34.7307 58.7406 34.7906 58.7904C34.8505 58.8402 34.8996 58.9017 34.9351 58.971C34.9706 59.0404 34.9916 59.1162 34.997 59.194C35.0024 59.2717 34.9919 59.3497 34.9663 59.4233C34.9407 59.4968 34.9004 59.5645 34.8479 59.622L22.187 74.8539C22.1313 74.9209 22.0613 74.9745 21.9821 75.0107C21.9029 75.0469 21.8166 75.0647 21.7296 75.0629Z" fill="#C7C7C7"/>
<path d="M41.5139 62.465C41.451 62.4635 41.3887 62.4515 41.3297 62.4294L34.2038 59.7945C34.0604 59.7414 33.9439 59.6335 33.88 59.4945C33.8161 59.3555 33.81 59.1969 33.8631 59.0534C33.9162 58.91 34.0241 58.7935 34.1631 58.7296C34.3021 58.6657 34.4607 58.6596 34.6042 58.7127L41.7293 61.3431C41.8577 61.3904 41.965 61.4818 42.0322 61.601C42.0994 61.7201 42.122 61.8593 42.096 61.9936C42.07 62.1279 41.9971 62.2486 41.8904 62.3341C41.7836 62.4196 41.6499 62.4644 41.5131 62.4604L41.5139 62.465Z" fill="#DBDBDB"/>
<path d="M24.8105 74.273C24.7972 74.8151 24.6235 75.341 24.3114 75.7844C23.9992 76.2278 23.5627 76.5687 23.0568 76.764C22.551 76.9593 21.9986 77.0002 21.4695 76.8816C20.9404 76.7631 20.4583 76.4903 20.0842 76.0978C19.7101 75.7053 19.4608 75.2108 19.3677 74.6766C19.2746 74.1424 19.342 73.5926 19.5613 73.0967C19.7806 72.6008 20.142 72.1811 20.5998 71.8905C21.0576 71.6 21.5913 71.4517 22.1334 71.4644C22.4936 71.4728 22.8487 71.5522 23.1783 71.698C23.5078 71.8437 23.8054 72.053 24.0541 72.3138C24.3027 72.5747 24.4975 72.882 24.6273 73.2181C24.7571 73.5543 24.8193 73.9128 24.8105 74.273Z" fill="#37474F"/>
<path d="M80.7539 75.607C80.7406 76.1491 80.5669 76.675 80.2547 77.1184C79.9426 77.5618 79.506 77.9026 79.0002 78.0979C78.4944 78.2932 77.942 78.3342 77.4129 78.2156C76.8838 78.0971 76.4017 77.8243 76.0276 77.4318C75.6535 77.0393 75.4041 76.5447 75.311 76.0106C75.2179 75.4764 75.2853 74.9266 75.5046 74.4307C75.7239 73.9348 76.0853 73.5151 76.5432 73.2245C77.001 72.934 77.5347 72.7857 78.0767 72.7984C78.8041 72.816 79.4947 73.1218 79.9967 73.6485C80.4987 74.1751 80.7711 74.8796 80.7539 75.607Z" fill="#37474F"/>
<path d="M28.1992 39.7275L33.2377 42.8901L36.2123 39.3034" stroke="#263238" stroke-miterlimit="10"/>
<path d="M25.7807 39.2763C27.1923 40.0356 30.3704 40.4406 33.3201 39.9163C36.0006 39.4463 39.73 40.0169 39.7525 39.0506C39.7619 38.6766 37.6812 38.1213 34.0132 38.034C30.4017 37.9485 26.3406 36.9279 24.7227 37.5559C24.012 37.8163 25.0684 38.9001 25.7807 39.2763Z" fill="#455A64"/>
<path d="M42.0909 82.5158L40.9031 82.0848L44.2136 74.4049L45.4032 74.8332L42.0909 82.5158Z" fill="#A6A6A6"/>
<path d="M39.1157 81.9542L44.4824 83.5117L44.9343 81.9546L39.5676 80.3971L39.1157 81.9542Z" fill="#263238"/>
<path d="M51.0493 74.8076C51.0168 74.7861 50.9903 74.7567 50.9722 74.7222C50.9542 74.6876 50.9451 74.649 50.946 74.6101C50.9469 74.5711 50.9577 74.533 50.9773 74.4993C50.9969 74.4656 51.0247 74.4374 51.0582 74.4174C51.0938 74.3999 51.124 74.3729 51.1454 74.3394C51.1668 74.306 51.1785 74.2672 51.1794 74.2275C51.1792 74.183 51.1661 74.1394 51.1417 74.1022C51.1173 74.0649 51.0827 74.0355 51.0419 74.0175C51.0002 74.001 50.9647 73.9718 50.9404 73.934C50.9162 73.8963 50.9044 73.8519 50.9067 73.8071C50.9082 73.7718 50.9177 73.7374 50.9346 73.7064C50.9515 73.6754 50.9753 73.6488 51.0041 73.6284C51.0335 73.6092 51.0578 73.583 51.0748 73.5523C51.0918 73.5216 51.1012 73.4872 51.102 73.452C51.1018 73.4029 51.086 73.355 51.0567 73.3155C51.0274 73.276 50.9863 73.2469 50.9393 73.2324C50.8924 73.2183 50.8512 73.1897 50.8216 73.1507C50.7921 73.1117 50.7757 73.0643 50.7748 73.0153C50.7763 72.9847 50.7839 72.9547 50.7972 72.9271C50.8104 72.8994 50.8291 72.8747 50.852 72.8543C50.8752 72.8354 50.894 72.8116 50.9071 72.7846C50.9202 72.7577 50.9272 72.7282 50.9276 72.6982C50.9305 72.6435 50.9126 72.5896 50.8774 72.5476C50.8422 72.5055 50.7924 72.4784 50.738 72.4716C50.6853 72.4619 50.6376 72.4343 50.6031 72.3933C50.5686 72.3524 50.5494 72.3007 50.5488 72.2472C50.5508 72.1954 50.5701 72.1458 50.6037 72.1064C50.6282 72.0739 50.6437 72.0356 50.6485 71.9952C50.6534 71.9548 50.6475 71.9139 50.6314 71.8765C50.6154 71.8392 50.5897 71.8067 50.5571 71.7825C50.5244 71.7582 50.486 71.743 50.4456 71.7384C50.3874 71.7352 50.3326 71.71 50.2922 71.668C50.2518 71.626 50.2289 71.5703 50.2279 71.512C50.229 71.4698 50.243 71.4289 50.2682 71.3949C50.2878 71.3617 50.2988 71.3242 50.3002 71.2857C50.3016 71.2472 50.2932 71.2089 50.276 71.1745C50.2588 71.14 50.2332 71.1104 50.2016 71.0883C50.17 71.0663 50.1334 71.0525 50.0951 71.0483L50.0633 71.0539C50.0323 71.0559 50.0013 71.0516 49.972 71.0413C49.9428 71.031 49.9159 71.015 49.893 70.9941C49.8701 70.9732 49.8517 70.9479 49.8388 70.9197C49.8259 70.8915 49.8188 70.861 49.8179 70.83C49.8194 70.7966 49.828 70.7639 49.8433 70.7342C49.8585 70.7006 49.8654 70.6638 49.8635 70.627C49.8615 70.5902 49.8508 70.5543 49.8321 70.5225C49.8135 70.4907 49.7875 70.4638 49.7563 70.4441C49.7251 70.4244 49.6896 70.4125 49.6529 70.4093L49.5938 70.4197C49.5612 70.4258 49.5276 70.4247 49.4954 70.4166C49.4632 70.4085 49.4331 70.3935 49.4072 70.3727C49.3813 70.3519 49.3603 70.3257 49.3454 70.296C49.3306 70.2663 49.3223 70.2338 49.3212 70.2006C49.321 70.1765 49.3256 70.1526 49.3347 70.1303C49.3443 70.0977 49.3467 70.0633 49.3415 70.0296C49.3363 69.996 49.3238 69.9639 49.3047 69.9357C49.2857 69.9074 49.2606 69.8838 49.2313 69.8664C49.202 69.849 49.1693 69.8383 49.1354 69.8351C49.1059 69.8346 49.0766 69.8397 49.0491 69.8503C49.0154 69.8608 48.9797 69.8634 48.9449 69.8579C48.91 69.8525 48.8768 69.8391 48.848 69.8189C48.8191 69.7986 48.7952 69.772 48.7782 69.741C48.7613 69.7101 48.7516 69.6757 48.75 69.6404L48.7561 69.5949C48.762 69.563 48.7612 69.5303 48.7537 69.4988C48.7461 69.4672 48.732 69.4377 48.7122 69.412C48.6925 69.3863 48.6676 69.365 48.639 69.3496C48.6105 69.3342 48.5791 69.325 48.5468 69.3225C48.5094 69.32 48.472 69.3265 48.4377 69.3416C48.4036 69.3566 48.3664 69.3631 48.3292 69.3605C48.292 69.3579 48.2561 69.3464 48.2243 69.3268C48.1926 69.3073 48.1661 69.2804 48.147 69.2484C48.128 69.2164 48.1169 69.1802 48.1149 69.143L48.1117 69.1249C48.1145 69.0645 48.0935 69.0054 48.0532 68.9604C48.0129 68.9153 47.9565 68.8879 47.8962 68.884C47.8487 68.8832 47.802 68.8971 47.7627 68.9238C47.7252 68.9525 47.679 68.9672 47.6318 68.9655C47.5759 68.962 47.5232 68.9382 47.4835 68.8986C47.4438 68.8591 47.4199 68.8064 47.4162 68.7504C47.4127 68.6948 47.3891 68.6423 47.3499 68.6027C47.3106 68.5631 47.2584 68.539 47.2028 68.535C47.1454 68.5341 47.0897 68.5548 47.0467 68.5928C47.0051 68.6302 46.9514 68.6513 46.8955 68.6521C46.8422 68.6495 46.7915 68.6286 46.7519 68.5928C46.7124 68.5571 46.6864 68.5087 46.6785 68.456C46.6688 68.4165 46.6489 68.3804 46.6207 68.3511C46.5926 68.3218 46.5572 68.3005 46.5182 68.2893C46.4792 68.2781 46.4379 68.2774 46.3985 68.2872C46.3591 68.2971 46.323 68.3172 46.2938 68.3455C46.2733 68.3709 46.2471 68.3911 46.2173 68.4045C46.1875 68.4178 46.155 68.424 46.1224 68.4224C46.0752 68.4217 46.0296 68.4056 45.9924 68.3767C45.9552 68.3477 45.9285 68.3074 45.9162 68.2619C45.9019 68.2171 45.8743 68.1778 45.8371 68.1492C45.7999 68.1206 45.7548 68.104 45.7079 68.1017C45.6705 68.1003 45.6335 68.1087 45.6004 68.126C45.5673 68.1433 45.5393 68.1689 45.5191 68.2004C45.4956 68.2312 45.4647 68.2555 45.4293 68.2712C45.3939 68.2869 45.355 68.2934 45.3164 68.2901C45.2778 68.2869 45.2407 68.2739 45.2084 68.2525C45.1761 68.2311 45.1497 68.2019 45.1317 68.1676C45.1156 68.1285 45.0883 68.095 45.0534 68.0711C45.0184 68.0473 44.9772 68.0343 44.9349 68.0335C44.8914 68.0321 44.8484 68.0429 44.8108 68.0648C44.7732 68.0867 44.7426 68.1188 44.7225 68.1574C44.7041 68.1974 44.6738 68.2307 44.6358 68.2528C44.5978 68.275 44.5539 68.2849 44.5101 68.2813C44.4728 68.2809 44.4362 68.2707 44.4041 68.2517C44.372 68.2326 44.3454 68.2055 44.3272 68.1729C44.3034 68.14 44.2714 68.114 44.2344 68.0974C44.1973 68.0809 44.1566 68.0744 44.1162 68.0786C44.0759 68.0829 44.0374 68.0976 44.0046 68.1215C43.9718 68.1454 43.9458 68.1775 43.9294 68.2146C43.9129 68.2568 43.8843 68.2932 43.8473 68.3193C43.8102 68.3453 43.7663 68.3599 43.721 68.3612C43.6885 68.3604 43.6566 68.3523 43.6276 68.3375C43.5987 68.3227 43.5735 68.3016 43.5538 68.2757C43.5333 68.2499 43.5076 68.2288 43.4783 68.2137C43.449 68.1986 43.4168 68.19 43.3839 68.1885C43.3325 68.189 43.2828 68.2067 43.2426 68.2388C43.2024 68.2709 43.1741 68.3155 43.1621 68.3655C43.1497 68.4156 43.1208 68.4601 43.0801 68.4919C43.0394 68.5236 42.9892 68.5408 42.9376 68.5407C42.9099 68.5401 42.8826 68.5341 42.8573 68.5228C42.832 68.5116 42.8093 68.4954 42.7903 68.4752C42.7712 68.4547 42.748 68.4383 42.7223 68.4272C42.6966 68.416 42.6688 68.4102 42.6408 68.4101C42.5838 68.4074 42.5281 68.4273 42.4857 68.4654C42.4433 68.5035 42.4176 68.5568 42.4142 68.6137C42.4077 68.6694 42.381 68.7208 42.3393 68.7583C42.2977 68.7957 42.2437 68.8167 42.1877 68.8174C42.1405 68.8152 42.0951 68.7987 42.0576 68.7699C42.0249 68.7484 41.9873 68.7356 41.9484 68.7327C41.9094 68.7297 41.8703 68.7367 41.8347 68.753C41.7992 68.7693 41.7684 68.7944 41.7452 68.8258C41.722 68.8573 41.7072 68.8942 41.7022 68.9329L41.7054 68.9511C41.7046 68.9901 41.694 69.0283 41.6745 69.0621C41.655 69.0959 41.6272 69.1242 41.5938 69.1444C41.5603 69.1645 41.5223 69.1758 41.4833 69.1773C41.4443 69.1787 41.4056 69.1702 41.3708 69.1526C41.3375 69.1357 41.3007 69.1272 41.2634 69.1276C41.2261 69.1281 41.1895 69.1376 41.1567 69.1553C41.1239 69.1731 41.0959 69.1985 41.0751 69.2294C41.0542 69.2603 41.0412 69.2958 41.0371 69.3329C41.0387 69.3482 41.0414 69.3634 41.0451 69.3783C41.0494 69.4103 41.0469 69.4428 41.0379 69.4738C41.0288 69.5047 41.0134 69.5334 40.9925 69.558C40.9717 69.5827 40.9459 69.6026 40.9169 69.6167C40.8878 69.6307 40.8562 69.6385 40.8239 69.6395C40.7946 69.6375 40.7657 69.6307 40.7385 69.6194C40.7054 69.6075 40.6701 69.6033 40.6352 69.6071C40.6003 69.6109 40.5667 69.6226 40.537 69.6414C40.5074 69.6601 40.4823 69.6854 40.4639 69.7153C40.4455 69.7452 40.4341 69.7789 40.4307 69.8139C40.4302 69.8379 40.4344 69.8618 40.4431 69.8843C40.4513 69.9175 40.452 69.9521 40.4452 69.9856C40.4384 70.0191 40.4242 70.0507 40.4036 70.0781C40.3831 70.1054 40.3568 70.1279 40.3265 70.1438C40.2962 70.1597 40.2628 70.1687 40.2286 70.1701C40.2083 70.17 40.1882 70.1672 40.1686 70.1619C40.1362 70.1539 40.1025 70.1531 40.0698 70.1594C40.0371 70.1657 40.0061 70.179 39.979 70.1985C39.9519 70.2179 39.9294 70.243 39.9129 70.272C39.8965 70.301 39.8865 70.3332 39.8837 70.3664C39.8838 70.3997 39.8896 70.4327 39.9008 70.4641C39.9139 70.4983 39.9186 70.5352 39.9145 70.5717C39.9105 70.6082 39.8978 70.6432 39.8775 70.6737C39.8572 70.7043 39.8299 70.7296 39.7979 70.7475C39.7659 70.7654 39.7301 70.7754 39.6934 70.7767L39.6639 70.7819C39.633 70.7785 39.6017 70.7814 39.572 70.7904C39.5422 70.7994 39.5146 70.8143 39.4908 70.8342C39.4669 70.8541 39.4474 70.8787 39.4332 70.9063C39.4191 70.934 39.4107 70.9643 39.4086 70.9953C39.4082 71.0377 39.4196 71.0795 39.4415 71.1159C39.4585 71.15 39.4669 71.1878 39.4657 71.2259C39.4646 71.264 39.4541 71.3012 39.4351 71.3343C39.416 71.3673 39.3891 71.3951 39.3567 71.4152C39.3243 71.4352 39.2874 71.447 39.2494 71.4493C39.191 71.4496 39.1348 71.472 39.0923 71.5121C39.0498 71.5521 39.0241 71.6068 39.0203 71.6651C39.0198 71.7171 39.037 71.7677 39.0689 71.8088C39.1016 71.8485 39.1187 71.8988 39.1171 71.9502C39.114 72.0031 39.0928 72.0534 39.057 72.0925C39.0213 72.1316 38.9731 72.1572 38.9206 72.1649C38.8805 72.172 38.843 72.1895 38.8119 72.2157C38.7808 72.242 38.7571 72.276 38.7434 72.3143C38.7297 72.3526 38.7263 72.3939 38.7337 72.4339C38.7411 72.4739 38.7589 72.5113 38.7854 72.5422C38.8154 72.5691 38.8373 72.6039 38.8486 72.6425C38.8599 72.6812 38.8602 72.7222 38.8495 72.761C38.8389 72.7999 38.8176 72.835 38.788 72.8624C38.7585 72.8898 38.7219 72.9084 38.6824 72.9162C38.6337 72.926 38.5898 72.9524 38.5582 72.9908C38.5265 73.0291 38.509 73.0772 38.5086 73.1269C38.5067 73.1621 38.5138 73.1973 38.5292 73.229C38.5446 73.2607 38.5678 73.2879 38.5966 73.3082C38.6259 73.3337 38.6483 73.3663 38.6616 73.4027C38.6749 73.4392 38.6789 73.4785 38.673 73.5169C38.6671 73.5553 38.6516 73.5916 38.628 73.6224C38.6043 73.6532 38.5733 73.6776 38.5377 73.6932C38.498 73.7071 38.4632 73.7321 38.4373 73.7653C38.4115 73.7985 38.3957 73.8384 38.392 73.8803C38.3882 73.9222 38.3966 73.9643 38.4161 74.0016C38.4356 74.0388 38.4654 74.0697 38.502 74.0905C38.537 74.11 38.5659 74.1389 38.5853 74.174C38.6047 74.2091 38.6138 74.2489 38.6117 74.289C38.61 74.3284 38.5982 74.3667 38.5775 74.4003C38.5567 74.4339 38.5277 74.4616 38.4932 74.4807C38.4548 74.4988 38.4227 74.5277 38.4006 74.5638C38.3785 74.6 38.3675 74.6418 38.369 74.6842C38.3704 74.7265 38.3842 74.7675 38.4087 74.8021C38.4332 74.8367 38.4673 74.8633 38.5068 74.8787C38.5472 74.8971 38.5814 74.9267 38.6054 74.964C38.6294 75.0013 38.6421 75.0448 38.642 75.0891C38.6412 75.1243 38.6319 75.1587 38.6148 75.1894C38.5978 75.2201 38.5735 75.2462 38.5442 75.2655C38.5094 75.2893 38.4823 75.3225 38.4659 75.3613C38.4496 75.4001 38.4448 75.4428 38.452 75.4842C38.4593 75.5257 38.4784 75.5641 38.5069 75.5951C38.5355 75.626 38.5723 75.648 38.6131 75.6585C38.6498 75.6716 38.6826 75.6937 38.7084 75.7229C38.7343 75.752 38.7523 75.7873 38.7609 75.8253C38.7694 75.8633 38.7682 75.9029 38.7573 75.9403C38.7464 75.9777 38.7262 76.0117 38.6986 76.0392C38.6754 76.0586 38.6566 76.0828 38.6436 76.1102C38.6306 76.1375 38.6237 76.1673 38.6233 76.1976C38.6239 76.2511 38.6431 76.3028 38.6776 76.3438C38.7121 76.3847 38.7598 76.4124 38.8125 76.422C38.8653 76.4321 38.9129 76.4603 38.9471 76.5017C38.9813 76.5432 39 76.5953 38.9999 76.649C38.9999 76.7001 38.981 76.7493 38.9468 76.7871C38.9223 76.8196 38.9069 76.858 38.902 76.8983C38.8971 76.9387 38.903 76.9797 38.9191 77.017C38.9352 77.0544 38.9608 77.0868 38.9935 77.1111C39.0261 77.1353 39.0646 77.1505 39.105 77.1551C39.1632 77.1584 39.2179 77.1835 39.2583 77.2255C39.2987 77.2675 39.3217 77.3233 39.3226 77.3815C39.3207 77.4242 39.3068 77.4656 39.2827 77.5009C39.2631 77.5342 39.2523 77.5719 39.2511 77.6105C39.2499 77.6492 39.2584 77.6875 39.2759 77.7219C39.2933 77.7564 39.3192 77.7859 39.351 77.8078C39.3829 77.8297 39.4197 77.8432 39.4581 77.8471L39.4877 77.8419C39.5188 77.8396 39.55 77.8437 39.5795 77.8538C39.609 77.8639 39.6361 77.8799 39.6593 77.9007C39.6824 77.9216 39.7011 77.947 39.7141 77.9753C39.7272 78.0036 39.7344 78.0343 39.7353 78.0654C39.7338 78.0988 39.7252 78.1315 39.7099 78.1612C39.6952 78.1947 39.6886 78.2312 39.6908 78.2677C39.6929 78.3042 39.7037 78.3397 39.7223 78.3712C39.7408 78.4027 39.7666 78.4293 39.7975 78.4489C39.8284 78.4685 39.8635 78.4805 39.8999 78.4838L39.9567 78.4738C39.9948 78.468 40.0337 78.4719 40.0699 78.485C40.1061 78.4981 40.1385 78.52 40.164 78.5489C40.1895 78.5777 40.2074 78.6124 40.2161 78.6499C40.2248 78.6874 40.2239 78.7265 40.2136 78.7636C40.2036 78.7966 40.201 78.8314 40.2062 78.8654C40.2114 78.8995 40.2241 78.932 40.2435 78.9605C40.2629 78.989 40.2884 79.0128 40.3182 79.0301C40.3479 79.0475 40.3812 79.0579 40.4156 79.0607C40.4443 79.0615 40.4729 79.0565 40.4996 79.046C40.5333 79.0355 40.5689 79.0328 40.6038 79.0383C40.6387 79.0437 40.6718 79.0571 40.7007 79.0773C40.7296 79.0976 40.7534 79.1242 40.7704 79.1552C40.7874 79.1861 40.7971 79.2205 40.7986 79.2558L40.7926 79.3013C40.787 79.333 40.7881 79.3655 40.7958 79.3967C40.8035 79.4279 40.8176 79.4572 40.8373 79.4826C40.8569 79.508 40.8817 79.5291 40.91 79.5444C40.9383 79.5597 40.9695 79.5689 41.0015 79.5714C41.0389 79.574 41.0763 79.5674 41.1105 79.5523C41.1449 79.5367 41.1826 79.5299 41.2203 79.5322C41.2579 79.5346 41.2944 79.5463 41.3266 79.566C41.3587 79.5858 41.3855 79.6132 41.4046 79.6458C41.4237 79.6783 41.4345 79.7151 41.436 79.7528L41.4388 79.7687C41.4354 79.7987 41.4382 79.8291 41.4472 79.8579C41.4561 79.8867 41.471 79.9134 41.4909 79.9361C41.5107 79.9589 41.5351 79.9772 41.5625 79.99C41.5899 80.0028 41.6196 80.0097 41.6498 80.0103C41.6973 80.0111 41.744 79.9972 41.7833 79.9705C41.8208 79.9418 41.867 79.9271 41.9141 79.9288C41.9701 79.9324 42.0228 79.9561 42.0625 79.9957C42.1022 80.0353 42.1261 80.088 42.1298 80.1439C42.1306 80.1863 42.1437 80.2275 42.1675 80.2626C42.1913 80.2977 42.2248 80.3251 42.2639 80.3415C42.3029 80.358 42.3459 80.3628 42.3877 80.3553C42.4294 80.3477 42.468 80.3283 42.4989 80.2993C42.5297 80.2758 42.5658 80.2604 42.6041 80.2545C42.6423 80.2486 42.6814 80.2525 42.7178 80.2657C42.7541 80.2789 42.7866 80.3011 42.8122 80.3301C42.8377 80.3592 42.8556 80.3942 42.864 80.4319C42.872 80.4847 42.8979 80.533 42.9375 80.5688C42.9771 80.6045 43.0278 80.6255 43.0811 80.628C43.1134 80.628 43.1454 80.6211 43.175 80.6078C43.2045 80.5946 43.231 80.5753 43.2525 80.5511C43.2731 80.5257 43.2993 80.5055 43.3291 80.4921C43.3589 80.4788 43.3914 80.4726 43.424 80.4742C43.4712 80.4744 43.5169 80.4898 43.5545 80.5183C43.592 80.5468 43.6192 80.5867 43.632 80.6321C43.6464 80.6704 43.6707 80.7041 43.7024 80.7299C43.7342 80.7557 43.7722 80.7726 43.8126 80.7789C43.853 80.7851 43.8944 80.7805 43.9324 80.7655C43.9705 80.7505 44.0039 80.7257 44.0291 80.6936C44.0503 80.6596 44.0804 80.6321 44.1162 80.6141C44.152 80.5962 44.192 80.5885 44.2319 80.592C44.2718 80.5954 44.3099 80.6098 44.3421 80.6336C44.3743 80.6574 44.3993 80.6896 44.4143 80.7267C44.4317 80.7656 44.4596 80.7989 44.4948 80.8229C44.53 80.8469 44.5712 80.8606 44.6137 80.8627C44.6577 80.8657 44.7016 80.8552 44.7394 80.8327C44.7773 80.8101 44.8074 80.7766 44.8258 80.7365C44.8441 80.6964 44.8742 80.6629 44.9121 80.6403C44.95 80.6178 44.9938 80.6073 45.0378 80.6103C45.0754 80.6122 45.1119 80.6232 45.1443 80.6424C45.1766 80.6617 45.2038 80.6885 45.2234 80.7206C45.247 80.7541 45.2792 80.7806 45.3165 80.7975C45.3538 80.8144 45.395 80.821 45.4357 80.8167C45.4764 80.8124 45.5153 80.7974 45.5483 80.7731C45.5813 80.7488 45.6072 80.7162 45.6234 80.6786C45.6399 80.6364 45.6685 80.5999 45.7055 80.5739C45.7426 80.5478 45.7865 80.5332 45.8318 80.532C45.8644 80.5339 45.8962 80.5427 45.925 80.5579C45.9539 80.573 45.9793 80.594 45.9994 80.6197C46.027 80.6499 46.062 80.6723 46.101 80.6845C46.1401 80.6967 46.1816 80.6983 46.2215 80.6892C46.2613 80.6801 46.2981 80.6605 46.3279 80.6325C46.3577 80.6045 46.3795 80.5691 46.3911 80.5299C46.3979 80.4902 46.4157 80.4532 46.4424 80.423C46.4691 80.3929 46.5036 80.3707 46.5422 80.3591C46.5807 80.3475 46.6218 80.3468 46.6607 80.3572C46.6996 80.3676 46.7349 80.3886 46.7625 80.4179C46.8034 80.4575 46.8575 80.4805 46.9143 80.4826C46.9705 80.4848 47.0254 80.4651 47.0673 80.4276C47.1092 80.3901 47.1349 80.3378 47.139 80.2817C47.145 80.2257 47.1714 80.1738 47.213 80.1359C47.2547 80.0979 47.3088 80.0766 47.3651 80.0758C47.4123 80.0779 47.4577 80.0945 47.4952 80.1232C47.5282 80.1451 47.5664 80.1582 47.6059 80.1611C47.6455 80.164 47.6851 80.1566 47.7209 80.1397C47.7568 80.1229 47.7877 80.097 47.8107 80.0647C47.8337 80.0324 47.8479 79.9947 47.8521 79.9553L47.8489 79.9371C47.8486 79.8765 47.8722 79.8182 47.9146 79.7748C47.9569 79.7315 48.0146 79.7065 48.0752 79.7054C48.1133 79.7064 48.1505 79.7167 48.1835 79.7356C48.2167 79.752 48.2532 79.7602 48.2902 79.7595C48.3271 79.7588 48.3634 79.7492 48.3959 79.7316C48.4284 79.714 48.4561 79.6888 48.4768 79.6582C48.4976 79.6276 48.5106 79.5924 48.5149 79.5557C48.5135 79.5404 48.5108 79.5252 48.5069 79.5103C48.503 79.4785 48.5057 79.4462 48.515 79.4154C48.5242 79.3847 48.5397 79.3563 48.5606 79.3319C48.5814 79.3075 48.6071 79.2878 48.636 79.2739C48.6649 79.26 48.6964 79.2524 48.7285 79.2513C48.7581 79.2513 48.7874 79.2582 48.814 79.2715C48.8471 79.2833 48.8826 79.2874 48.9176 79.2834C48.9526 79.2795 48.9862 79.2675 49.0159 79.2485C49.0456 79.2295 49.0705 79.204 49.0888 79.1739C49.1071 79.1437 49.1182 79.1098 49.1213 79.0747C49.1218 79.0507 49.1176 79.0268 49.109 79.0043C49.1007 78.9711 49.1 78.9365 49.1068 78.903C49.1137 78.8695 49.1278 78.8379 49.1484 78.8105C49.1689 78.7832 49.1953 78.7607 49.2255 78.7448C49.2558 78.7289 49.2893 78.7199 49.3234 78.7185C49.3429 78.7192 49.3623 78.7221 49.3811 78.7271C49.4135 78.7351 49.4472 78.7359 49.4799 78.7296C49.5127 78.7233 49.5436 78.71 49.5707 78.6905C49.5978 78.6711 49.6204 78.646 49.6368 78.617C49.6533 78.588 49.6632 78.5558 49.6661 78.5226C49.6671 78.4892 49.6612 78.456 49.6489 78.4249C49.6364 78.3909 49.6321 78.3545 49.6363 78.3185C49.6405 78.2825 49.6531 78.248 49.6732 78.2179C49.6932 78.1877 49.72 78.1626 49.7515 78.1447C49.783 78.1269 49.8183 78.1166 49.8545 78.1149C49.8641 78.1122 49.874 78.1104 49.884 78.1098C49.9151 78.1135 49.9466 78.1108 49.9767 78.102C50.0067 78.0931 50.0346 78.0782 50.0587 78.0582C50.0828 78.0382 50.1026 78.0135 50.1168 77.9856C50.1311 77.9578 50.1395 77.9273 50.1415 77.896C50.1455 77.8547 50.1382 77.8131 50.1204 77.7756C50.1029 77.7415 50.0941 77.7035 50.095 77.6651C50.0958 77.6267 50.1062 77.5892 50.1253 77.5558C50.1443 77.5225 50.1714 77.4944 50.204 77.4742C50.2366 77.454 50.2738 77.4422 50.3121 77.4399C50.3705 77.4397 50.4267 77.4173 50.4692 77.3772C50.5117 77.3372 50.5374 77.2825 50.5412 77.2242C50.5428 77.172 50.5256 77.121 50.4926 77.0805C50.4613 77.04 50.4443 76.9903 50.4444 76.9391C50.4475 76.8862 50.4687 76.8359 50.5045 76.7968C50.5402 76.7577 50.5884 76.7321 50.6409 76.7243C50.6941 76.7194 50.7437 76.695 50.78 76.6558C50.8163 76.6166 50.8369 76.5653 50.8377 76.5119C50.838 76.4815 50.8323 76.4514 50.821 76.4233C50.8096 76.3951 50.7928 76.3695 50.7715 76.3479C50.7495 76.3267 50.7319 76.3014 50.7198 76.2734C50.7076 76.2453 50.7012 76.2152 50.7008 76.1847C50.7035 76.1352 50.7222 76.088 50.7539 76.05C50.7856 76.0119 50.8287 75.9851 50.8768 75.9735C50.9244 75.9615 50.967 75.9345 50.9983 75.8966C51.0295 75.8587 51.0478 75.8118 51.0506 75.7627C51.0514 75.7279 51.0437 75.6933 51.028 75.6622C51.0123 75.631 50.9892 75.6042 50.9607 75.5841C50.9329 75.5624 50.9105 75.5345 50.8952 75.5027C50.8799 75.4708 50.872 75.4359 50.8723 75.4006C50.8745 75.3561 50.8896 75.3132 50.9156 75.277C50.9417 75.2408 50.9777 75.213 51.0193 75.1969C51.0561 75.1801 51.0878 75.1539 51.1113 75.1209C51.1348 75.0879 51.1492 75.0493 51.1531 75.009C51.1569 74.9687 51.1501 74.9281 51.1333 74.8913C51.1164 74.8544 51.0902 74.8227 51.0572 74.7992L51.0493 74.8076ZM44.6489 79.3275C43.6831 79.3029 42.7463 78.9924 41.9569 78.4353C41.1676 77.8783 40.5611 77.0996 40.2143 76.1979C39.8675 75.2961 39.7958 74.3118 40.0085 73.3694C40.2211 72.4269 40.7084 71.5687 41.4088 70.9032C42.1092 70.2377 42.9912 69.7949 43.9433 69.6307C44.8954 69.4665 45.8747 69.5883 46.7576 69.9808C47.6404 70.3732 48.3871 71.0187 48.9031 71.8354C49.4191 72.6522 49.6813 73.6037 49.6565 74.5695C49.6234 75.8645 49.0771 77.0933 48.138 77.9855C47.199 78.8778 45.9439 79.3605 44.6489 79.3275Z" fill="#A6A6A6"/>
<path d="M44.4651 69.1485L44.332 74.2852L45.2173 74.3081L45.3504 69.1714L44.4651 69.1485Z" fill="#A6A6A6"/>
<path d="M40.1544 72.004L39.8301 72.8281L44.6115 74.71L44.9358 73.8859L40.1544 72.004Z" fill="#A6A6A6"/>
<path d="M44.4421 74.0094L41.0391 77.8594L41.7026 78.4459L45.1057 74.5959L44.4421 74.0094Z" fill="#A6A6A6"/>
<path d="M46.4564 78.3152L44.3884 74.5076L45.1667 74.0855L47.6186 78.6007L46.8404 79.0228L46.4564 78.3152Z" fill="#A6A6A6"/>
<path d="M44.7124 73.8585L44.8438 74.7344L49.9254 73.9725L49.7941 73.0967L44.7124 73.8585Z" fill="#A6A6A6"/>
<path d="M46.261 74.4909C46.253 74.7859 46.1575 75.0718 45.9868 75.3125C45.816 75.5531 45.5777 75.7377 45.3019 75.8427C45.0261 75.9477 44.7254 75.9685 44.4378 75.9023C44.1502 75.8362 43.8888 75.6862 43.6866 75.4712C43.4844 75.2563 43.3505 74.9862 43.3021 74.6951C43.2536 74.404 43.2926 74.1051 43.4143 73.8363C43.5359 73.5674 43.7346 73.3407 43.9853 73.185C44.2359 73.0292 44.5271 72.9514 44.822 72.9614C45.215 72.9752 45.5867 73.1437 45.8561 73.4301C46.1256 73.7166 46.2711 74.0978 46.261 74.4909Z" fill="#A6A6A6"/>
<path d="M45.4633 74.4676C45.4596 74.6043 45.4154 74.7368 45.3364 74.8484C45.2574 74.96 45.1471 75.0457 45.0194 75.0947C44.8917 75.1437 44.7524 75.1537 44.619 75.1235C44.4856 75.0934 44.3642 75.0243 44.27 74.9252C44.1758 74.826 44.1132 74.7012 44.0899 74.5664C44.0666 74.4317 44.0838 74.293 44.1393 74.168C44.1948 74.043 44.286 73.9373 44.4016 73.8641C44.5171 73.791 44.6518 73.7537 44.7885 73.757C44.8795 73.7592 44.9692 73.7794 45.0524 73.8163C45.1356 73.8532 45.2107 73.9062 45.2734 73.9722C45.3361 74.0382 45.3851 74.116 45.4177 74.201C45.4503 74.286 45.4658 74.3766 45.4633 74.4676Z" fill="#263238"/>
<path d="M47.8264 65.9417L49.016 66.3699L45.6043 73.7796L44.4147 73.3513L47.8264 65.9417Z" fill="#A6A6A6"/>
<path d="M50.8042 66.5028L45.4375 64.9453L44.9856 66.5024L50.3523 68.0599L50.8042 66.5028Z" fill="#263238"/>
<path d="M47.2991 26.2232C47.2991 26.2232 46.5799 29.1989 46.3813 30.4162C46.3813 30.4162 52.3873 44.503 52.1465 48.1371C51.8662 52.3868 45.5834 75.4564 45.5834 75.4564L35.5844 72.4871C35.5844 72.4871 36.7191 65.6055 37.9913 59.9619C38.8962 55.9491 40.7515 49.4516 40.8003 48.7148C41.0456 45.1198 34.2321 31.088 34.031 28.6061C33.5801 23.0305 37.759 20.8905 37.759 20.8905L47.2991 26.2232Z" fill="#AD6359"/>
<path d="M48.9935 83.1937C48.3881 83.2133 35.4357 78.7575 34.951 78.1963C34.7657 77.9946 34.6327 76.2478 35.3809 73.4379C35.3902 73.4106 35.3968 73.3813 35.4056 73.3517C35.5596 72.7744 37.0978 64.1081 37.0978 64.1081L48.0092 66.7254L45.5829 76.2827L45.5263 76.4542C45.5263 76.4542 50.738 80.9514 51.2048 81.6235C51.6715 82.2956 49.597 83.1769 48.9935 83.1937Z" fill="#EBEBEB"/>
<path d="M51.984 83.315C51.3517 83.3673 34.5015 79.2369 33.9675 78.6749C33.7594 78.4632 35.3414 72.9971 35.3475 72.9655L45.8537 75.4619L45.8037 75.644C45.8037 75.644 51.4856 80.0985 52.01 80.7793C52.5345 81.46 52.6172 83.2671 51.984 83.315Z" fill="#37474F"/>
<path d="M51.9553 82.6175C49.1691 81.844 37.7936 78.9967 34.9672 78.448C34.9468 78.4516 34.9399 78.4528 34.97 78.4639C37.7278 79.2892 49.1132 82.0458 51.9515 82.6626C52.0055 82.6766 52.0146 82.6352 51.9553 82.6175Z" fill="white"/>
<path d="M46.6919 75.9019C45.6356 75.4198 44.2362 75.2508 43.195 75.8291C43.1542 75.8503 43.1854 75.908 43.2248 75.9058C44.3692 75.8289 45.5186 75.8746 46.6532 76.0421C46.6705 76.0438 46.6879 76.0394 46.7023 76.0295C46.7166 76.0197 46.727 76.0051 46.7316 75.9883C46.7362 75.9715 46.7348 75.9536 46.7275 75.9378C46.7202 75.922 46.7076 75.9093 46.6919 75.9019Z" fill="white"/>
<path d="M47.3693 76.5832C46.313 76.1012 44.9136 75.9321 43.8701 76.5108C43.8297 76.5343 43.8628 76.5894 43.8999 76.5875C45.0451 76.5105 46.1952 76.5561 47.3306 76.7235C47.348 76.7252 47.3653 76.7207 47.3797 76.7109C47.394 76.701 47.4044 76.6864 47.409 76.6696C47.4137 76.6529 47.4122 76.635 47.4049 76.6192C47.3976 76.6034 47.385 76.5906 47.3693 76.5832Z" fill="white"/>
<path d="M48.0488 77.2649C46.9926 76.7828 45.5932 76.6138 44.5497 77.1925C44.5093 77.216 44.5424 77.271 44.5818 77.2688C45.7262 77.1919 46.8755 77.2376 48.0102 77.4052C48.0275 77.4069 48.0449 77.4024 48.0592 77.3925C48.0736 77.3827 48.084 77.3681 48.0886 77.3513C48.0932 77.3345 48.0918 77.3167 48.0845 77.3008C48.0772 77.285 48.0646 77.2723 48.0488 77.2649Z" fill="white"/>
<path d="M52.386 82.7802C52.653 82.9675 52.3399 83.959 52.1054 83.9837C51.8709 84.0085 33.669 79.3798 33.3774 79.239C33.0857 79.0981 33.4758 78.0112 33.8515 78.0436C34.2271 78.0761 52.386 82.7802 52.386 82.7802Z" fill="#FFC727"/>
<path d="M37.3283 75.4614C36.2677 74.5539 34.8563 76.1992 35.9181 77.1135C36.9799 78.0278 38.3904 76.3639 37.3283 75.4614Z" fill="white"/>
<path d="M46.3803 30.4145C46.3803 30.4145 49.4997 37.1869 51.3038 41.413C51.5026 41.8792 51.2407 42.829 51.2407 42.829L40.1555 45.6697C40.1555 45.6697 38.6841 45.1433 38.4975 44.6399C36.23 38.5329 33.3193 30.6537 33.3793 28.365C33.5269 22.771 37.7557 20.8892 37.7557 20.8892L47.452 26.1641C47.452 26.1641 46.5628 30.16 46.3803 30.4145Z" fill="#FFC727"/>
<path opacity="0.3" d="M46.3803 30.4145C46.3803 30.4145 49.4997 37.1869 51.3038 41.413C51.5026 41.8792 51.2407 42.829 51.2407 42.829L40.1555 45.6697C40.1555 45.6697 38.6841 45.1433 38.4975 44.6399C36.23 38.5329 33.3193 30.6537 33.3793 28.365C33.5269 22.771 37.7557 20.8892 37.7557 20.8892L47.452 26.1641C47.452 26.1641 46.5628 30.16 46.3803 30.4145Z" fill="black"/>
<g opacity="0.2">
<path d="M42.9128 37.2503C42.5575 36.3456 42.6683 36.6305 42.3114 35.7167C41.9544 34.8029 41.6369 33.9267 41.2609 33.0514C41.2176 32.9512 41.1816 32.8662 41.0598 32.8525C40.8481 32.8819 40.6426 32.9456 40.4513 33.0411C39.9515 33.2084 39.4562 33.3881 38.9654 33.5804C37.9046 33.9802 36.8651 34.4344 35.851 34.9413C35.7608 34.9876 35.8193 35.1342 35.9145 35.0894C37.4718 34.3298 39.0777 33.6743 40.7216 33.1272C40.8101 33.0976 41.0001 33.0058 41.0896 33.0627C41.1227 33.1253 41.1485 33.1915 41.1664 33.2599L41.397 33.854L41.8579 35.04C42.1652 35.8313 42.0019 35.4338 42.3001 36.2268L42.7265 37.3228C42.8036 37.5223 42.8826 37.7192 42.9594 37.9165C42.9977 38.0151 43.0429 38.1126 43.0745 38.2124C43.1115 38.2905 43.1245 38.3778 43.112 38.4633C43.0995 38.5489 43.062 38.6288 43.0042 38.693C42.7689 38.9833 42.5192 39.2615 42.256 39.5267L41.4205 40.4506C41.2907 40.6303 41.1381 40.7924 40.9666 40.9329C40.7734 41.0464 40.4434 40.9005 40.2496 40.8502L38.4107 40.4047C38.2188 40.3522 38.0357 40.2715 37.8676 40.1651C37.6914 40.0415 36.1 35.9069 35.8905 34.9929C35.8834 34.9521 35.7801 34.9772 35.7883 35.0109C35.9905 35.8699 37.3589 39.868 37.5759 40.2373C37.7598 40.5516 38.1063 40.5916 38.4266 40.6689L39.8054 41.0007C40.0493 41.0563 40.2822 41.1161 40.5211 41.1702C40.6814 41.2287 40.8574 41.2278 41.0171 41.1676C41.1477 41.0789 41.2622 40.9685 41.3556 40.8413C41.5155 40.6587 41.6786 40.4802 41.837 40.2886L42.7708 39.2444C42.9785 39.0136 43.3545 38.7276 43.3334 38.3801C43.3069 38.2184 43.2565 38.0615 43.1838 37.9146C43.0907 37.7038 43.0003 37.4691 42.9128 37.2503Z" fill="black"/>
<path d="M41.1732 33.3994C40.5688 34.2523 39.956 35.0973 39.3001 35.9101C39.2157 36.0163 39.1312 36.1224 39.0438 36.2243C38.9875 36.3069 38.9034 36.3665 38.8068 36.392C38.7102 36.4175 38.6076 36.4074 38.5179 36.3634C38.2724 36.2987 38.0462 36.2237 37.8075 36.1578C37.2679 36.0183 36.7214 35.8659 36.1779 35.7177C36.1384 35.7059 36.1112 35.7646 36.1538 35.7805C36.7474 35.9878 37.3392 36.1978 37.9419 36.4035C38.3491 36.5358 38.8097 36.7992 39.1447 36.4127C39.5159 35.9613 39.8641 35.4915 40.188 35.0051C40.5458 34.4952 40.8868 33.9694 41.2029 33.4223C41.2134 33.4017 41.1859 33.3784 41.1732 33.3994Z" fill="black"/>
<path d="M38.8391 35.7156C38.8181 35.6803 38.7894 35.6503 38.755 35.6279C38.7206 35.6055 38.6816 35.5913 38.6408 35.5865C38.5936 35.5888 38.5477 35.6034 38.5078 35.6289C38.468 35.6544 38.4354 35.6898 38.4134 35.7317C38.3917 35.7683 38.4455 35.808 38.4676 35.7737C38.4857 35.7399 38.5135 35.7122 38.5473 35.6942C38.5629 35.6868 38.5801 35.6837 38.5973 35.6854L38.6269 35.6943C38.643 35.7035 38.6582 35.7142 38.6723 35.7261L38.6941 35.7434C38.7213 35.7723 38.7449 35.8043 38.7647 35.8387C38.7809 35.8688 38.7881 35.903 38.7854 35.9372C38.7826 35.9713 38.7701 36.0039 38.7492 36.0311C38.7387 36.0464 38.7232 36.0577 38.7054 36.063C38.6875 36.0682 38.6684 36.0672 38.6513 36.06C38.6114 36.0412 38.5777 36.0113 38.5542 35.9739C38.5542 35.9739 38.5315 35.9779 38.5361 35.9771C38.5707 36.0413 38.6225 36.1095 38.7044 36.1092C38.744 36.1036 38.7809 36.0863 38.8105 36.0594C38.84 36.0325 38.8608 35.9973 38.8699 35.9584C38.8829 35.9181 38.8869 35.8755 38.8816 35.8336C38.8762 35.7916 38.8617 35.7513 38.8391 35.7156Z" fill="black"/>
</g>
<g opacity="0.2">
<path d="M38.5416 21.7393C36.3594 24.4634 35.9328 28.2261 36.7725 31.5325C36.9377 32.2879 37.2263 33.092 37.4664 33.8202C37.1324 33.0892 36.8529 32.3344 36.6302 31.5621C35.6415 28.2608 36.1116 24.3055 38.5404 21.7324L38.5416 21.7393Z" fill="black"/>
<path d="M40.7988 41.5645C41.3045 42.4743 41.6692 43.4556 41.8805 44.4749C41.3737 43.5656 41.0089 42.5841 40.7988 41.5645Z" fill="black"/>
</g>
<path d="M54.1858 18.1457C54.4149 23.0437 54.6747 28.6247 55.6662 29.5654C58.0391 31.8139 62.2952 33.7462 65.1329 34.8665C66.0566 35.2337 68.5495 28.9803 67.6156 28.4885C66.9103 28.1251 60.4741 25.4442 60.2007 25.0871C59.9802 24.7909 58.7212 19.9611 57.1604 16.4018C55.5682 12.7567 54.0448 15.0984 54.1858 18.1457Z" fill="#AD6359"/>
<path d="M69.0981 35.8178C68.6614 35.7843 68.6406 36.0127 69.2134 36.5421C69.7863 37.0715 72.5074 38.6759 71.869 39.5887C71.2307 40.5014 67.4242 38.1695 66.5357 37.2154C65.6473 36.2613 64.5449 34.4082 64.5449 34.4082C65.3736 34.7007 67.4522 35.2447 69.0981 35.8178Z" fill="#AD6359"/>
<path d="M67.3497 28.3603C71.1402 29.6133 72.6775 30.5285 74.3856 32.7648C74.5814 33.0087 74.6897 33.3112 74.6932 33.624C75.4777 34.6127 75.2455 35.2786 75.2455 35.2786C75.692 36.4225 75.3635 37.0725 75.3635 37.0725C75.3635 37.0725 76.2708 38.241 75.6523 38.9068C74.964 39.655 73.8308 37.8658 72.5968 37.265C69.7793 35.8859 65.3965 34.7134 64.5449 34.3968L67.3497 28.3603Z" fill="#AD6359"/>
<path d="M70.6625 33.7483C71.4915 34.141 72.2924 34.5904 73.0596 35.0934C73.8639 35.6958 74.6225 36.3572 75.3289 37.072C75.3335 37.0749 75.339 37.0763 75.3444 37.0758C75.3499 37.0754 75.355 37.0732 75.3592 37.0696C75.3633 37.066 75.3661 37.0611 75.3672 37.0558C75.3683 37.0504 75.3677 37.0448 75.3654 37.0399C74.1382 35.5221 72.5181 34.3703 70.6815 33.7098C70.6389 33.6939 70.621 33.7251 70.6625 33.7483Z" fill="#263238"/>
<path d="M71.2478 31.9264C72.0301 32.3816 73.3803 33.1915 75.2227 35.2989C75.2227 35.2989 75.2408 35.2957 75.2386 35.2961C74.2568 33.8168 72.883 32.6398 71.2707 31.8966C71.2185 31.866 71.196 31.898 71.2478 31.9264Z" fill="#263238"/>
<path d="M71.5788 30.9538C72.8685 31.779 73.578 32.46 74.6855 33.6215C74.6855 33.6215 74.7037 33.6183 74.6991 33.6191C73.5798 32.1764 73.0095 31.7683 71.6047 30.9141C71.5535 30.8763 71.5289 30.9228 71.5788 30.9538Z" fill="#263238"/>
<path d="M53.9353 24.9158L59.9988 23.5621C59.9988 23.5621 58.5512 18.8989 57.0997 16.1095C55.7045 13.4273 54.4139 14.0657 54.172 16.1312C53.9596 17.9643 53.9353 24.9158 53.9353 24.9158Z" fill="#FFC727"/>
<path opacity="0.1" d="M56.5877 15.2445L56.5617 24.3223L53.9435 24.9079C53.9435 24.9079 53.9629 17.955 54.179 16.1165C54.3952 14.278 55.4048 13.5998 56.5877 15.2445Z" fill="#020100"/>
<path d="M34.5344 23.458C34.5079 23.5071 48.2598 27.9022 48.4788 27.8825C48.633 27.8672 49.8017 26.8404 50.8947 25.2626C51.7189 24.0738 56.4942 19.5134 56.9977 17.8048C57.6224 15.6792 56.3525 13.7384 54.6654 13.5308C45.5813 12.4545 35.7252 21.3291 34.5344 23.458Z" fill="#FFC727"/>
<path d="M55.6872 18.0532C55.0112 17.6566 54.0408 15.4478 54.3984 14.2823C54.4242 14.2028 54.939 13.8667 55.6824 13.2727C56.1317 12.9106 56.6234 12.4966 57.0473 12.0968C57.1331 12.0115 58.9738 15.3648 58.9738 15.3648C58.297 15.7266 57.6671 16.1696 57.0978 16.6843C57.0404 16.7412 56.9886 16.8036 56.9432 16.8706L56.9181 16.9008C56.6493 17.264 56.4127 18.4786 55.6872 18.0532Z" fill="#AD6359"/>
<path d="M58.9738 15.3559C58.3088 15.7131 57.6896 16.1495 57.1295 16.6557C56.7165 16.1193 56.4214 15.5018 56.2636 14.8435C56.1058 14.1852 56.0888 13.501 56.2138 12.8357C56.5014 12.5933 56.7867 12.3372 57.0492 12.0851C57.1353 12.0021 58.9738 15.3559 58.9738 15.3559Z" fill="#263238"/>
<path d="M57.3885 8.4018C56.5387 9.47102 55.7993 13.2393 56.3567 14.3615C57.1644 15.99 59.1757 16.9111 60.7332 15.7786C62.2437 14.6849 63.1197 9.75932 62.4344 8.66895C61.424 7.05958 58.645 6.82106 57.3885 8.4018Z" fill="#AD6359"/>
<path d="M60.1447 11.9587C60.1447 11.9587 60.122 11.9627 60.1199 11.9771C60.0689 12.2202 59.9796 12.5122 59.7231 12.5454C59.7231 12.5454 59.7118 12.5474 59.7255 12.5591C60.0086 12.5843 60.139 12.2196 60.1447 11.9587Z" fill="#263238"/>
<path d="M59.9786 11.6453C59.5799 11.5209 59.3603 12.3251 59.7294 12.4406C60.0986 12.5562 60.3128 11.7483 59.9786 11.6453Z" fill="#263238"/>
<path d="M61.5562 12.2902C61.5562 12.2902 61.5712 12.3086 61.5614 12.3197C61.4854 12.5672 61.4413 12.8629 61.6446 13.0076L61.6466 13.0189C61.3692 12.906 61.4319 12.5157 61.5562 12.2902Z" fill="#263238"/>
<path d="M61.8383 12.0936C62.2477 12.1717 62.0613 12.9911 61.6822 12.9124C61.3031 12.8337 61.4943 12.0275 61.8383 12.0936Z" fill="#263238"/>
<path d="M59.7691 11.2033C59.8728 11.2514 59.9794 11.2929 60.0883 11.3277C60.1953 11.3863 60.3183 11.4091 60.4392 11.3926C60.4761 11.38 60.5078 11.3555 60.5292 11.3229C60.5506 11.2903 60.5606 11.2515 60.5575 11.2126C60.5392 11.1365 60.5012 11.0665 60.4472 11.0098C60.3933 10.9531 60.3254 10.9116 60.2503 10.8895C60.1017 10.8209 59.9326 10.8112 59.7772 10.8624C59.744 10.8763 59.7155 10.8996 59.6951 10.9294C59.6748 10.9592 59.6635 10.9942 59.6627 11.0302C59.6618 11.0663 59.6714 11.1018 59.6903 11.1325C59.7092 11.1632 59.7366 11.1878 59.7691 11.2033Z" fill="#263238"/>
<path d="M62.2578 11.7701C62.1547 11.7154 62.0549 11.6547 61.9589 11.5883C61.8447 11.5435 61.7483 11.4626 61.6844 11.3578C61.6718 11.3212 61.6716 11.2814 61.6838 11.2446C61.6959 11.2078 61.7198 11.176 61.7517 11.154C61.8215 11.1191 61.8995 11.1039 61.9773 11.1101C62.0552 11.1162 62.1298 11.1435 62.1933 11.189C62.3372 11.2578 62.4496 11.3787 62.5078 11.5272C62.5226 11.5619 62.5266 11.6003 62.5191 11.6373C62.5117 11.6743 62.4932 11.7082 62.4661 11.7345C62.4391 11.7608 62.4047 11.7782 62.3675 11.7846C62.3303 11.7909 62.292 11.7859 62.2578 11.7701Z" fill="#263238"/>
<path d="M59.744 13.4823C59.7824 13.5985 59.8443 13.7056 59.926 13.7969C60.0077 13.8881 60.1073 13.9615 60.2186 14.0125C60.3142 14.0593 60.4162 14.092 60.5212 14.1093L60.5812 14.1175L60.6363 14.1242C60.6502 14.1252 60.6641 14.1217 60.6759 14.1142C60.6876 14.1066 60.6966 14.0954 60.7015 14.0823C60.7015 14.0823 60.6987 14.0664 60.6971 14.0574L60.6935 14.0369C60.7511 13.8442 60.8115 13.5479 60.8115 13.5479C60.8726 13.6028 61.1872 13.8614 61.2091 13.7592C61.4226 12.886 61.547 11.9934 61.5802 11.0951C61.5809 11.0887 61.5791 11.0823 61.5752 11.0773C61.5712 11.0723 61.5655 11.0691 61.5591 11.0683C61.5528 11.0676 61.5464 11.0694 61.5414 11.0733C61.5364 11.0773 61.5331 11.0831 61.5324 11.0894C61.3314 11.8927 61.2744 12.7292 61.084 13.5399C60.9727 13.4462 60.8488 13.3687 60.7158 13.3095C60.6886 13.3143 60.6085 13.8856 60.5762 13.9685C60.4147 13.9412 60.2604 13.8818 60.1223 13.7938C59.9842 13.7058 59.8651 13.591 59.7722 13.4562C59.7608 13.4582 59.7358 13.4626 59.744 13.4823Z" fill="#263238"/>
<path d="M60.4254 13.9804C60.2826 14.0892 60.1145 14.1598 59.9368 14.1855C59.8398 14.196 59.7419 14.1755 59.6573 14.1268C59.4725 14.0211 59.5172 13.8353 59.5948 13.6905C59.6378 13.6127 59.6895 13.54 59.7488 13.4739C59.9145 13.7106 60.1516 13.8881 60.4254 13.9804Z" fill="#263238"/>
<path d="M59.9339 14.1841C59.8368 14.1946 59.7389 14.1741 59.6543 14.1254C59.4695 14.0197 59.5142 13.8339 59.5919 13.6892C59.6963 13.721 59.7869 13.7872 59.849 13.8771C59.9111 13.9669 59.941 14.0751 59.9339 14.1841Z" fill="#FF9BBC"/>
<path d="M56.4029 11.307C56.8667 11.6284 57.4891 11.1587 57.7336 10.884C57.9781 10.6093 58.3692 8.74011 58.7891 8.35739C59.209 7.97468 59.8388 7.88064 60.2195 8.15573C60.6002 8.43082 60.9535 9.17668 61.2768 9.25813C61.6002 9.33957 61.9082 8.67912 62.1265 8.76258C62.6057 8.93143 62.7007 10.3009 62.6022 10.8474C62.6022 10.8474 63.4022 8.59976 61.1755 7.58535C59.0037 6.60346 57.7447 7.88961 57.3149 8.49649C56.4902 9.65498 56.4029 11.307 56.4029 11.307Z" fill="#263238"/>
<path d="M57.5656 11.6302C57.5656 11.6302 57.0839 10.2185 56.4753 10.3533C55.8667 10.4881 55.9713 12.3664 56.5269 12.7841C56.5946 12.8423 56.6734 12.8861 56.7584 12.9131C56.8435 12.94 56.9332 12.9495 57.022 12.9409C57.1108 12.9324 57.197 12.9059 57.2753 12.8632C57.3537 12.8204 57.4226 12.7623 57.4779 12.6923L57.5656 11.6302Z" fill="#AD6359"/>
<path d="M56.5259 10.8889C56.5259 10.8889 56.5077 10.8921 56.5169 10.9045C56.9009 11.2118 57.0118 11.684 57.0496 12.1528C57.0361 12.1024 57.0119 12.0556 56.9788 12.0153C56.9456 11.9751 56.9042 11.9425 56.8574 11.9196C56.8105 11.8968 56.7593 11.8842 56.7072 11.8828C56.6551 11.8815 56.6033 11.8913 56.5554 11.9116C56.5417 11.914 56.548 11.9363 56.5601 11.9389C56.6441 11.9373 56.7266 11.9616 56.7963 12.0084C56.8661 12.0552 56.9198 12.1223 56.9502 12.2006C56.9988 12.3326 57.033 12.4695 57.0523 12.6089C57.0602 12.6543 57.1376 12.6548 57.134 12.5945C57.309 12.03 57.106 11.1126 56.5259 10.8889Z" fill="#263238"/>
<path d="M55.416 10.0479C55.416 10.0479 55.8871 12.3067 56.0035 12.5837C56.12 12.8606 56.7285 13.3931 56.7285 13.3931C56.7285 13.3931 57.3575 15.8585 57.4469 15.9411C57.5364 16.0238 58.0331 16.2528 58.0694 16.1527C58.1057 16.0527 57.4599 13.3445 57.4599 13.3445L58.6494 10.394L58.1182 10.0353L57.022 12.9436C57.022 12.9436 56.5534 12.3678 56.4939 12.2425C56.4345 12.1171 55.9462 9.97361 55.9462 9.97361L55.416 10.0479Z" fill="#263238"/>
<path d="M55.0883 8.59908L54.5667 9.24314L54.9896 9.66536L54.8243 10.4319C54.8243 10.4319 55.8045 10.9742 56.1443 11.0293C56.4841 11.0845 58.9317 10.5546 58.9317 10.5546L55.0883 8.59908Z" fill="#37474F"/>
<path d="M55.6001 9.08289L55.2882 9.28041L55.6712 9.51529L55.3848 10.0853L56.2942 10.4644L57.8051 10.3212L55.6001 9.08289Z" fill="#263238"/>
<path d="M58.9512 10.7901C59.9172 10.7307 62.0962 10.5921 62.1161 10.5723C62.136 10.5524 63.1235 10.789 63.1727 10.7757C63.2219 10.7624 64.3735 9.83922 64.3735 9.83922C64.3735 9.83922 63.5088 7.7922 62.2932 7.02898C61.0776 6.26575 58.253 6.06098 57.6127 6.29502C56.9723 6.52907 54.3884 8.37772 54.3959 8.46069C54.4034 8.54367 58.2748 10.8455 58.9512 10.7901Z" fill="#FFC727"/>
<path opacity="0.1" d="M56.1317 7.39501L56.9614 6.86551C56.9614 6.86551 58.1127 6.96801 58.3148 7.01219C58.637 7.16849 58.9435 7.35547 59.2299 7.57055C58.8373 7.42368 58.4358 7.3017 58.0279 7.20533C57.8562 7.21436 56.1317 7.39501 56.1317 7.39501Z" fill="#020100"/>
<path opacity="0.1" d="M58.5957 6.46289C58.5957 6.46289 61.489 7.16607 61.7589 7.28967C62.5376 7.64481 64.0504 10.1027 64.0504 10.1027C64.0504 10.1027 61.9822 7.65557 61.6274 7.52814C61.2726 7.4007 58.5957 6.46289 58.5957 6.46289Z" fill="#020100"/>
<path opacity="0.1" d="M55.3086 8.25C55.3086 8.25 57.9068 8.17838 58.1597 8.21833C58.8997 8.3391 60.7353 10.0613 60.7353 10.0613C60.7353 10.0613 58.4397 8.46659 58.1108 8.447C57.7819 8.42741 55.3086 8.25 55.3086 8.25Z" fill="#020100"/>
<path opacity="0.1" d="M59.8848 7.92578C59.8848 7.92578 61.6601 8.70324 61.833 8.83448C62.2757 9.16896 63.1456 10.7116 63.1456 10.7116C63.1456 10.7116 61.7246 9.28433 61.5194 9.10255C61.3143 8.92077 59.8848 7.92578 59.8848 7.92578Z" fill="#020100"/>
<path d="M59.4049 10.5087C59.4452 10.1528 59.4535 9.79399 59.43 9.43658C59.1626 9.29035 58.8757 9.18298 58.5779 9.1177C58.5145 9.14288 58.7732 9.92405 58.8869 10.1851C59.0292 10.3353 59.2075 10.4467 59.4049 10.5087Z" fill="#263238"/>
<path d="M58.2468 9.9005C58.328 9.86986 57.8379 8.90448 57.7405 8.85601C57.4687 8.73508 57.035 8.65191 57.0332 8.70842C57.2283 9.05709 57.4532 9.38821 57.7055 9.69805C57.8778 9.78552 58.0593 9.85342 58.2468 9.9005Z" fill="#263238"/>
<path d="M56.4793 8.69803C56.2472 8.64116 56.0067 8.627 55.7695 8.65625C56.128 8.95633 56.514 9.22183 56.9224 9.4492C56.8336 9.16845 56.6821 8.91158 56.4793 8.69803Z" fill="#263238"/>
<path d="M39.1739 20.4422C39.4737 20.3896 50.6279 21.1872 54.052 18.1609C56.3022 16.1718 51.2764 13.6556 51.2764 13.6556L52.0021 13.2942C52.0021 13.2942 54.5524 14.0177 55.4298 16.1374C57.3892 20.8748 42.9604 22.2203 37.7401 21.5459L39.1739 20.4422Z" fill="#263238"/>
<path d="M37.6481 21.8518C38.5464 21.9003 40.4248 18.9929 43.8253 17.1673C47.2258 15.3417 52.1909 13.6258 52.1799 13.2694C52.1689 12.9131 48.8033 11.0518 47.9035 10.8747C47.0038 10.6977 43.8792 11.9598 43.8792 11.9598C43.8792 11.9598 42.3088 11.3103 41.5897 11.5488C40.8705 11.7873 34.6207 15.1498 34.4851 15.3914C34.3495 15.6329 32.9509 17.845 33.0073 18.3268C33.0637 18.8087 34.0053 21.6547 37.6481 21.8518Z" fill="#37474F"/>
<path d="M51.2107 17.5829C50.9184 21.4039 51.4149 30.3503 52.8155 32.1956C54.4229 34.3114 61.2855 37.4608 63.565 38.1756C64.5124 38.4777 66.7915 31.9668 66.4225 30.9708C66.2041 30.3793 57.9311 27.7324 57.8274 27.3549C57.7237 26.9774 55.8838 22.6007 54.3982 18.108C53.17 14.4154 51.4477 14.4482 51.2107 17.5829Z" fill="#AD6359"/>
<path d="M64.9899 30.5422C64.9899 30.5422 67.9795 30.9803 69.9209 31.3423C71.004 31.5504 72.8311 32.0753 73.5589 32.5939C74.6453 33.3681 78.697 37.3124 77.7613 38.3054C76.9181 39.2119 73.8665 35.3895 73.8665 35.3895C73.8665 35.3895 77.2862 38.9741 76.0593 39.8823C74.8324 40.7905 71.971 36.0099 71.971 36.0099C71.971 36.0099 75.4009 39.773 73.9962 40.5087C72.9233 41.0668 70.083 36.8866 70.083 36.8866C70.083 36.8866 73.0065 40.139 71.933 40.7604C70.7542 41.4354 67.8926 37.7484 67.8926 37.7484C64.918 38.8647 63.0509 38.1783 61.7669 37.5324C61.485 37.3805 64.9899 30.5422 64.9899 30.5422Z" fill="#AD6359"/>
<path d="M72.767 34.0854C73.1806 34.4811 73.6122 34.8995 73.9871 35.3418C74.3621 35.7842 74.7303 36.2418 75.0665 36.7167C75.5188 37.329 75.899 37.9914 76.1994 38.6909C75.5743 37.4893 74.2416 35.8849 73.8621 35.4434C73.4826 35.0018 73.1276 34.5396 72.7481 34.098C72.7393 34.0879 72.7559 34.0756 72.767 34.0854Z" fill="#263238"/>
<path d="M71.1448 35.4259C71.6544 35.9688 72.1809 36.4875 72.6661 37.0511C73.1513 37.6146 73.5679 38.1878 74.0025 38.7836C74.0363 38.8291 74.0109 38.8313 73.9662 38.7899C73.4976 38.2141 73.0221 37.7192 72.5498 37.1487C72.0774 36.5783 71.6228 35.9884 71.1309 35.4401L71.1448 35.4259Z" fill="#263238"/>
<path d="M69.5475 36.3273C70.3494 37.1415 71.0657 38.0359 71.685 38.9964C71.7165 39.0424 71.6695 39.0412 71.6351 39.0051C70.9412 38.1059 70.4043 37.3946 69.5221 36.3692C69.5043 36.3349 69.5303 36.3092 69.5475 36.3273Z" fill="#263238"/>
<path d="M77.3508 36.5973C76.4451 35.2318 75.3166 34.0279 74.0124 33.036C73.8037 32.8663 73.582 32.7134 73.3492 32.5786C71.1042 31.6868 68.5882 31.2921 66.2229 30.7961C65.2093 30.4368 64.1993 30.0676 63.1931 29.6883C62.1912 29.3161 61.1894 28.9439 60.1819 28.5399C59.3808 28.191 58.5383 27.9126 57.8024 27.4282C57.6798 27.2577 57.585 27.0688 57.5216 26.8686C57.1374 25.866 56.7869 24.855 56.4473 23.8398C56.9268 24.9991 57.2914 26.237 57.8842 27.3342C58.6123 27.7872 59.4547 28.0516 60.2469 28.3763C62.217 29.129 64.333 29.8865 66.2638 30.5618C67.3386 30.7714 68.4089 30.9997 69.4746 31.2467C70.8586 31.6081 72.3261 31.8448 73.5972 32.5375C75.1085 33.6248 76.3851 35.0056 77.3508 36.5973Z" fill="#263238"/>
<path d="M51.3506 24.8609C51.6363 27.0774 51.8641 29.3508 52.5827 31.4726C52.8129 32.1979 53.3635 32.6938 53.9571 33.1282C55.1819 33.9888 56.4647 34.7637 57.7964 35.4473C59.1166 36.1524 60.4626 36.8319 61.7881 37.5407C60.5678 36.9774 58.8903 36.2108 57.7162 35.6042C56.3606 34.9414 55.0576 34.1757 53.8188 33.314C53.203 32.86 52.6143 32.2936 52.3873 31.5467C51.6771 29.393 51.5103 27.1065 51.3506 24.8609Z" fill="#263238"/>
<path d="M50.894 25.2635L56.9293 23.7883C56.9293 23.7883 55.389 19.1577 53.8804 16.39C52.443 13.734 51.1545 14.3978 50.9532 16.4679C50.7731 18.3117 50.894 25.2635 50.894 25.2635Z" fill="#FFC727"/>
<path d="M54.8281 18.1953C55.6742 20.0015 56.3764 21.8717 56.9282 23.7885C56.081 21.9827 55.3788 20.1124 54.8281 18.1953Z" fill="#263238"/>
<path d="M50.8945 25.2637C50.7907 24.151 50.7498 23.0366 50.7252 21.9216C50.7006 20.8067 50.7614 19.6979 50.5564 18.5959C50.9434 19.6543 50.9432 20.8016 50.9561 21.9163C50.9689 23.0309 50.9658 24.1483 50.8945 25.2637Z" fill="#263238"/>
<path d="M50.3906 19.3809C50.6467 19.6504 50.7995 20.0017 50.8222 20.3729C50.6501 20.0552 50.5057 19.7233 50.3906 19.3809Z" fill="#263238"/>
</g>
<defs>
<clipPath id="clip0_1026_9055">
<rect width="100" height="100" fill="white"/>
</clipPath>
</defs>
</svg>
