<svg width="17" height="17" viewBox="0 0 17 17" fill="none" xmlns="http://www.w3.org/2000/svg">
<rect x="0.835571" y="0.43573" width="16.1285" height="16.1285" rx="8.06424" fill="#61C0D1" fill-opacity="0.2"/>
<g clip-path="url(#clip0_765_601)">
<path d="M10.7898 6.35004C10.7898 5.95753 10.679 5.57384 10.4713 5.24748C10.2636 4.92112 9.96844 4.66675 9.62308 4.51654C9.27771 4.36634 8.89769 4.32704 8.53105 4.40361C8.16442 4.48019 7.82764 4.6692 7.56331 4.94674C7.29898 5.22429 7.11897 5.5779 7.04604 5.96287C6.97312 6.34784 7.01055 6.74687 7.1536 7.1095C7.29665 7.47213 7.53891 7.78207 7.84972 8.00014C8.16054 8.2182 8.52597 8.3346 8.89978 8.3346C9.4009 8.33405 9.88134 8.12479 10.2357 7.75273C10.59 7.38067 10.7893 6.87621 10.7898 6.35004ZM8.89978 7.34232C8.71287 7.34232 8.53016 7.28412 8.37475 7.17509C8.21934 7.06606 8.09822 6.91108 8.02669 6.72977C7.95516 6.54845 7.93645 6.34894 7.97291 6.15645C8.00938 5.96397 8.09938 5.78716 8.23155 5.64839C8.36371 5.50962 8.5321 5.41511 8.71542 5.37683C8.89874 5.33854 9.08875 5.35819 9.26143 5.43329C9.43411 5.5084 9.5817 5.63558 9.68555 5.79876C9.78939 5.96194 9.84481 6.15378 9.84481 6.35004C9.84481 6.61321 9.74525 6.8656 9.56802 7.05169C9.39079 7.23777 9.15042 7.34232 8.89978 7.34232ZM11.2624 8.3346C10.8885 8.3346 10.5231 8.45099 10.2123 8.66906C9.90148 8.88712 9.65922 9.19707 9.51617 9.5597C9.37312 9.92233 9.33569 10.3214 9.40861 10.7063C9.48154 11.0913 9.66155 11.4449 9.92588 11.7225C10.1902 12 10.527 12.189 10.8936 12.2656C11.2603 12.3422 11.6403 12.3029 11.9856 12.1526C12.331 12.0024 12.6262 11.7481 12.8339 11.4217C13.0416 11.0954 13.1524 10.7117 13.1524 10.3192C13.1519 9.79299 12.9526 9.28852 12.5982 8.91647C12.2439 8.54441 11.7635 8.33514 11.2624 8.3346ZM11.2624 11.3114C11.0754 11.3114 10.8927 11.2532 10.7373 11.1442C10.5819 11.0352 10.4608 10.8802 10.3893 10.6989C10.3177 10.5176 10.299 10.3181 10.3355 10.1256C10.3719 9.93309 10.462 9.75628 10.5941 9.61751C10.7263 9.47874 10.8947 9.38423 11.078 9.34594C11.2613 9.30766 11.4513 9.32731 11.624 9.40241C11.7967 9.47751 11.9443 9.6047 12.0481 9.76788C12.152 9.93105 12.2074 10.1229 12.2074 10.3192C12.2074 10.5823 12.1078 10.8347 11.9306 11.0208C11.7534 11.2069 11.513 11.3114 11.2624 11.3114ZM6.53721 8.3346C6.1634 8.3346 5.79797 8.45099 5.48715 8.66906C5.17634 8.88712 4.93408 9.19707 4.79103 9.5597C4.64797 9.92233 4.61055 10.3214 4.68347 10.7063C4.7564 11.0913 4.93641 11.4449 5.20074 11.7225C5.46507 12 5.80185 12.189 6.16848 12.2656C6.53512 12.3422 6.91514 12.3029 7.26051 12.1526C7.60587 12.0024 7.90106 11.7481 8.10874 11.4217C8.31642 11.0954 8.42727 10.7117 8.42727 10.3192C8.42675 9.79299 8.22745 9.28852 7.87311 8.91647C7.51877 8.54441 7.03833 8.33514 6.53721 8.3346ZM6.53721 11.3114C6.3503 11.3114 6.16759 11.2532 6.01218 11.1442C5.85677 11.0352 5.73565 10.8802 5.66412 10.6989C5.59259 10.5176 5.57388 10.3181 5.61034 10.1256C5.64681 9.93309 5.73681 9.75628 5.86898 9.61751C6.00114 9.47874 6.16953 9.38423 6.35285 9.34594C6.53616 9.30766 6.72618 9.32731 6.89886 9.40241C7.07154 9.47751 7.21913 9.6047 7.32298 9.76788C7.42682 9.93105 7.48224 10.1229 7.48224 10.3192C7.48224 10.5823 7.38268 10.8347 7.20545 11.0208C7.02822 11.2069 6.78785 11.3114 6.53721 11.3114Z" fill="#61C0D1"/>
</g>
<defs>
<clipPath id="clip0_765_601">
<rect width="10.0803" height="10.5843" fill="white" transform="translate(3.85968 3.20782)"/>
</clipPath>
</defs>
</svg>
