<svg width="18" height="17" viewBox="0 0 18 17" fill="none" xmlns="http://www.w3.org/2000/svg">
<rect x="0.835571" width="17" height="17" rx="8.5" fill="#A073C3" fill-opacity="0.2"/>
<path d="M9.33557 11.6105V9.69637L7.89995 8.26075L10.2927 6.34659L11.2497 7.78221H12.6854M4.55017 11.132C4.55017 11.5127 4.70142 11.8779 4.97065 12.1471C5.23989 12.4164 5.60504 12.5676 5.98579 12.5676C6.36654 12.5676 6.7317 12.4164 7.00093 12.1471C7.27016 11.8779 7.42141 11.5127 7.42141 11.132C7.42141 10.7512 7.27016 10.3861 7.00093 10.1169C6.7317 9.84763 6.36654 9.69637 5.98579 9.69637C5.60504 9.69637 5.23989 9.84763 4.97065 10.1169C4.70142 10.3861 4.55017 10.7512 4.55017 11.132ZM11.2497 11.132C11.2497 11.5127 11.401 11.8779 11.6702 12.1471C11.9394 12.4164 12.3046 12.5676 12.6854 12.5676C13.0661 12.5676 13.4313 12.4164 13.7005 12.1471C13.9697 11.8779 14.121 11.5127 14.121 11.132C14.121 10.7512 13.9697 10.3861 13.7005 10.1169C13.4313 9.84763 13.0661 9.69637 12.6854 9.69637C12.3046 9.69637 11.9394 9.84763 11.6702 10.1169C11.401 10.3861 11.2497 10.7512 11.2497 11.132ZM11.2497 4.91097C11.2497 5.03789 11.3001 5.15961 11.3899 5.24935C11.4796 5.3391 11.6014 5.38951 11.7283 5.38951C11.8552 5.38951 11.9769 5.3391 12.0667 5.24935C12.1564 5.15961 12.2068 5.03789 12.2068 4.91097C12.2068 4.78406 12.1564 4.66234 12.0667 4.5726C11.9769 4.48285 11.8552 4.43243 11.7283 4.43243C11.6014 4.43243 11.4796 4.48285 11.3899 4.5726C11.3001 4.66234 11.2497 4.78406 11.2497 4.91097Z" stroke="#A073C3" stroke-width="1.0625" stroke-linecap="round" stroke-linejoin="round"/>
</svg>
