<svg width="18" height="17" viewBox="0 0 18 17" fill="none" xmlns="http://www.w3.org/2000/svg">
<rect x="0.835571" width="17" height="17" rx="8.5" fill="#64D3C3" fill-opacity="0.2"/>
<path d="M7.50539 7.24082L8.93339 6.23342H10.6923L10.1423 4.72231H8.83265V3.7149H10.8475L11.3975 5.22601H13.366V6.73712H11.9475L12.6809 8.75293C13.2374 8.77063 13.7679 8.9925 14.1713 9.37626C14.5746 9.76002 14.8227 10.2788 14.868 10.8337C14.9134 11.3886 14.753 11.9408 14.4173 12.385C14.0817 12.8292 13.5943 13.1343 13.0481 13.2422C12.5018 13.35 11.9351 13.2531 11.4557 12.9698C10.9764 12.6866 10.6181 12.2368 10.4492 11.7063C10.2802 11.1759 10.3124 10.6017 10.5396 10.0934C10.7668 9.58517 11.1731 9.17828 11.6811 8.95039L11.0585 7.24082H10.5815L9.78465 10.1976L8.31132 10.736C8.36449 11.1602 8.29659 11.5909 8.11546 11.9782C7.93433 12.3655 7.64735 12.6936 7.28766 12.9248C6.92797 13.1559 6.51023 13.2806 6.08269 13.2845C5.65515 13.2883 5.23524 13.1712 4.87144 12.9466C4.50764 12.7219 4.21479 12.399 4.0267 12.015C3.83861 11.6311 3.76296 11.2017 3.80848 10.7766C3.85399 10.3515 4.01882 9.9479 4.28393 9.61245C4.54904 9.27701 4.90362 9.02339 5.30673 8.88088V8.24823H4.29933V7.24082H7.50539ZM6.06229 12.2778C6.39626 12.2778 6.71656 12.1452 6.95271 11.909C7.18887 11.6729 7.32154 11.3526 7.32154 11.0186C7.32154 10.6846 7.18887 10.3643 6.95271 10.1282C6.71656 9.892 6.39626 9.75933 6.06229 9.75933C5.72831 9.75933 5.40801 9.892 5.17186 10.1282C4.9357 10.3643 4.80303 10.6846 4.80303 11.0186C4.80303 11.3526 4.9357 11.6729 5.17186 11.909C5.40801 12.1452 5.72831 12.2778 6.06229 12.2778ZM12.6104 12.2778C12.9444 12.2778 13.2647 12.1452 13.5008 11.909C13.737 11.6729 13.8697 11.3526 13.8697 11.0186C13.8697 10.6846 13.737 10.3643 13.5008 10.1282C13.2647 9.892 12.9444 9.75933 12.6104 9.75933C12.2764 9.75933 11.9561 9.892 11.72 10.1282C11.4838 10.3643 11.3512 10.6846 11.3512 11.0186C11.3512 11.3526 11.4838 11.6729 11.72 11.909C11.9561 12.1452 12.2764 12.2778 12.6104 12.2778Z" fill="#64D3C3"/>
</svg>
