<svg width="18" height="17" viewBox="0 0 18 17" fill="none" xmlns="http://www.w3.org/2000/svg">
<rect x="0.835571" width="17" height="17" rx="8.5" fill="#FFCC14" fill-opacity="0.2"/>
<path d="M6.94098 6.63905L8.64364 5.4023C8.83478 5.26243 9.06726 5.19061 9.30398 5.1983C9.59272 5.2055 9.87204 5.30249 10.1031 5.47577C10.3342 5.64905 10.5055 5.89002 10.5933 6.16518C10.6921 6.4749 10.7825 6.68421 10.8643 6.79258C11.1114 7.12248 11.432 7.39023 11.8007 7.57457C12.1694 7.75892 12.576 7.85478 12.9882 7.85455V8.91705C12.4397 8.91757 11.8978 8.79649 11.4017 8.56252C10.9056 8.32856 10.4675 7.98752 10.1189 7.56396L9.74811 9.66558L10.843 10.5841L12.024 13.829L11.0252 14.1924L9.94202 11.2152L8.14108 9.70383C7.99319 9.58455 7.87999 9.42779 7.81328 9.24989C7.74656 9.07199 7.72877 8.87945 7.76176 8.69233L8.03217 7.15968L7.67252 7.42105L6.54255 8.97655L5.68298 8.3518L6.93195 6.63268L6.94098 6.63905ZM10.0663 4.93268C9.78453 4.93268 9.51428 4.82074 9.31503 4.62148C9.11577 4.42222 9.00383 4.15197 9.00383 3.87018C9.00383 3.58839 9.11577 3.31813 9.31503 3.11888C9.51428 2.91962 9.78453 2.80768 10.0663 2.80768C10.3481 2.80768 10.6184 2.91962 10.8176 3.11888C11.0169 3.31813 11.1288 3.58839 11.1288 3.87018C11.1288 4.15197 11.0169 4.42222 10.8176 4.62148C10.6184 4.82074 10.3481 4.93268 10.0663 4.93268ZM8.48851 11.9351L6.78108 13.9698L5.9672 13.2871L7.54767 11.4033L7.94398 10.2452L8.89545 11.0421L8.48851 11.9351Z" fill="#FFCC14"/>
</svg>
