<svg width="16" height="17" viewBox="0 0 16 17" fill="none" xmlns="http://www.w3.org/2000/svg">
<path d="M7.15413 2.74566C6.9541 2.54569 6.68283 2.43335 6.39999 2.43335C6.11715 2.43335 5.84589 2.54569 5.64586 2.74566L0.845859 7.54566C0.64589 7.74569 0.533553 8.01695 0.533553 8.29979C0.533553 8.58263 0.64589 8.85389 0.845859 9.05392L5.64586 13.8539C5.84703 14.0482 6.11648 14.1557 6.39615 14.1533C6.67583 14.1509 6.94336 14.0387 7.14113 13.8409C7.3389 13.6432 7.45108 13.3756 7.45351 13.096C7.45594 12.8163 7.34843 12.5468 7.15413 12.3457L4.26666 9.36646H14.4C14.6829 9.36646 14.9542 9.25407 15.1542 9.05404C15.3543 8.854 15.4667 8.58269 15.4667 8.29979C15.4667 8.01689 15.3543 7.74558 15.1542 7.54554C14.9542 7.3455 14.6829 7.23312 14.4 7.23312H4.26666L7.15413 4.25392C7.35409 4.05389 7.46643 3.78263 7.46643 3.49979C7.46643 3.21695 7.35409 2.94568 7.15413 2.74566Z" fill="#28A1B7"/>
</svg>
