<svg width="100" height="100" viewBox="0 0 100 100" fill="none" xmlns="http://www.w3.org/2000/svg">
<rect width="100" height="100" fill="white"/>
<path d="M33.9017 22.222C35.252 27.3741 37.0113 30.738 38.1912 31.9021C41.0176 34.6918 47.1057 35.3106 50.5299 36.7317C51.6442 37.1958 54.725 30.1271 53.5844 29.5083C52.7428 29.0495 42.9683 27.8119 42.1372 27.5576C41.7098 27.4265 38.4665 23.2026 36.6311 20.8271C33.6736 17.0201 33.1623 19.4087 33.9017 22.222Z" fill="#F7A9A0"/>
<path d="M55.8812 37.7218C55.3568 37.7087 55.3384 37.984 56.0699 38.5897C56.8015 39.1953 60.2073 40.9494 59.4915 42.0899C58.7758 43.2305 54.0065 40.6715 52.866 39.5755C51.7254 38.4795 50.2598 36.3086 50.2598 36.3086C51.2902 36.6206 53.8623 37.1371 55.8812 37.7218Z" fill="#F7A9A0"/>
<path d="M52.7624 29.2852C57.8384 30.0717 59.8573 31.0654 62.0807 33.6611C62.3345 33.9416 62.4876 34.2986 62.5159 34.6758C63.5332 35.819 63.3025 36.6449 63.3025 36.6449C63.9212 38.0004 63.5647 38.8106 63.5647 38.8106C63.5647 38.8106 64.7445 40.1661 64.0418 41.0156C63.2553 41.97 61.7555 39.8777 60.227 39.2327C56.7215 37.7513 51.3124 36.6291 50.2637 36.304L52.7624 29.2852Z" fill="#F7A9A0"/>
<path d="M57.6339 35.1055C58.6654 35.5254 59.6668 36.0159 60.6307 36.5738C61.647 37.2486 62.611 37.9988 63.5148 38.8181C63.521 38.8216 63.5281 38.823 63.5351 38.822C63.5421 38.8209 63.5486 38.8176 63.5534 38.8124C63.5583 38.8073 63.5612 38.8006 63.5619 38.7936C63.5625 38.7865 63.5607 38.7795 63.5568 38.7736C61.9663 37.0186 59.925 35.7336 57.6549 35.0583C57.6024 35.0426 57.5815 35.0819 57.6339 35.1055Z" fill="#263238"/>
<path d="M58.2167 32.8591C59.1894 33.3572 60.8884 34.2461 63.2665 36.674C63.2665 36.674 63.2901 36.674 63.2822 36.674C61.9916 34.947 60.2458 33.6134 58.2403 32.8224C58.1774 32.7856 58.1538 32.825 58.2167 32.8591Z" fill="#263238"/>
<path d="M58.5576 31.6585C60.1753 32.5709 61.0799 33.3497 62.5036 34.6816C62.5036 34.6816 62.5245 34.6816 62.5167 34.6685C61.0615 32.9852 60.3431 32.5395 58.5838 31.5982C58.5209 31.5668 58.4946 31.6218 58.5576 31.6585Z" fill="#263238"/>
<path d="M39.6609 24.5575L34.9861 28.9387C34.9861 28.9387 33.0983 22.1427 33.1114 19.9927C33.1114 17.5674 34.3594 18.1023 35.9955 19.7305C37.6316 21.3587 39.6609 24.5575 39.6609 24.5575Z" fill="#FFC727"/>
<path opacity="0.1" d="M39.6609 24.5575L34.9861 28.9387C34.9861 28.9387 33.0983 22.1427 33.1114 19.9927C33.1114 17.5674 34.3594 18.1023 35.9955 19.7305C37.6316 21.3587 39.6609 24.5575 39.6609 24.5575Z" fill="black"/>
<path d="M38.7022 23.8661C38.031 24.3433 36.2193 26.058 35.9151 26.3386C35.7552 26.488 35.1469 27.1042 34.987 27.251C34.966 27.2694 34.987 27.2982 35.0184 27.2799C35.3252 27.0019 35.6608 26.7555 35.9676 26.4749C36.2743 26.1944 38.1831 24.519 38.7232 23.8897C38.7363 23.8766 38.7179 23.8556 38.7022 23.8661Z" fill="#263238"/>
<path d="M64.4349 77.1325C63.8004 77.3396 45.5308 76.6081 44.8465 76.165C44.7626 76.1152 44.4375 72.6018 44.4375 72.6018L46.5508 59.1016L58.546 59.2615L56.2309 70.7979C56.2309 70.7979 58.8738 72.0145 61.0526 73.0764C62.395 73.7266 63.5618 74.3218 63.8292 74.5394C64.5319 75.1005 65.072 76.928 64.4349 77.1325Z" fill="#F7A9A0"/>
<path d="M64.4382 77.1324C63.8036 77.3395 45.5289 76.608 44.8472 76.1675C44.7659 76.1151 44.4355 72.6017 44.4355 72.6017L45.0884 68.4434L56.596 68.9677L56.2237 70.7874C56.2237 70.7874 58.864 72.0039 61.0454 73.0632C62.3878 73.7134 63.5546 74.3086 63.822 74.5262C64.5299 75.103 65.07 76.9305 64.4382 77.1324Z" fill="#EBEBEB"/>
<path d="M64.4258 77.1505C63.7782 77.3524 45.3881 76.925 44.6985 76.4635C44.4363 76.2931 44.3393 73.6083 44.3184 70.3623V70.2627L56.1878 70.4069V70.6062C56.1878 70.6062 63.1542 73.9203 63.8595 74.5076C64.5648 75.0949 65.0735 76.9564 64.4258 77.1505Z" fill="#C7C7C7"/>
<path d="M63.3771 77.2022C59.3524 77.2442 45.2858 76.8666 44.6985 76.4655C44.4363 76.2951 44.3393 73.6102 44.3184 70.3643V70.2646L51.7515 70.3538L63.3771 77.2022Z" fill="#A6A6A6"/>
<path d="M64.2347 76.4367C61.1356 76.2873 48.6238 75.9805 45.5509 76.0697C45.5247 76.0697 45.5247 76.088 45.5509 76.0906C48.6186 76.303 61.1303 76.5075 64.2321 76.4865C64.2976 76.4865 64.3002 76.4394 64.2347 76.4367Z" fill="#263238"/>
<path d="M57.1739 70.6694C55.9599 70.4072 54.4628 70.5645 53.5032 71.414C53.4665 71.4454 53.5032 71.4979 53.553 71.4848C54.7276 71.1362 55.9362 70.9147 57.1581 70.824C57.1769 70.8231 57.1947 70.8154 57.2083 70.8025C57.2219 70.7895 57.2305 70.7721 57.2324 70.7534C57.2343 70.7348 57.2294 70.716 57.2187 70.7006C57.2079 70.6851 57.192 70.6741 57.1739 70.6694Z" fill="#263238"/>
<path d="M58.043 71.2197C56.8291 70.9575 55.3319 71.1174 54.3723 71.9643C54.3356 71.9958 54.3723 72.0482 54.4221 72.0377C55.5995 71.6904 56.8108 71.4707 58.0351 71.3822C58.0567 71.3833 58.0778 71.3757 58.0938 71.3612C58.1097 71.3467 58.1193 71.3264 58.1203 71.3049C58.1214 71.2833 58.1138 71.2622 58.0993 71.2463C58.0848 71.2303 58.0646 71.2207 58.043 71.2197Z" fill="#263238"/>
<path d="M58.9102 71.7705C57.6962 71.5083 56.1991 71.6682 55.2395 72.5151C55.2028 72.5492 55.2395 72.599 55.2893 72.5885C56.4639 72.2393 57.6725 72.0169 58.8945 71.9251C58.9132 71.9242 58.931 71.9165 58.9446 71.9036C58.9583 71.8906 58.9668 71.8732 58.9687 71.8546C58.9706 71.8359 58.9657 71.8171 58.955 71.8017C58.9443 71.7862 58.9284 71.7752 58.9102 71.7705Z" fill="#263238"/>
<path d="M57.2385 69.0511L43.8484 68.4428C43.8484 68.4428 48.4761 49.6515 47.9832 49.0406C47.4588 48.3851 28.0723 53.2357 24.1971 48.4271C20.2275 43.5005 22.2176 36.4082 22.2176 36.4082H35.4399C35.4399 36.4082 35.1777 38.1832 35.356 39.0301C35.356 39.0301 53.9716 36.1827 58.0199 38.3274C58.8064 38.7496 61.6905 41.1198 61.7377 43.3668C61.9921 53.2907 57.2385 69.0511 57.2385 69.0511Z" fill="#455A64"/>
<path d="M57.3711 66.6267C55.7822 66.4274 54.1907 66.3068 52.5939 66.1862C50.9972 66.0656 49.4004 65.9712 47.8037 65.9109C46.9018 65.8742 45.9998 65.882 45.0979 65.8506C45.0932 65.8522 45.0892 65.8552 45.0864 65.8592C45.0836 65.8632 45.082 65.868 45.082 65.8729C45.082 65.8778 45.0836 65.8826 45.0864 65.8865C45.0892 65.8905 45.0932 65.8936 45.0979 65.8952C45.9002 65.9528 46.6999 66.0551 47.5022 66.118L49.8776 66.2911C51.4744 66.3959 53.0711 66.4851 54.6679 66.5821C55.5672 66.6372 56.4665 66.666 57.3684 66.687C57.375 66.6853 57.3809 66.6816 57.3852 66.6764C57.3895 66.6711 57.392 66.6646 57.3923 66.6578C57.3926 66.651 57.3907 66.6443 57.3869 66.6387C57.383 66.6331 57.3775 66.6289 57.3711 66.6267Z" fill="#263238"/>
<path d="M50.044 47.7069C47.4719 47.7908 44.9129 48.0137 42.3539 48.2654C39.7949 48.5171 37.2202 48.7898 34.6402 48.9576C33.3607 49.0388 32.076 49.0913 30.7912 49.0991C29.7241 49.1449 28.6561 49.0336 27.6213 48.7688C26.594 48.4685 25.7159 47.7952 25.1594 46.881C24.5998 45.9545 24.2333 44.9244 24.0818 43.8527C23.7435 41.6844 24.0818 39.4688 24.4777 37.3294C24.5275 37.0672 24.5773 36.805 24.6245 36.5218C24.6245 36.4982 24.5904 36.4877 24.5825 36.5218C24.0582 38.6796 23.5679 40.9004 23.7252 43.129C23.7895 44.2226 24.0562 45.2948 24.5118 46.2911C24.9227 47.2591 25.6293 48.0723 26.5306 48.6141C27.4509 49.1385 28.539 49.2932 29.5957 49.3456C30.828 49.4085 32.076 49.3456 33.3083 49.2905C35.9459 49.1621 38.5731 48.8894 41.195 48.6167C43.8169 48.344 46.4257 48.0766 49.0608 47.9455C49.3518 47.9298 49.6428 47.9193 49.9339 47.9088C49.5353 50.2685 46.1609 64.3168 45.9721 65.4284C45.9538 65.5386 46.0587 65.5727 46.0875 65.4599C46.6643 63.2706 49.9391 49.204 50.1567 47.8301C50.1602 47.8142 50.1598 47.7976 50.1556 47.7818C50.1513 47.766 50.1433 47.7514 50.1323 47.7393C50.1212 47.7273 50.1074 47.718 50.0921 47.7124C50.0767 47.7067 50.0602 47.7049 50.044 47.7069Z" fill="#263238"/>
<path d="M60.3695 77.6807H31.7539V80.8453H60.3695V77.6807Z" fill="#FFC727"/>
<path d="M6.60547 49.917H8.22843L18.7161 61.9149H17.0931L6.60547 49.917Z" fill="#A6A6A6"/>
<path d="M27.0459 48.9648H4.49219V49.914H27.0459V48.9648Z" fill="#A6A6A6"/>
<path d="M12.7246 49.917H14.3476L24.8352 61.9149H23.2123L12.7246 49.917Z" fill="#A6A6A6"/>
<path d="M23.1604 72.0352C31.3093 72.0352 36.0314 77.6959 36.0314 84.3582C36.0314 91.0205 31.658 96.5527 23.711 96.5527C14.9171 96.5527 10.7168 89.5574 10.7168 84.2979C10.7168 79.0383 14.9119 72.0352 23.1604 72.0352Z" fill="#37474F"/>
<path d="M21.9082 72.0352C29.656 72.0352 34.1421 77.6959 34.1421 84.3582C34.1421 91.0205 29.9863 96.5527 22.4274 96.5527C14.0661 96.5527 10.0781 89.5469 10.0781 84.2874C10.0781 79.0278 14.0661 72.0352 21.9082 72.0352Z" fill="#263238"/>
<path d="M21.9863 76.8203C26.7058 76.8203 29.4404 80.2708 29.4404 84.3295C29.4404 88.3882 26.9077 91.7574 22.3036 91.7574C17.2066 91.7574 14.7734 87.4941 14.7734 84.2875C14.7734 81.0809 17.2066 76.8203 21.9863 76.8203Z" fill="#C7C7C7"/>
<path d="M46.2273 57.0978V56.0254L18.8046 56.909V59.3211C18.8046 59.3211 10.8629 68.0915 10.0605 77.2079L37.5592 77.7899L41.9771 77.6798H47.4019V72.1685C47.4019 72.1685 43.3012 69.1796 44.0196 63.0731C44.2582 61.0464 46.2273 57.0978 46.2273 57.0978Z" fill="#FFC727"/>
<path d="M34.9989 76.5139C34.7131 77.0383 30.5416 77.7908 22.6339 78.0031C15.5154 78.1945 10.1982 78.0372 9.78652 77.5784C9.37488 77.1196 10.4236 69.0047 15.2427 64.6104C20.0618 60.2161 26.884 59.5842 31.3833 62.2061C35.3397 64.5055 38.292 70.3498 34.9989 76.5139Z" fill="#FFC727"/>
<path opacity="0.1" d="M36.3427 68.8315C35.9199 66.91 34.9448 65.1538 33.5372 63.7791C32.1262 62.3653 30.3643 61.3527 28.4324 60.8452C26.2774 60.3073 24.0204 60.3317 21.8776 60.916C20.8052 61.1972 19.7681 61.5992 18.7863 62.1142C17.7497 62.6712 16.7728 63.3328 15.8708 64.0885C15.6295 64.2878 15.3857 64.487 15.1471 64.6915C15.1261 64.7073 15.1471 64.7361 15.1786 64.7204C16.0862 63.9223 17.0687 63.2137 18.1125 62.6045C19.065 62.0605 20.0755 61.6252 21.1251 61.3066C23.206 60.6558 25.4159 60.5315 27.5566 60.9448C29.4915 61.3336 31.2847 62.2397 32.7454 63.5667C34.153 64.834 35.1882 66.4612 35.7397 68.2731C36.3951 70.4807 36.1801 72.9112 35.5273 75.0901C35.4408 75.3837 35.3464 75.6721 35.2494 75.9605C35.2494 75.992 35.2861 76.0025 35.2965 75.9736C36.1775 73.7109 36.8356 71.2725 36.3427 68.8315Z" fill="black"/>
<path d="M17.2795 78.8399C12.505 78.8399 9.97743 78.6931 8.69531 78.1844L9.29049 76.6873C10.7902 77.2825 15.4861 77.272 23.0424 77.1855C28.6245 77.1199 32.7435 76.5929 35.313 75.6123L35.8872 77.1173C33.108 78.166 28.9129 78.7219 23.0608 78.7901C20.84 78.8215 18.926 78.8399 17.2795 78.8399Z" fill="#DBDBDB"/>
<path d="M46.6793 56.7307C46.6793 56.7307 46.8628 50.7318 46.6793 50.4958C46.4958 50.2598 18.7349 49.7591 17.9037 49.8325C17.0726 49.9059 16.9887 56.9116 17.0516 57.2394C17.1146 57.5671 45.9556 56.7937 46.6793 56.7307Z" fill="#37474F"/>
<path d="M49.2816 50.6163C49.2003 50.5219 45.6817 50.4222 45.4876 50.417C45.2936 50.4118 45.2254 56.8066 45.3303 56.8014C45.4352 56.7961 49.1531 56.8486 49.2763 56.7122C49.3995 56.5759 49.4572 50.8208 49.2816 50.6163Z" fill="#455A64"/>
<path d="M29.8364 49.8369C29.737 49.9406 29.6719 50.0724 29.6503 50.2145C29.6173 50.3641 29.5937 50.5156 29.5795 50.6681C29.5454 50.9722 29.527 51.2816 29.5113 51.5884C29.4851 52.2071 29.4693 52.8285 29.4589 53.4525C29.4484 54.0766 29.4326 54.6953 29.4589 55.3115C29.4612 55.6166 29.4822 55.9213 29.5218 56.2239C29.5375 56.3701 29.5719 56.5138 29.624 56.6513C29.6432 56.713 29.6771 56.7691 29.7228 56.8147C29.7685 56.8604 29.8246 56.8943 29.8862 56.9135C29.817 56.9115 29.7499 56.8896 29.6927 56.8506C29.6356 56.8116 29.5908 56.7569 29.5637 56.6932C29.4904 56.5561 29.4332 56.4109 29.3933 56.2606C29.3191 55.9532 29.2709 55.6401 29.2491 55.3246C29.2007 54.6966 29.1849 54.0665 29.2019 53.4368C29.2176 52.8102 29.2439 52.1809 29.3147 51.5543C29.3487 51.2408 29.3986 50.9293 29.4641 50.6209C29.5007 50.4683 29.5453 50.3178 29.5978 50.1699C29.6398 50.0414 29.7132 49.8815 29.8364 49.8369Z" fill="#455A64"/>
<path d="M83.0133 71.9355C91.1649 71.9355 95.8843 77.5963 95.8843 84.2586C95.8843 90.9208 91.5109 96.4452 83.5613 96.4452C74.7648 96.4452 70.5645 89.45 70.5645 84.193C70.5645 78.9361 74.7648 71.9355 83.0133 71.9355Z" fill="#37474F"/>
<path d="M81.7604 71.9355C89.5082 71.9355 93.9969 77.5963 93.9969 84.2586C93.9969 90.9208 89.8386 96.4452 82.2822 96.4452C73.9209 96.4452 69.9277 89.45 69.9277 84.193C69.9277 78.9361 73.9209 71.9355 81.7604 71.9355Z" fill="#263238"/>
<path d="M81.8372 76.7207C86.5567 76.7207 89.294 80.1712 89.294 84.2299C89.294 88.2886 86.7612 91.6578 82.1545 91.6578C77.0601 91.6578 74.627 87.3945 74.627 84.1906C74.627 80.9866 77.0601 76.7207 81.8372 76.7207Z" fill="#C7C7C7"/>
<path d="M69.8296 44.1039H66.6229L64.4258 40.8789H68.183L69.8296 44.1039Z" fill="#FFC727"/>
<path d="M64.4258 40.8789L65.7131 42.7667L66.6229 44.1039H69.8296L68.9617 42.4049L68.1804 40.8789H64.4258Z" fill="#FFC727"/>
<path opacity="0.1" d="M64.4258 40.8789L65.7131 42.7667L68.9617 42.4049L68.1804 40.8789H64.4258Z" fill="black"/>
<path d="M77.6206 68.1705L74.4979 68.8889L71.6348 66.2355L75.295 65.3965L77.6206 68.1705Z" fill="#FFC727"/>
<path d="M71.6348 66.2355L73.3102 67.7903L74.4953 68.8889L77.6232 68.1705L76.3962 66.7101L75.295 65.3965L71.6348 66.2355Z" fill="#FFC727"/>
<path opacity="0.1" d="M71.6348 66.2355L73.3102 67.7903L76.3962 66.7101L75.295 65.3965L71.6348 66.2355Z" fill="black"/>
<path d="M95.1755 73.5089L92.1419 75.1031C92.1419 75.1031 83.3559 73.509 77.7214 74.715C72.0869 75.9211 70.5661 78.9311 70.5661 78.9311H67.7188C67.7188 78.9311 70.1624 70.2499 74.3076 67.0984C78.4529 63.9468 85.1152 64.6521 88.799 66.6369C92.4828 68.6217 95.1755 73.5089 95.1755 73.5089Z" fill="#FFC727"/>
<path opacity="0.1" d="M91.8238 74.5023C91.2361 73.8887 90.5995 73.324 89.9203 72.8137C89.2472 72.2906 88.5355 71.819 87.7913 71.4031C86.3486 70.6015 84.7665 70.0819 83.1295 69.8719C79.9255 69.4787 76.5747 70.4121 74.215 72.874C72.8883 74.2689 71.9444 75.981 71.0477 77.7089C71.0346 77.7351 71.0713 77.7561 71.0844 77.7298C71.8441 76.2106 72.8035 74.7998 73.9371 73.5348C75.0293 72.3422 76.3888 71.4256 77.904 70.8604C80.9271 69.7513 84.1966 70.1761 87.1017 71.5159C87.9336 71.8929 88.7363 72.3311 89.5034 72.8269C90.2878 73.3551 91.0448 73.9231 91.7713 74.5285C91.776 74.5327 91.7819 74.5355 91.7882 74.5363C91.7945 74.5372 91.8008 74.5361 91.8065 74.5333C91.8122 74.5305 91.8169 74.526 91.8199 74.5204C91.823 74.5149 91.8244 74.5086 91.8238 74.5023Z" fill="black"/>
<path d="M58.4856 42.3676C58.4384 42.4778 52.1064 43.6419 52.1064 43.6419C52.1064 43.6419 51.0577 42.934 51.7053 42.0373L58.0582 40.666C58.3024 40.8664 58.4758 41.1399 58.5527 41.4463C58.6297 41.7527 58.6061 42.0757 58.4856 42.3676Z" fill="#263238"/>
<path d="M71.7763 34.1826V41.6944C71.7763 41.6944 67.7202 41.3404 66.64 41.3037C65.5598 41.267 60.759 41.8884 60.759 41.8884L60.3867 40.2051C60.3867 40.2051 64.0889 38.9125 65.662 37.9031C67.2352 36.8936 69.0469 34.9639 70.0196 34.5365C70.5702 34.2849 71.1713 34.1638 71.7763 34.1826Z" fill="#FFC727"/>
<path d="M60.7748 39.9932C61.0159 40.2412 61.1978 40.5405 61.3068 40.8688C61.4158 41.1971 61.449 41.5458 61.404 41.8888C61.404 41.8888 58.381 42.442 58.3442 42.442C58.3693 42.0864 58.2831 41.7317 58.0975 41.4273C57.912 41.1228 57.6362 40.8837 57.3086 40.743L60.7748 39.9932Z" fill="#DBDBDB"/>
<path d="M71.8155 41.6947C72.9132 41.6947 73.8029 40.0137 73.8029 37.9401C73.8029 35.8665 72.9132 34.1855 71.8155 34.1855C70.7179 34.1855 69.8281 35.8665 69.8281 37.9401C69.8281 40.0137 70.7179 41.6947 71.8155 41.6947Z" fill="#DBDBDB"/>
<path d="M71.938 41.2905C72.8777 41.2905 73.6396 39.7903 73.6396 37.9397C73.6396 36.0891 72.8777 34.5889 71.938 34.5889C70.9982 34.5889 70.2363 36.0891 70.2363 37.9397C70.2363 39.7903 70.9982 41.2905 71.938 41.2905Z" fill="white"/>
<path d="M72.4547 44.1143C73.1155 45.0817 75.761 58.2385 76.2801 58.8993C76.7993 59.56 77.793 59.6072 77.793 59.6072L79.5418 63.9543C79.5418 63.9543 75.1973 65.3256 72.7851 67.3077C69.6676 69.8694 66.7862 78.3617 66.7862 78.3617C66.3142 78.6921 60.4568 81.1016 58.8496 81.196C58.8496 81.196 66.3195 72.9947 66.9277 61.6444C67.1637 57.2474 64.4579 51.0545 64.2822 47.9868C64.0882 44.6937 65.0845 44.1143 66.8334 44.1143H72.4547Z" fill="#FFC727"/>
<path d="M58.4897 82.1324L57.3203 81.0259C63.8751 74.0883 66.2925 63.1576 66.1011 60.1738C66.0015 58.6453 65.5112 56.9358 64.9894 55.124C64.4336 53.1917 63.8043 51.0024 63.5369 48.6243C63.2878 46.4166 63.5369 44.9903 64.2894 44.1382C65.0419 43.2861 66.0749 43.2887 66.7618 43.2913H73.002V44.9012H66.7592C66.1588 44.9012 65.7498 44.9221 65.4902 45.2132C65.2306 45.5042 64.8924 46.2619 65.1389 48.446C65.4011 50.6877 65.9753 52.7171 66.539 54.6783C67.0843 56.5766 67.5877 58.3673 67.7083 60.069C67.9129 63.2546 65.3984 74.8513 58.4897 82.1324Z" fill="#DBDBDB"/>
<path d="M76.313 62.489C76.6801 63.8419 77.8363 64.7019 78.8956 64.4135C79.9548 64.1251 80.5185 62.7957 80.1489 61.4455C79.7792 60.0952 78.6229 59.2299 77.5637 59.5184C76.5044 59.8068 75.9433 61.1387 76.313 62.489Z" fill="#DBDBDB"/>
<path d="M76.7034 62.3811C77.0312 63.5872 78.0328 64.3633 78.9399 64.1168C79.8471 63.8704 80.3138 62.6931 79.9887 61.4949C79.6636 60.2967 78.6594 59.5127 77.7548 59.7592C76.8503 60.0057 76.3757 61.175 76.7034 62.3811Z" fill="white"/>
<path opacity="0.1" d="M71.6747 62.2709C71.3837 60.9102 71.069 59.5546 70.7964 58.1912C70.5237 56.8278 70.272 55.4618 70.0596 54.0906C69.8525 52.8137 69.6296 51.5237 69.5483 50.2311C69.4671 48.8808 69.5483 47.5174 70.2038 46.2982C70.2052 46.2958 70.2061 46.2932 70.2064 46.2904C70.2068 46.2877 70.2066 46.2849 70.2059 46.2822C70.2051 46.2795 70.2039 46.277 70.2022 46.2748C70.2005 46.2726 70.1984 46.2708 70.196 46.2694C70.1935 46.268 70.1909 46.2671 70.1881 46.2668C70.1854 46.2664 70.1826 46.2666 70.1799 46.2673C70.1772 46.2681 70.1747 46.2693 70.1725 46.271C70.1703 46.2727 70.1685 46.2748 70.1671 46.2773C69.4933 47.2605 69.273 48.443 69.2363 49.615C69.2398 50.9071 69.3538 52.1965 69.5772 53.4692C69.9597 56.2638 70.4848 59.037 71.1503 61.778C71.5305 63.3276 72.0208 64.8509 72.5452 66.3559C72.5452 66.3608 72.5471 66.3654 72.5506 66.3689C72.554 66.3723 72.5587 66.3742 72.5635 66.3742C72.5684 66.3742 72.5731 66.3723 72.5765 66.3689C72.58 66.3654 72.5819 66.3608 72.5819 66.3559C72.269 64.9873 71.9666 63.6256 71.6747 62.2709Z" fill="black"/>
<path opacity="0.1" d="M47.4023 72.1685V77.6746H42.7038V73.5057C42.7038 73.5057 40.0819 72.1816 39.5575 67.3652C39.0855 63.0023 42.5674 57.179 43.2282 56.1224L46.2198 56.0254V57.0978C46.2198 57.0978 44.2507 61.0464 44.0121 63.0731C43.3016 69.1796 47.4023 72.1685 47.4023 72.1685Z" fill="black"/>
<path d="M59.2181 78.9623C58.5836 79.1668 40.3114 78.4379 39.6271 77.9948C39.5458 77.945 39.2207 74.429 39.2207 74.429L41.334 60.9287L53.3292 61.0886L51.0141 72.6251C51.0141 72.6251 53.6544 73.839 55.8358 74.9009C57.1782 75.5538 58.345 76.1489 58.6124 76.3639C59.3125 76.9303 59.8526 78.7577 59.2181 78.9623Z" fill="#F7A9A0"/>
<path d="M59.2233 78.9622C58.5862 79.1667 40.314 78.4378 39.6323 77.9947C39.5484 77.9449 39.2207 74.4315 39.2207 74.4315L39.8736 70.2705L51.3812 70.7949L51.0167 72.6093C51.0167 72.6093 53.657 73.8258 55.8384 74.8851C57.1782 75.5379 58.3476 76.1331 58.615 76.3481C59.3151 76.9328 59.8552 78.7577 59.2233 78.9622Z" fill="#EBEBEB"/>
<path d="M59.2103 78.9861C58.5653 79.188 40.1726 78.758 39.483 78.2965C39.2208 78.1261 39.1264 75.4439 39.1055 72.198V72.0957L50.9723 72.2399V72.4418C50.9723 72.4418 57.9387 75.7533 58.644 76.3406C59.3493 76.9279 59.8579 78.7842 59.2103 78.9861Z" fill="#C7C7C7"/>
<path d="M59.0172 78.2652C55.9207 78.1183 43.409 77.8116 40.3361 77.9007C40.3099 77.9007 40.3099 77.9191 40.3361 77.9191C43.4037 78.1341 55.9155 78.3386 59.0172 78.3176C59.0828 78.315 59.0828 78.2678 59.0172 78.2652Z" fill="#263238"/>
<path d="M51.9602 72.496C50.7462 72.2338 49.2491 72.3938 48.2895 73.2407C48.2501 73.2747 48.2895 73.3246 48.3393 73.3141C49.5138 72.9647 50.7224 72.7423 51.9444 72.6507C51.9632 72.6498 51.981 72.6421 51.9946 72.6292C52.0082 72.6162 52.0168 72.5988 52.0187 72.5801C52.0206 72.5614 52.0157 72.5427 52.005 72.5273C51.9942 72.5118 51.9783 72.5008 51.9602 72.496Z" fill="#263238"/>
<path d="M52.8262 73.0503C51.6122 72.7881 50.1151 72.9454 49.1555 73.7923C49.1188 73.8264 49.1555 73.8788 49.2053 73.8657C50.3807 73.5161 51.5902 73.2937 52.8131 73.2023C52.8231 73.2032 52.8331 73.2021 52.8427 73.1991C52.8522 73.196 52.8611 73.1912 52.8688 73.1847C52.8764 73.1783 52.8828 73.1704 52.8874 73.1615C52.892 73.1526 52.8948 73.1428 52.8957 73.1329C52.8965 73.1229 52.8954 73.1128 52.8924 73.1033C52.8894 73.0937 52.8845 73.0848 52.878 73.0772C52.8716 73.0695 52.8637 73.0632 52.8548 73.0586C52.8459 73.054 52.8362 73.0511 52.8262 73.0503Z" fill="#263238"/>
<path d="M53.6953 73.6C52.4814 73.3378 50.9843 73.4951 50.0247 74.3446C49.988 74.3761 50.0247 74.4285 50.0745 74.4154C51.2494 74.0682 52.4579 73.8467 53.6796 73.7547C53.6984 73.7537 53.7162 73.7461 53.7298 73.7332C53.7434 73.7202 53.7519 73.7028 53.7538 73.6841C53.7557 73.6654 53.7509 73.6467 53.7402 73.6312C53.7294 73.6158 53.7135 73.6047 53.6953 73.6Z" fill="#263238"/>
<path d="M52.0283 70.8812L38.6382 70.2703C38.6382 70.2703 43.2685 51.479 42.7756 50.8681C42.2512 50.21 24.5952 55.0631 20.7174 50.2545C16.7478 45.328 20.7174 37.082 20.7174 37.082H34.2911C34.2911 37.082 34.291 38.5923 33.3681 40.8523C33.3681 40.8523 48.7588 38.0023 52.8149 40.1471C53.6146 40.5718 56.4856 42.942 56.5328 45.189C56.7687 55.1261 52.0283 70.8812 52.0283 70.8812Z" fill="#455A64"/>
<path d="M52.1581 68.4555C50.5692 68.2562 48.9751 68.133 47.3784 68.015C45.7816 67.897 44.1875 67.8 42.5881 67.7371C41.6888 67.703 40.7869 67.7108 39.8849 67.6768C39.8787 67.6768 39.8727 67.6792 39.8682 67.6837C39.8638 67.6881 39.8613 67.6941 39.8613 67.7004C39.8613 67.7066 39.8638 67.7126 39.8682 67.717C39.8727 67.7215 39.8787 67.724 39.8849 67.724C40.6872 67.7816 41.4869 67.8813 42.2892 67.9442C43.0915 68.0071 43.8624 68.0648 44.6647 68.1172C46.2588 68.2247 47.8556 68.3113 49.4523 68.4109C50.3542 68.466 51.2536 68.4948 52.1555 68.5158C52.1621 68.5141 52.168 68.5104 52.1723 68.5052C52.1766 68.4999 52.1791 68.4934 52.1794 68.4866C52.1797 68.4798 52.1778 68.4731 52.1739 68.4675C52.1701 68.4619 52.1645 68.4577 52.1581 68.4555Z" fill="#263238"/>
<path d="M26.392 38.2181C26.3742 38.2734 26.3514 38.3269 26.3238 38.378C26.3208 38.3818 26.3192 38.3864 26.3192 38.3911C26.3192 38.3959 26.3208 38.4005 26.3238 38.4043C26.1665 38.8946 26.1009 39.4137 25.9488 39.9066C25.8044 40.4298 25.484 40.8873 25.0417 41.2018C24.1135 41.8468 22.9992 42.1379 21.919 42.4053C21.9125 42.4072 21.9068 42.4112 21.9027 42.4167C21.8987 42.4221 21.8965 42.4287 21.8965 42.4355C21.8965 42.4422 21.8987 42.4488 21.9027 42.4543C21.9068 42.4597 21.9125 42.4637 21.919 42.4656C22.5417 42.4691 23.1611 42.3744 23.7543 42.1851C24.3117 42.0308 24.8373 41.7786 25.3065 41.4404C25.7472 41.1069 26.0615 40.6336 26.1979 40.098C26.2639 39.8132 26.3155 39.5253 26.3526 39.2354C26.4133 38.902 26.4492 38.5646 26.4601 38.226C26.4563 38.2208 26.4514 38.2165 26.4458 38.2133C26.4403 38.2101 26.4341 38.2081 26.4277 38.2073C26.4214 38.2066 26.4149 38.2072 26.4087 38.209C26.4026 38.2109 26.3969 38.214 26.392 38.2181Z" fill="#263238"/>
<path d="M35.5522 40.1817C34.8139 40.3947 34.0947 40.6692 33.4022 41.0023L33.3681 41.0181C33.3824 40.9754 33.3929 40.9315 33.3996 40.887C33.3996 40.8345 33.4153 40.7847 33.4258 40.7323C33.4363 40.6798 33.4258 40.6248 33.4416 40.5697V40.4858C33.5308 40.4801 33.6178 40.4559 33.6973 40.4148C33.7767 40.3738 33.8467 40.3167 33.903 40.2472C34.0478 40.046 34.1455 39.8148 34.1888 39.5708C34.2701 39.2666 34.3461 38.9572 34.4117 38.6479C34.4772 38.3385 34.548 37.9583 34.6031 37.5991C34.6697 37.2593 34.7091 36.9147 34.7211 36.5687C34.7211 36.5562 34.7161 36.5442 34.7072 36.5353C34.6984 36.5265 34.6864 36.5215 34.6739 36.5215C34.6613 36.5215 34.6493 36.5265 34.6405 36.5353C34.6316 36.5442 34.6267 36.5562 34.6267 36.5687C34.5454 36.8859 34.5087 37.2137 34.4484 37.5335C34.3881 37.8534 34.3199 38.1759 34.2465 38.4958C34.1731 38.8157 34.0944 39.1355 34.0053 39.4502C33.9161 39.7648 33.848 40.1397 33.5228 40.2367C32.8516 40.4281 33.1531 38.9258 33.182 38.6269C33.2502 37.9452 33.2921 37.2478 33.4127 36.5713C33.4127 36.5451 33.3734 36.532 33.3681 36.5713C33.2213 37.1927 33.0561 37.8036 32.946 38.4329C32.891 38.7423 32.8516 39.0543 32.8175 39.3636C32.7631 39.6317 32.7849 39.9097 32.8805 40.166C32.9221 40.2525 32.9842 40.3276 33.0614 40.3847C33.1386 40.4419 33.2286 40.4793 33.3236 40.4937L33.3026 40.5645C33.2869 40.6143 33.2711 40.6641 33.258 40.7139C33.2449 40.7637 33.2344 40.8162 33.2239 40.866C33.2009 40.9252 33.1928 40.9891 33.2003 41.0522C33.2062 41.0698 33.2183 41.0848 33.2344 41.0941C32.9486 41.2173 32.6602 41.3406 32.3771 41.4743C32.0211 41.6141 31.6765 41.7816 31.3466 41.9751C31.3073 41.9934 31.3466 42.0459 31.3755 42.038C31.7446 41.9344 32.1057 41.8038 32.4557 41.6473C32.8149 41.511 33.1689 41.3642 33.5255 41.2147C34.2318 40.9554 34.915 40.637 35.5679 40.263C35.5787 40.2609 35.5882 40.2546 35.5944 40.2455C35.6005 40.2364 35.6028 40.2252 35.6007 40.2145C35.5986 40.2037 35.5923 40.1942 35.5832 40.188C35.5741 40.1819 35.563 40.1796 35.5522 40.1817Z" fill="#263238"/>
<path d="M56.1331 43.4819C55.6686 42.1165 54.7288 40.9636 53.485 40.2334C52.2081 39.5281 50.7189 39.3393 49.2899 39.2947C47.6276 39.2449 45.9548 39.3315 44.2952 39.4363C42.528 39.5465 40.7608 39.7143 39.0041 39.9607C37.2474 40.2072 35.5222 40.5087 33.7944 40.881C33.3801 40.9702 32.9685 41.0803 32.5568 41.1956C32.5254 41.1956 32.5306 41.2638 32.5568 41.2586C34.2742 41.0173 35.9837 40.7342 37.701 40.4982C39.4184 40.2622 41.1541 40.0761 42.8898 39.945C44.6255 39.8139 46.3429 39.7405 48.0707 39.7143C49.4866 39.6933 50.9548 39.7143 52.2999 40.1705C52.965 40.383 53.5809 40.7262 54.1116 41.1799C54.6329 41.646 55.0601 42.2076 55.3701 42.8343C56.0781 44.2266 56.1436 45.8233 56.2144 47.365C56.4189 51.9403 53.1284 66.4788 52.5437 68.8149C52.5422 68.8352 52.5479 68.8554 52.5598 68.8719C52.5717 68.8884 52.589 68.9002 52.6087 68.9052C52.6284 68.9102 52.6493 68.9081 52.6676 68.8993C52.6859 68.8904 52.7005 68.8754 52.7089 68.8569C53.367 66.2192 56.6418 52.4856 56.6418 48.3587C56.6444 46.7122 56.7047 45.0341 56.1331 43.4819Z" fill="#263238"/>
<path d="M44.7416 49.2857C42.3426 49.3696 39.9566 49.5925 37.5707 49.8442C35.1847 50.0959 32.7804 50.3685 30.3788 50.5364C29.1832 50.6176 27.9849 50.6701 26.7867 50.6779C25.7905 50.7246 24.7932 50.6131 23.8318 50.3476C22.8555 50.0321 22.0348 49.3585 21.535 48.4624C21.0105 47.5233 20.6696 46.4929 20.5308 45.4262C20.2162 43.2579 20.5308 41.0424 20.9005 38.9029C20.9477 38.6407 20.9923 38.3785 21.0395 38.098C21.0395 38.0718 21.0054 38.0613 21.0002 38.098C20.4994 40.2558 20.051 42.4766 20.2136 44.7052C20.2731 45.7944 20.5206 46.865 20.9451 47.8699C21.3151 48.8208 21.9734 49.6322 22.8276 50.1903C23.7074 50.6609 24.6878 50.9119 25.6855 50.9218C26.8402 50.965 27.9964 50.9467 29.1491 50.8667C31.6084 50.7382 34.0573 50.4656 36.5036 50.1929C38.9498 49.9202 41.3803 49.6528 43.8292 49.5217C44.0914 49.5086 44.3719 49.4954 44.642 49.4876C44.2723 51.8342 41.126 65.8929 40.9503 67.0046C40.932 67.1147 41.0316 67.1488 41.0578 67.0387C41.5822 64.8468 44.6498 50.7828 44.8517 49.4063C44.8552 49.3907 44.8549 49.3744 44.8508 49.3589C44.8467 49.3434 44.8389 49.3292 44.8281 49.3173C44.8173 49.3055 44.8038 49.2964 44.7887 49.2909C44.7737 49.2854 44.7575 49.2836 44.7416 49.2857Z" fill="#263238"/>
<path d="M19.936 38.7584C19.9727 38.8108 37.9093 40.1899 38.0981 40.0221C38.3603 39.7836 36.5852 21.4065 34.9832 18.7112C34.6398 18.137 33.3262 17.8355 32.1751 17.846C31.8754 17.8445 31.5762 17.87 31.2811 17.922H31.2522C31.014 17.9625 30.7844 18.0432 30.5732 18.1606C27.128 20.3106 23.452 28.8003 22.5265 31.3698C20.9927 35.6068 19.8023 38.5696 19.936 38.7584Z" fill="#FFC727"/>
<path d="M34.1591 21.0554C33.2676 21.0554 31.7626 19.616 31.4637 18.2657C31.4428 18.1713 31.8125 17.3664 32.211 16.3648C32.4522 15.7539 32.7065 15.0722 32.8927 14.4324C32.9294 14.2987 36.6237 16.5745 36.6237 16.5745C36.1622 17.3088 35.7923 18.0969 35.5225 18.9212C35.4982 19.0069 35.4815 19.0947 35.4727 19.1833C35.4737 19.1982 35.4737 19.2131 35.4727 19.2279C35.4019 19.7602 35.1108 21.0685 34.1591 21.0554Z" fill="#F7A9A0"/>
<path d="M35.4722 19.1905C35.4732 19.2053 35.4732 19.2202 35.4722 19.235C35.3307 19.2144 35.1913 19.182 35.0553 19.138C32.6956 18.3986 32.942 15.2576 33.0417 14.4736C33.726 14.783 36.6311 16.5712 36.6311 16.5712C36.17 17.3061 35.7993 18.094 35.5272 18.9178C35.5018 19.0071 35.4834 19.0983 35.4722 19.1905Z" fill="#263238"/>
<path d="M33.2189 9.51781C32.5713 10.9284 32.7706 15.286 33.6856 16.3663C35.015 17.9394 37.4796 18.414 38.8928 16.7517C40.2614 15.1392 39.9022 9.47324 38.8534 8.45331C37.3039 6.95357 34.1786 7.43863 33.2189 9.51781Z" fill="#F7A9A0"/>
<path d="M37.0175 12.6221C37.0175 12.6221 36.9966 12.6378 36.9966 12.6509C37.0175 12.9419 36.9966 13.2828 36.7344 13.3903C36.7344 13.3903 36.7344 13.4086 36.7344 13.406C37.0569 13.3483 37.0831 12.8974 37.0175 12.6221Z" fill="#263238"/>
<path d="M36.7418 12.3294C36.2698 12.311 36.2724 13.2601 36.7103 13.2759C37.1482 13.2916 37.1403 12.3425 36.7418 12.3294Z" fill="#263238"/>
<path d="M38.7171 12.6699C38.7171 12.6699 38.7407 12.683 38.7381 12.6961C38.7381 12.9872 38.7695 13.3254 39.0343 13.4224C39.0343 13.4224 39.0343 13.4408 39.0343 13.4381C38.7092 13.3936 38.6568 12.9452 38.7171 12.6699Z" fill="#263238"/>
<path d="M38.9776 12.3624C39.4469 12.3257 39.4863 13.2722 39.0484 13.3036C38.6105 13.3351 38.5817 12.3886 38.9776 12.3624Z" fill="#263238"/>
<path d="M36.3706 11.8961C36.4944 11.8591 36.6161 11.8153 36.7351 11.765C36.8707 11.7389 36.9936 11.6678 37.0838 11.5631C37.1061 11.5247 37.1151 11.4799 37.1094 11.4359C37.1038 11.3918 37.0837 11.3508 37.0523 11.3193C36.9809 11.267 36.8968 11.2348 36.8087 11.2261C36.7206 11.2173 36.6318 11.2323 36.5515 11.2695C36.3767 11.3186 36.2269 11.4319 36.132 11.5867C36.1129 11.6231 36.1047 11.6643 36.1082 11.7052C36.1118 11.7462 36.1271 11.7853 36.1522 11.8179C36.1773 11.8504 36.2112 11.8751 36.2499 11.889C36.2887 11.9029 36.3305 11.9053 36.3706 11.8961Z" fill="#263238"/>
<path d="M39.3435 11.883C39.2158 11.8584 39.0897 11.826 38.966 11.786C38.8287 11.7722 38.7001 11.7121 38.6015 11.6156C38.5749 11.5805 38.5605 11.5377 38.5605 11.4937C38.5605 11.4497 38.5749 11.4069 38.6015 11.3718C38.6681 11.3131 38.7492 11.2734 38.8364 11.2568C38.9235 11.2402 39.0136 11.2473 39.0971 11.2774C39.2752 11.3109 39.4343 11.4101 39.5428 11.5553C39.5648 11.5889 39.5769 11.628 39.5775 11.6681C39.5782 11.7083 39.5675 11.7478 39.5467 11.7821C39.5258 11.8164 39.4956 11.8441 39.4597 11.862C39.4237 11.8798 39.3835 11.8871 39.3435 11.883Z" fill="#263238"/>
<path d="M36.7508 15.3467C36.8216 15.4148 36.8924 15.5092 37.013 15.5197C37.122 15.5164 37.2292 15.4905 37.3277 15.4437C37.3277 15.4437 37.346 15.4437 37.3408 15.4594C37.2989 15.5171 37.2422 15.5625 37.1766 15.5906C37.1111 15.6188 37.0392 15.6287 36.9685 15.6193C36.9081 15.604 36.8537 15.5707 36.8126 15.5239C36.7714 15.4771 36.7453 15.419 36.7377 15.3571C36.7194 15.344 36.7404 15.3362 36.7508 15.3467Z" fill="#263238"/>
<path d="M37.0558 14.469C37.1306 14.5851 37.2286 14.6844 37.3437 14.7606C37.4588 14.8369 37.5884 14.8885 37.7244 14.9121C37.8428 14.9345 37.9638 14.9398 38.0836 14.9279C38.1063 14.9306 38.1292 14.9306 38.1518 14.9279H38.2174C38.2327 14.9246 38.2466 14.9164 38.257 14.9046C38.2674 14.8928 38.2737 14.878 38.275 14.8623C38.2763 14.8527 38.2763 14.8431 38.275 14.8335V14.8073C38.275 14.5818 38.2567 14.2383 38.2567 14.2383C38.3406 14.2803 38.7627 14.469 38.7549 14.351C38.7271 13.3326 38.5954 12.3196 38.3616 11.328C38.3616 11.321 38.3588 11.3144 38.3539 11.3094C38.349 11.3045 38.3423 11.3018 38.3353 11.3018C38.3284 11.3018 38.3217 11.3045 38.3168 11.3094C38.3119 11.3144 38.3091 11.321 38.3091 11.328C38.3301 12.2692 38.5136 13.2 38.5503 14.1439C38.4004 14.075 38.2415 14.0274 38.0784 14.0023C38.0469 14.0023 38.1335 14.6657 38.123 14.7679C37.9381 14.7862 37.7515 14.7673 37.5741 14.7124C37.3967 14.6575 37.2321 14.5676 37.0899 14.4481C37.0637 14.4271 37.0401 14.4454 37.0558 14.469Z" fill="#263238"/>
<path d="M37.9515 14.8113C37.8283 14.9738 37.6647 15.1013 37.477 15.181C37.3742 15.2209 37.2616 15.2282 37.1545 15.202C36.9211 15.1417 36.9133 14.9398 36.9552 14.7405C36.9802 14.6436 37.0154 14.5495 37.0601 14.46C37.312 14.6694 37.6245 14.7926 37.9515 14.8113Z" fill="#263238"/>
<path d="M37.477 15.1817C37.3742 15.2216 37.2616 15.2289 37.1545 15.2027C36.9211 15.1424 36.9133 14.9405 36.9552 14.7412C37.0791 14.7452 37.1979 14.7909 37.2926 14.8708C37.3873 14.9507 37.4523 15.0603 37.477 15.1817Z" fill="#FF9BBC"/>
<path d="M39.4813 9.89267C39.3214 9.52036 39.1352 9.14542 38.9098 9.06939C38.6843 8.99335 38.5401 9.54396 38.0288 9.57804C37.3418 9.62524 37.0089 8.99335 36.0466 8.92518C34.6623 8.8308 34.054 9.97395 34.0225 11.9456C33.9937 13.6971 32.9344 13.8623 32.9344 13.8623C32.9344 13.8623 32.292 10.0002 33.3801 8.72068C34.4682 7.44118 36.9669 6.88533 38.6449 8.09666C39.2559 8.53976 39.4813 9.89267 39.4813 9.89267Z" fill="#263238"/>
<path d="M33.8187 13.1761C33.8187 13.1761 33.0137 11.6895 32.3504 11.9596C31.687 12.2296 32.18 14.3193 32.8748 14.668C32.9618 14.7203 33.0586 14.7544 33.1592 14.7684C33.2598 14.7823 33.3622 14.7757 33.4602 14.749C33.5582 14.7223 33.6497 14.676 33.7294 14.613C33.809 14.55 33.875 14.4714 33.9235 14.3822L33.8187 13.1761Z" fill="#F7A9A0"/>
<path d="M32.5078 12.5488V12.5672C32.9981 12.8294 33.2131 13.3538 33.3468 13.8598C33.3229 13.8048 33.2873 13.7557 33.2426 13.7159C33.1978 13.676 33.145 13.6463 33.0876 13.6289C33.0303 13.6115 32.9699 13.6067 32.9105 13.6148C32.8512 13.623 32.7943 13.644 32.7438 13.6763C32.7281 13.6763 32.7438 13.7077 32.7438 13.7051C32.8376 13.6871 32.9346 13.6983 33.0218 13.7373C33.109 13.7762 33.1822 13.8409 33.2315 13.9227C33.3109 14.0617 33.3759 14.2084 33.4255 14.3606C33.4438 14.4078 33.5304 14.3947 33.5172 14.3396V14.3265C33.6064 13.671 33.2026 12.6957 32.5078 12.5488Z" fill="#263238"/>
<path d="M39.3154 8.7421C38.909 8.64509 36.6568 8.71326 35.6447 9.14849C34.6327 9.58373 32.834 11.0389 32.7423 11.1149C32.6505 11.191 32.1864 7.47833 35.199 6.80188C38.479 6.0625 39.3154 8.7421 39.3154 8.7421Z" fill="#FFC727"/>
<path d="M32.916 10.9635C32.916 10.9635 34.9061 8.34159 36.0125 7.73855C37.1189 7.13551 39.5967 6.7999 41.1305 7.47636C42.3235 8.00074 39.4079 9.53719 39.4079 9.53719C39.3803 9.41138 39.3237 9.29374 39.2427 9.19361C39.1617 9.09348 39.0585 9.01362 38.9412 8.96036C38.1966 8.66409 36.7807 8.89219 35.9732 9.16225C34.9559 9.50572 32.916 10.9635 32.916 10.9635Z" fill="#FFC727"/>
<path opacity="0.2" d="M32.916 10.9769C32.916 10.9769 34.9061 8.33922 36.0125 7.7388C37.1189 7.13838 39.5967 6.80015 41.1305 7.47661C42.3235 8.00099 39.4079 9.53743 39.4079 9.53743C39.3803 9.41163 39.3237 9.29399 39.2427 9.19386C39.1617 9.09373 39.0585 9.01386 38.9412 8.96061C38.1966 8.66433 36.7807 8.89244 35.9732 9.1625C34.9559 9.50597 32.916 10.9769 32.916 10.9769Z" fill="black"/>
<path d="M29.44 23.0637C29.2722 28.2341 31.181 37.9169 32.5863 38.575C37.1223 40.6935 44.7547 40.8272 47.3687 40.8508C48.4961 40.8508 50.2266 32.833 49.1097 32.382C48.3677 32.0831 37.1773 32.0805 36.9807 31.6819C36.784 31.2834 34.1175 25.5257 32.9665 22.3374C31.4379 18.0978 29.537 20.0275 29.44 23.0637Z" fill="#F7A9A0"/>
<path d="M47.9087 32.2744C47.9087 32.2744 51.3356 32.4842 53.5668 32.7254C54.8149 32.8591 56.9308 33.2812 57.7986 33.7977C59.1096 34.5843 64.0493 38.6431 63.0896 39.8649C62.2192 40.9687 58.4121 36.9336 58.4121 36.9336C58.4121 36.9336 62.6072 40.6646 61.3225 41.8051C60.0377 42.9456 56.3408 37.8093 56.3408 37.8093C56.3408 37.8093 60.5726 41.7422 59.0545 42.707C57.9087 43.4333 54.2984 38.9734 54.2984 38.9734C54.2984 38.9734 57.914 42.3819 56.7656 43.1685C55.4966 44.0521 51.9072 40.1428 51.9072 40.1428C48.6481 41.6845 46.4667 41.0841 44.9643 40.4732C44.5946 40.3368 47.9087 32.2744 47.9087 32.2744Z" fill="#F7A9A0"/>
<path d="M57.0385 35.5483C57.5471 35.9678 58.0663 36.39 58.5356 36.8593C59.0049 37.3286 59.4611 37.8058 59.8859 38.3118C60.4543 38.9627 60.9469 39.6761 61.3542 40.4382C60.5335 39.1272 58.8765 37.4492 58.4045 36.9851C57.9326 36.521 57.4895 36.0334 57.0201 35.5693C57.007 35.5536 57.0254 35.5378 57.0385 35.5483Z" fill="#263238"/>
<path d="M55.3336 37.2154C55.9603 37.7791 56.6027 38.3192 57.2057 38.9118C57.8087 39.5043 58.3226 40.1152 58.8811 40.7471C58.9231 40.7943 58.8811 40.8022 58.8365 40.7471C58.2545 40.1414 57.6698 39.6249 57.0825 39.0245C56.4952 38.4241 55.9262 37.8001 55.3179 37.2232C55.3074 37.2206 55.3232 37.2075 55.3336 37.2154Z" fill="#263238"/>
<path d="M53.5983 38.382C54.5817 39.2254 55.4753 40.1682 56.2648 41.1953C56.3041 41.2451 56.2517 41.2504 56.2071 41.1953C55.3393 40.2436 54.6654 39.4911 53.5695 38.4135C53.5616 38.4003 53.5983 38.3663 53.5983 38.382Z" fill="#263238"/>
<path d="M57.3659 33.3831C56.5513 33.0351 55.6867 32.8182 54.8043 32.7407C52.9007 32.5073 50.9867 32.3553 49.0727 32.2163C47.1587 32.0773 45.2159 31.9541 43.2862 31.8833C42.2007 31.8414 41.1152 31.809 40.0298 31.7863C38.9443 31.7653 38.7188 31.8047 37.6281 31.8178C37.5992 31.8178 37.6019 31.8571 37.6281 31.8597C39.529 31.9594 40.5777 32.038 42.4786 32.1377C44.3795 32.2373 46.2752 32.35 48.1708 32.4811C50.0665 32.6122 51.9306 32.7433 53.8027 32.9531C54.7082 33.0145 55.606 33.1593 56.4849 33.3857C57.3459 33.7019 58.1446 34.167 58.8446 34.7596C59.6469 35.3915 62.6543 38.2834 62.9296 38.6584C62.9637 38.7029 62.9768 38.6898 62.9584 38.6321C62.7408 37.8482 59.1252 34.2037 57.3659 33.3831Z" fill="#263238"/>
<path d="M34.8552 26.4006L29.2784 29.5626C29.2784 29.5626 29.0424 22.5149 29.5589 20.4226C30.141 18.0629 31.216 18.8809 32.4273 20.8421C33.6387 22.8033 34.8552 26.4006 34.8552 26.4006Z" fill="#FFC727"/>
<path opacity="0.1" d="M34.8552 26.4006L29.2784 29.5626C29.2784 29.5626 29.0424 22.5149 29.5589 20.4226C30.141 18.0629 31.216 18.8809 32.4273 20.8421C33.6387 22.8033 34.8552 26.4006 34.8552 26.4006Z" fill="black"/>
<path d="M34.0865 25.4988C33.3235 25.8055 31.1578 27.0483 30.7986 27.2502C30.6098 27.3551 29.8704 27.8139 29.6816 27.9188C29.6581 27.9319 29.6816 27.966 29.7052 27.9529C30.0697 27.7536 30.4525 27.5911 30.8196 27.3944C31.1866 27.1978 33.4415 26.0127 34.1022 25.525C34.1047 25.5225 34.1063 25.5193 34.1068 25.5158C34.1072 25.5123 34.1065 25.5087 34.1046 25.5057C34.1028 25.5027 34.1001 25.5003 34.0968 25.4991C34.0935 25.4978 34.0898 25.4977 34.0865 25.4988Z" fill="#263238"/>
<path d="M33.9744 23.7918C33.8879 23.464 33.7988 23.1389 33.6991 22.8138C33.7542 23.055 33.8171 23.2962 33.88 23.5374C33.6781 23.0812 33.471 22.6302 33.2455 22.1924H33.2324C33.4763 22.9029 33.7568 23.6004 34.019 24.3056C34.2812 25.0109 34.5434 25.6848 34.8056 26.3743C34.6876 26.4661 34.5722 26.5553 34.4516 26.6365C34.4467 26.6397 34.4433 26.6446 34.4421 26.6503C34.4409 26.6559 34.4419 26.6618 34.4451 26.6667C34.4482 26.6716 34.4531 26.675 34.4588 26.6762C34.4644 26.6774 34.4703 26.6764 34.4752 26.6732C34.6194 26.5998 34.7636 26.5264 34.9131 26.4609C34.9304 26.4543 34.9445 26.4415 34.9528 26.425C34.9611 26.4085 34.9628 26.3895 34.9576 26.3717C34.664 25.5144 34.3389 24.6439 33.9744 23.7918Z" fill="#263238"/>
</svg>
