<svg width="84" height="36" viewBox="0 0 84 36" fill="none" xmlns="http://www.w3.org/2000/svg">
<g clip-path="url(#clip0_535_32965)">
<mask id="mask0_535_32965" style="mask-type:luminance" maskUnits="userSpaceOnUse" x="0" y="0" width="84" height="36">
<path d="M83.3904 0.921387H0.397583V35.3461H83.3904V0.921387Z" fill="white"/>
</mask>
<g mask="url(#mask0_535_32965)">
<path d="M0.436035 18.5848C0.482175 23.4197 2.60191 27.8466 5.86526 30.9302H17.4093V18.5848H0.436035Z" fill="white"/>
</g>
<mask id="mask1_535_32965" style="mask-type:luminance" maskUnits="userSpaceOnUse" x="0" y="0" width="84" height="36">
<path d="M83.3904 0.921387H0.397583V35.3461H83.3904V0.921387Z" fill="white"/>
</mask>
<g mask="url(#mask1_535_32965)">
<path d="M17.446 30.9672H5.8496L5.83907 30.9572C2.42564 27.7315 0.442408 23.2222 0.398024 18.585L0.397705 18.5472H17.446V30.9672ZM5.8793 30.8927H17.3713V18.6221H0.472743C0.527185 23.2208 2.49621 27.6906 5.8793 30.8927Z" fill="#020203"/>
</g>
<mask id="mask2_535_32965" style="mask-type:luminance" maskUnits="userSpaceOnUse" x="0" y="0" width="84" height="36">
<path d="M83.3904 0.921387H0.397583V35.3461H83.3904V0.921387Z" fill="white"/>
</mask>
<g mask="url(#mask2_535_32965)">
<path d="M35.2823 17.676C35.2362 12.8412 33.1164 8.41426 29.8531 5.33069H18.3091V17.676H35.2823Z" fill="white"/>
</g>
<mask id="mask3_535_32965" style="mask-type:luminance" maskUnits="userSpaceOnUse" x="0" y="0" width="84" height="36">
<path d="M83.3904 0.921387H0.397583V35.3461H83.3904V0.921387Z" fill="white"/>
</mask>
<g mask="url(#mask3_535_32965)">
<path d="M35.3216 17.7137H18.2738V5.29382H29.8697L29.8802 5.30407C33.2942 8.52945 35.2769 13.0388 35.3213 17.6763L35.3216 17.7137ZM18.348 17.6393H35.2466C35.192 13.0404 33.2231 8.57058 29.84 5.36873H18.348V17.6393Z" fill="#020203"/>
</g>
<mask id="mask4_535_32965" style="mask-type:luminance" maskUnits="userSpaceOnUse" x="0" y="0" width="84" height="36">
<path d="M83.3904 0.921387H0.397583V35.3461H83.3904V0.921387Z" fill="white"/>
</mask>
<g mask="url(#mask4_535_32965)">
<path fill-rule="evenodd" clip-rule="evenodd" d="M42.3116 16.1705V19.9118H43.242V18.3925H43.5102C44.0134 18.3925 44.1616 19.1109 44.5609 19.9118H45.5841C45.0585 18.8148 44.9436 18.354 44.5609 18.1621C44.9873 17.9642 45.2009 17.6568 45.2009 17.2459C45.2009 16.6861 44.7467 16.1705 43.9807 16.1705H42.3116ZM43.242 16.8559H43.7126C44.0632 16.8559 44.2436 16.999 44.2436 17.2789C44.2436 17.5969 43.9915 17.7064 43.7345 17.7064H43.242V16.8559Z" fill="#020203"/>
</g>
<mask id="mask5_535_32965" style="mask-type:luminance" maskUnits="userSpaceOnUse" x="0" y="0" width="84" height="36">
<path d="M83.3904 0.921387H0.397583V35.3461H83.3904V0.921387Z" fill="white"/>
</mask>
<g mask="url(#mask5_535_32965)">
<path fill-rule="evenodd" clip-rule="evenodd" d="M50.1449 18.0412C50.1449 17.1412 49.4174 16.1208 48.011 16.1208C46.6049 16.1208 45.8715 17.1356 45.8715 18.0412C45.8715 18.9954 46.6432 19.9607 48.011 19.9607C49.3519 19.9607 50.1449 19.0005 50.1449 18.0412ZM49.1875 18.0412C49.1875 18.7265 48.7168 19.1825 48.0108 19.1825C47.2994 19.1825 46.8291 18.7265 46.8291 18.0412C46.8291 17.3558 47.2994 16.8998 48.0108 16.8998C48.717 16.8998 49.1875 17.3558 49.1875 18.0412Z" fill="#020203"/>
</g>
<mask id="mask6_535_32965" style="mask-type:luminance" maskUnits="userSpaceOnUse" x="0" y="0" width="84" height="36">
<path d="M83.3904 0.921387H0.397583V35.3461H83.3904V0.921387Z" fill="white"/>
</mask>
<g mask="url(#mask6_535_32965)">
<path fill-rule="evenodd" clip-rule="evenodd" d="M52.8859 16.1705H51.8078L50.3029 19.9118H51.2881L51.5673 19.1707H53.2359L53.5426 19.9118H54.5439L52.8859 16.1705ZM52.9624 18.5185H51.8132L52.3607 17.0641L52.9624 18.5185Z" fill="#020203"/>
</g>
<mask id="mask7_535_32965" style="mask-type:luminance" maskUnits="userSpaceOnUse" x="0" y="0" width="84" height="36">
<path d="M83.3904 0.921387H0.397583V35.3461H83.3904V0.921387Z" fill="white"/>
</mask>
<g mask="url(#mask7_535_32965)">
<path fill-rule="evenodd" clip-rule="evenodd" d="M55.0707 16.1705V19.9118H56.6141C58.1025 19.9118 58.7811 19.1219 58.7811 18.0465C58.7811 17.0207 58.0807 16.1705 56.718 16.1705H55.0707ZM56.0013 16.8559H56.5975C57.4784 16.8559 57.8235 17.3996 57.8235 18.0412C57.8235 18.5897 57.5445 19.2263 56.6088 19.2263H56.0013V16.8559Z" fill="#020203"/>
</g>
<mask id="mask8_535_32965" style="mask-type:luminance" maskUnits="userSpaceOnUse" x="0" y="0" width="84" height="36">
<path d="M83.3904 0.921387H0.397583V35.3461H83.3904V0.921387Z" fill="white"/>
</mask>
<g mask="url(#mask8_535_32965)">
<path d="M63.6729 16.4121C63.2019 16.2089 62.8242 16.1208 62.4084 16.1208C61.5441 16.1208 60.9856 16.5493 60.9856 17.1969C60.9856 18.5404 62.8847 18.3155 62.8847 18.9293C62.8847 19.149 62.6933 19.2753 62.3376 19.2753C61.9272 19.2753 61.5987 19.149 61.0625 18.7924V19.5993C61.4344 19.7912 61.7575 19.961 62.4086 19.961C63.2404 19.961 63.8425 19.5442 63.8425 18.8259C63.8425 17.5202 61.9434 17.679 61.9434 17.114C61.9434 16.928 62.1571 16.8073 62.4905 16.8073C62.8085 16.8073 63.131 16.9001 63.6729 17.1412V16.4121Z" fill="#020203"/>
</g>
<mask id="mask9_535_32965" style="mask-type:luminance" maskUnits="userSpaceOnUse" x="0" y="0" width="84" height="36">
<path d="M83.3904 0.921387H0.397583V35.3461H83.3904V0.921387Z" fill="white"/>
</mask>
<g mask="url(#mask9_535_32965)">
<path fill-rule="evenodd" clip-rule="evenodd" d="M66.7472 16.1705H65.6691L64.1642 19.9118H65.1494L65.4283 19.1707H67.0972L67.4036 19.9118H68.4049L66.7472 16.1705ZM66.8242 18.5185H65.675L66.2218 17.0641L66.8242 18.5185Z" fill="#020203"/>
</g>
<mask id="mask10_535_32965" style="mask-type:luminance" maskUnits="userSpaceOnUse" x="0" y="0" width="84" height="36">
<path d="M83.3904 0.921387H0.397583V35.3461H83.3904V0.921387Z" fill="white"/>
</mask>
<g mask="url(#mask10_535_32965)">
<path d="M71.5067 16.1705H68.9353V19.9118H69.8653V18.3753H71.5067V17.6899H69.8653V16.8559H71.5067V16.1705Z" fill="#020203"/>
</g>
<mask id="mask11_535_32965" style="mask-type:luminance" maskUnits="userSpaceOnUse" x="0" y="0" width="84" height="36">
<path d="M83.3904 0.921387H0.397583V35.3461H83.3904V0.921387Z" fill="white"/>
</mask>
<g mask="url(#mask11_535_32965)">
<path d="M75.0941 19.2263H73.2719V18.3263H74.9737V17.6406H73.2719V16.8559H75.0558V16.1705H72.3413V19.9116H75.0941V19.2263Z" fill="#020203"/>
</g>
<mask id="mask12_535_32965" style="mask-type:luminance" maskUnits="userSpaceOnUse" x="0" y="0" width="84" height="36">
<path d="M83.3904 0.921387H0.397583V35.3461H83.3904V0.921387Z" fill="white"/>
</mask>
<g mask="url(#mask12_535_32965)">
<path d="M79.2687 16.1705H75.6353V16.8559H76.9875V19.9118H77.9175V16.8559H79.2687V16.1705Z" fill="#020203"/>
</g>
<mask id="mask13_535_32965" style="mask-type:luminance" maskUnits="userSpaceOnUse" x="0" y="0" width="84" height="36">
<path d="M83.3904 0.921387H0.397583V35.3461H83.3904V0.921387Z" fill="white"/>
</mask>
<g mask="url(#mask13_535_32965)">
<path d="M80.9904 19.9118H81.9207V18.1621L83.3925 16.1705H82.2713L81.4551 17.3447L80.6463 16.1705H79.5187L80.9904 18.1621V19.9118Z" fill="#020203"/>
</g>
<mask id="mask14_535_32965" style="mask-type:luminance" maskUnits="userSpaceOnUse" x="0" y="0" width="84" height="36">
<path d="M83.3904 0.921387H0.397583V35.3461H83.3904V0.921387Z" fill="white"/>
</mask>
<g mask="url(#mask14_535_32965)">
<path d="M54.522 11.7913H53.5108V12.1813H54.0894V12.8006C53.8818 12.867 53.6696 12.9201 53.4354 12.9201C52.72 12.9201 52.216 12.446 52.216 11.7732C52.216 11.1182 52.7246 10.6168 53.378 10.6168C53.7407 10.6168 54.1069 10.7192 54.4606 10.914V10.476C53.9877 10.2767 53.7407 10.2188 53.3872 10.2188C52.4682 10.2188 51.7704 10.8964 51.7704 11.7865C51.7704 12.672 52.4507 13.3186 53.3738 13.3186C53.7935 13.3186 54.1203 13.2479 54.5222 13.0706L54.522 11.7913Z" fill="#020203"/>
</g>
<mask id="mask15_535_32965" style="mask-type:luminance" maskUnits="userSpaceOnUse" x="0" y="0" width="84" height="36">
<path d="M83.3904 0.921387H0.397583V35.3461H83.3904V0.921387Z" fill="white"/>
</mask>
<g mask="url(#mask15_535_32965)">
<path d="M56.4965 10.2588H56.064V13.2795H57.8572V12.8894H56.4965V10.2588Z" fill="#020203"/>
</g>
<mask id="mask16_535_32965" style="mask-type:luminance" maskUnits="userSpaceOnUse" x="0" y="0" width="84" height="36">
<path d="M83.3904 0.921387H0.397583V35.3461H83.3904V0.921387Z" fill="white"/>
</mask>
<g mask="url(#mask16_535_32965)">
<path fill-rule="evenodd" clip-rule="evenodd" d="M59.0118 11.7685C59.0118 12.5882 59.6343 13.3186 60.6196 13.3186C61.6402 13.3186 62.2496 12.5842 62.2496 11.7685C62.2496 10.9273 61.6224 10.2188 60.6283 10.2188C59.6519 10.2188 59.0118 10.9321 59.0118 11.7685ZM59.4579 11.7685C59.4579 11.1045 59.9572 10.617 60.6283 10.617C61.3046 10.617 61.8036 11.1045 61.8036 11.7685C61.8036 12.4283 61.3048 12.9203 60.6283 12.9203C59.9572 12.9203 59.4579 12.4283 59.4579 11.7685Z" fill="#020203"/>
</g>
<mask id="mask17_535_32965" style="mask-type:luminance" maskUnits="userSpaceOnUse" x="0" y="0" width="84" height="36">
<path d="M83.3904 0.921387H0.397583V35.3461H83.3904V0.921387Z" fill="white"/>
</mask>
<g mask="url(#mask17_535_32965)">
<path fill-rule="evenodd" clip-rule="evenodd" d="M63.6996 13.2796H64.7335C65.4885 13.2796 65.7666 12.8452 65.7666 12.4733C65.7666 12.0659 65.4928 11.7689 65.0424 11.6845V11.6761C65.3562 11.5477 65.5018 11.3444 65.5018 11.0296C65.5018 10.6488 65.2233 10.2588 64.574 10.2588H63.6997V13.2796H63.6996ZM64.1326 10.6487H64.5296C64.9281 10.6487 65.0559 10.8438 65.0559 11.0695C65.0559 11.3928 64.848 11.5519 64.4195 11.5519H64.1326V10.6487ZM64.1326 11.9419H64.654C65.1089 11.9419 65.3204 12.136 65.3204 12.4104C65.3204 12.6372 65.1839 12.8896 64.6756 12.8896H64.1324V11.9419H64.1326Z" fill="#020203"/>
</g>
<mask id="mask18_535_32965" style="mask-type:luminance" maskUnits="userSpaceOnUse" x="0" y="0" width="84" height="36">
<path d="M83.3904 0.921387H0.397583V35.3461H83.3904V0.921387Z" fill="white"/>
</mask>
<g mask="url(#mask18_535_32965)">
<path fill-rule="evenodd" clip-rule="evenodd" d="M68.455 10.2411H68.1502L66.8557 13.2789H67.2981L67.6773 12.3885H68.9582L69.3609 13.2789H69.8018L68.455 10.2411ZM68.2961 10.9048L68.7815 11.9985H67.8457L68.2961 10.9048Z" fill="#020203"/>
</g>
<mask id="mask19_535_32965" style="mask-type:luminance" maskUnits="userSpaceOnUse" x="0" y="0" width="84" height="36">
<path d="M83.3904 0.921387H0.397583V35.3461H83.3904V0.921387Z" fill="white"/>
</mask>
<g mask="url(#mask19_535_32965)">
<path d="M71.4794 10.2588H71.0468V13.2795H72.8402V12.8894H71.4794V10.2588Z" fill="#020203"/>
</g>
<mask id="mask20_535_32965" style="mask-type:luminance" maskUnits="userSpaceOnUse" x="0" y="0" width="84" height="36">
<path d="M83.3904 0.921387H0.397583V35.3461H83.3904V0.921387Z" fill="white"/>
</mask>
<g mask="url(#mask20_535_32965)">
<path fill-rule="evenodd" clip-rule="evenodd" d="M44.7148 22.9523V25.9853H45.1496V24.674H45.6024C46.3036 24.674 46.623 24.2998 46.623 23.8243C46.623 23.3444 46.3211 22.9521 45.6602 22.9521H44.7148V22.9523ZM45.1496 23.3446H45.6602C46.0547 23.3446 46.1747 23.5842 46.1747 23.8068C46.1747 24.1092 45.9661 24.2827 45.6423 24.2827H45.1497V23.3446H45.1496Z" fill="#020203"/>
</g>
<mask id="mask21_535_32965" style="mask-type:luminance" maskUnits="userSpaceOnUse" x="0" y="0" width="84" height="36">
<path d="M83.3904 0.921387H0.397583V35.3461H83.3904V0.921387Z" fill="white"/>
</mask>
<g mask="url(#mask21_535_32965)">
<path fill-rule="evenodd" clip-rule="evenodd" d="M48.8263 22.9346H48.5204L47.2205 25.9852H47.664L48.0454 25.0918H49.3322L49.7363 25.9852H50.1798L48.8263 22.9346ZM48.6666 23.6015L49.1545 24.6996H48.214L48.6666 23.6015Z" fill="#020203"/>
</g>
<mask id="mask22_535_32965" style="mask-type:luminance" maskUnits="userSpaceOnUse" x="0" y="0" width="84" height="36">
<path d="M83.3904 0.921387H0.397583V35.3461H83.3904V0.921387Z" fill="white"/>
</mask>
<g mask="url(#mask22_535_32965)">
<path fill-rule="evenodd" clip-rule="evenodd" d="M51.4436 22.9521V25.9851H51.8783V24.6692H52.0607C52.2818 24.6692 52.464 24.7404 52.8633 25.3637L53.2625 25.9851H53.7811C53.5732 25.6972 53.4974 25.5945 53.3694 25.3849C53.1385 25.0074 52.9697 24.7271 52.6948 24.5452C53.0183 24.416 53.2003 24.1533 53.2003 23.8019C53.2003 23.2775 52.8189 22.9521 52.2063 22.9521H51.4436ZM51.8783 23.3264H52.1576C52.5792 23.3264 52.7475 23.4992 52.7523 23.7839C52.7568 24.0375 52.6235 24.2782 52.1576 24.2782H51.8783V23.3264Z" fill="#020203"/>
</g>
<mask id="mask23_535_32965" style="mask-type:luminance" maskUnits="userSpaceOnUse" x="0" y="0" width="84" height="36">
<path d="M83.3904 0.921387H0.397583V35.3461H83.3904V0.921387Z" fill="white"/>
</mask>
<g mask="url(#mask23_535_32965)">
<path d="M56.8975 22.9521H54.369V23.3443H55.416V25.9851H55.8508V23.3443H56.8975V22.9521Z" fill="#020203"/>
</g>
<mask id="mask24_535_32965" style="mask-type:luminance" maskUnits="userSpaceOnUse" x="0" y="0" width="84" height="36">
<path d="M83.3904 0.921387H0.397583V35.3461H83.3904V0.921387Z" fill="white"/>
</mask>
<g mask="url(#mask24_535_32965)">
<path d="M61.021 22.9521H60.6129V25.3009L58.5631 22.9521H58.2173V25.9851H58.625V23.6503L60.6485 25.9851H61.021V22.9521Z" fill="#020203"/>
</g>
<mask id="mask25_535_32965" style="mask-type:luminance" maskUnits="userSpaceOnUse" x="0" y="0" width="84" height="36">
<path d="M83.3904 0.921387H0.397583V35.3461H83.3904V0.921387Z" fill="white"/>
</mask>
<g mask="url(#mask25_535_32965)">
<path d="M64.3273 22.9521H62.6102V25.9851H64.3666V25.5945H63.045V24.6511H64.282V24.2601H63.045V23.3443H64.3273V22.9521Z" fill="#020203"/>
</g>
<mask id="mask26_535_32965" style="mask-type:luminance" maskUnits="userSpaceOnUse" x="0" y="0" width="84" height="36">
<path d="M83.3904 0.921387H0.397583V35.3461H83.3904V0.921387Z" fill="white"/>
</mask>
<g mask="url(#mask26_535_32965)">
<path fill-rule="evenodd" clip-rule="evenodd" d="M65.7502 22.9521V25.9851H66.1855V24.6692H66.367C66.5888 24.6692 66.7706 24.7404 67.1699 25.3637L67.5692 25.9851H68.0886C67.8804 25.6972 67.8045 25.5945 67.6757 25.3849C67.4451 25.0074 67.2764 24.7271 67.0019 24.5452C67.3251 24.416 67.5069 24.1533 67.5069 23.8019C67.5069 23.2775 67.1255 22.9521 66.5132 22.9521H65.7502ZM66.1853 23.3264H66.4645C66.8857 23.3264 67.0545 23.4992 67.0589 23.7839C67.0637 24.0375 66.9304 24.2782 66.4645 24.2782H66.1853V23.3264Z" fill="#020203"/>
</g>
<mask id="mask27_535_32965" style="mask-type:luminance" maskUnits="userSpaceOnUse" x="0" y="0" width="84" height="36">
<path d="M83.3904 0.921387H0.397583V35.3461H83.3904V0.921387Z" fill="white"/>
</mask>
<g mask="url(#mask27_535_32965)">
<path d="M70.7714 23.1259C70.5581 22.9832 70.3279 22.9121 70.0966 22.9121C69.5429 22.9121 69.1787 23.2276 69.1787 23.7215C69.1787 24.5533 70.4874 24.6248 70.4874 25.2514C70.4874 25.4206 70.3322 25.6344 69.9952 25.6344C69.6973 25.6344 69.418 25.4789 69.1966 25.1938V25.7457C69.4492 25.9365 69.7152 26.0256 70.0434 26.0256C70.5316 26.0256 70.8907 25.6789 70.8907 25.2026C70.8907 24.2373 69.582 24.2465 69.582 23.6639C69.582 23.45 69.7819 23.3036 70.0618 23.3036C70.2656 23.3036 70.5137 23.3748 70.7714 23.6195V23.1259Z" fill="#020203"/>
</g>
<mask id="mask28_535_32965" style="mask-type:luminance" maskUnits="userSpaceOnUse" x="0" y="0" width="84" height="36">
<path d="M83.3904 0.921387H0.397583V35.3461H83.3904V0.921387Z" fill="white"/>
</mask>
<g mask="url(#mask28_535_32965)">
<path d="M74.8449 22.9521H74.4097V24.2732H72.7145V22.9521H72.2804V25.9851H72.7145V24.6647H74.4097V25.9851H74.8449V22.9521Z" fill="#020203"/>
</g>
<mask id="mask29_535_32965" style="mask-type:luminance" maskUnits="userSpaceOnUse" x="0" y="0" width="84" height="36">
<path d="M83.3904 0.921387H0.397583V35.3461H83.3904V0.921387Z" fill="white"/>
</mask>
<g mask="url(#mask29_535_32965)">
<path d="M76.8672 22.9521H76.4331V25.9851H76.8672V22.9521Z" fill="#020203"/>
</g>
<mask id="mask30_535_32965" style="mask-type:luminance" maskUnits="userSpaceOnUse" x="0" y="0" width="84" height="36">
<path d="M83.3904 0.921387H0.397583V35.3461H83.3904V0.921387Z" fill="white"/>
</mask>
<g mask="url(#mask30_535_32965)">
<path fill-rule="evenodd" clip-rule="evenodd" d="M78.4229 22.9523V25.9853H78.8576V24.674H79.3096C80.0111 24.674 80.3299 24.2998 80.3299 23.8243C80.3299 23.3444 80.0287 22.9521 79.3674 22.9521H78.4229V22.9523ZM78.8578 23.3446H79.3675C79.7628 23.3446 79.8824 23.5842 79.8824 23.8068C79.8824 24.1092 79.6742 24.2827 79.35 24.2827H78.8578V23.3446Z" fill="#020203"/>
</g>
<mask id="mask31_535_32965" style="mask-type:luminance" maskUnits="userSpaceOnUse" x="0" y="0" width="84" height="36">
<path d="M83.3904 0.921387H0.397583V35.3461H83.3904V0.921387Z" fill="white"/>
</mask>
<g mask="url(#mask31_535_32965)">
<path d="M14.2717 9.87744L14.2721 9.89932L14.2717 9.87744Z" fill="white"/>
</g>
<mask id="mask32_535_32965" style="mask-type:luminance" maskUnits="userSpaceOnUse" x="0" y="0" width="84" height="36">
<path d="M83.3904 0.921387H0.397583V35.3461H83.3904V0.921387Z" fill="white"/>
</mask>
<g mask="url(#mask32_535_32965)">
<path d="M18.5511 0.711034C18.5511 0.711034 17.7602 0.671021 17.4078 0.671021C8.04056 0.671181 0.509636 8.29657 0.436035 17.6691H4.40474H5.13229H5.92497H8.18298H8.82702H10.1108H10.9932H13.8156H14.4755H16.1641H17.4096V5.33864H7.85249C10.6738 2.62414 14.3819 0.935267 18.5511 0.711034Z" fill="#E83B44"/>
</g>
<mask id="mask33_535_32965" style="mask-type:luminance" maskUnits="userSpaceOnUse" x="0" y="0" width="84" height="36">
<path d="M83.3904 0.921387H0.397583V35.3461H83.3904V0.921387Z" fill="white"/>
</mask>
<g mask="url(#mask33_535_32965)">
<path d="M17.1075 35.5571C17.1075 35.5571 17.8985 35.5972 18.2508 35.5972C27.618 35.5972 35.149 27.9718 35.2226 18.5992H31.2539H30.5264H29.7337H27.4757H26.8316H25.5479H24.6655H21.8431H21.1832H19.4945H18.2491V30.9295H27.8062C24.9849 33.6442 21.2768 35.3329 17.1075 35.5571Z" fill="#E83B44"/>
</g>
<mask id="mask34_535_32965" style="mask-type:luminance" maskUnits="userSpaceOnUse" x="0" y="0" width="84" height="36">
<path d="M83.3904 0.921387H0.397583V35.3461H83.3904V0.921387Z" fill="white"/>
</mask>
<g mask="url(#mask34_535_32965)">
<path d="M23.9302 13.9479H28.0949V13.6518H23.9302V13.9479ZM19.9594 13.9581L20.2675 13.9615V11.8926C20.2675 11.5812 20.3466 11.1717 20.5153 10.9483L21.6433 9.45694C21.9811 9.00351 22.4623 8.52511 23.1306 8.52511L26.0371 8.5376C27.0366 8.5376 27.4486 8.71157 28.0632 9.46942L29.1673 10.6376L30.4936 10.8864C31.2973 11.0082 31.8012 11.4587 31.8012 12.129L31.8066 13.9616L32.1147 13.9583V12.3401C32.1147 11.2366 31.7568 10.7897 30.6494 10.614L29.292 10.3971L28.6033 9.58482C27.8066 8.65043 27.3066 8.21045 26.0641 8.21045H23.3559C22.4511 8.21045 21.911 8.56929 21.3774 9.25975L20.2495 10.7494C20.047 11.0202 19.9592 11.3925 19.9592 11.8595L19.9594 13.9581Z" fill="#E83B44"/>
</g>
<mask id="mask35_535_32965" style="mask-type:luminance" maskUnits="userSpaceOnUse" x="0" y="0" width="84" height="36">
<path d="M83.3904 0.921387H0.397583V35.3461H83.3904V0.921387Z" fill="white"/>
</mask>
<g mask="url(#mask35_535_32965)">
<path fill-rule="evenodd" clip-rule="evenodd" d="M12.5736 13.1417H12.8861H13.1431H13.4555V13.2749L13.7294 16.567H13.4555H13.1599H12.8861H12.8583L12.5736 13.1417Z" fill="#E83B44"/>
</g>
<mask id="mask36_535_32965" style="mask-type:luminance" maskUnits="userSpaceOnUse" x="0" y="0" width="84" height="36">
<path d="M83.3904 0.921387H0.397583V35.3461H83.3904V0.921387Z" fill="white"/>
</mask>
<g mask="url(#mask36_535_32965)">
<path d="M13.8502 16.6794H12.7551L12.4518 13.0304H13.567V13.2708L13.8502 16.6794ZM12.9604 16.4557H13.6075L13.3436 13.2754V13.2541H12.6943L12.9604 16.4557Z" fill="white"/>
</g>
<mask id="mask37_535_32965" style="mask-type:luminance" maskUnits="userSpaceOnUse" x="0" y="0" width="84" height="36">
<path d="M83.3904 0.921387H0.397583V35.3461H83.3904V0.921387Z" fill="white"/>
</mask>
<g mask="url(#mask37_535_32965)">
<path fill-rule="evenodd" clip-rule="evenodd" d="M9.72448 13.1417L9.75226 13.4777V13.1417H10.3218V13.2749L10.5956 16.567H10.3218H10.0261H10.0091H9.75226H9.43982L9.72448 13.1417Z" fill="#E83B44"/>
</g>
<mask id="mask38_535_32965" style="mask-type:luminance" maskUnits="userSpaceOnUse" x="0" y="0" width="84" height="36">
<path d="M83.3904 0.921387H0.397583V35.3461H83.3904V0.921387Z" fill="white"/>
</mask>
<g mask="url(#mask38_535_32965)">
<path d="M10.7134 16.6787H9.31494L9.60998 13.132H9.63744V13.0295H10.4301V13.2699L10.7134 16.6787ZM9.55762 16.455H10.4707L10.2068 13.2747V13.2535H9.86048V13.4777L9.80492 13.4802L9.55762 16.455Z" fill="white"/>
</g>
<mask id="mask39_535_32965" style="mask-type:luminance" maskUnits="userSpaceOnUse" x="0" y="0" width="84" height="36">
<path d="M83.3904 0.921387H0.397583V35.3461H83.3904V0.921387Z" fill="white"/>
</mask>
<g mask="url(#mask39_535_32965)">
<path fill-rule="evenodd" clip-rule="evenodd" d="M10.9971 13.1417H11.3097H11.5666H11.8792V13.2749L12.1528 16.567H11.8792H11.5835H11.3097H11.2819L10.9971 13.1417Z" fill="#E83B44"/>
</g>
<mask id="mask40_535_32965" style="mask-type:luminance" maskUnits="userSpaceOnUse" x="0" y="0" width="84" height="36">
<path d="M83.3904 0.921387H0.397583V35.3461H83.3904V0.921387Z" fill="white"/>
</mask>
<g mask="url(#mask40_535_32965)">
<path d="M12.2738 16.6794H11.1787L10.8754 13.0304H11.9906V13.2708L12.2738 16.6794ZM11.3842 16.4557H12.0313L11.7674 13.2754V13.2541H11.118L11.3842 16.4557Z" fill="white"/>
</g>
<mask id="mask41_535_32965" style="mask-type:luminance" maskUnits="userSpaceOnUse" x="0" y="0" width="84" height="36">
<path d="M83.3904 0.921387H0.397583V35.3461H83.3904V0.921387Z" fill="white"/>
</mask>
<g mask="url(#mask41_535_32965)">
<path fill-rule="evenodd" clip-rule="evenodd" d="M7.33372 13.1417H7.02112H6.76423H6.45163V13.2749L6.17798 16.567H6.45163H6.74747H7.02112H6.9721H7.0489L7.33372 13.1417Z" fill="#E83B44"/>
</g>
<mask id="mask42_535_32965" style="mask-type:luminance" maskUnits="userSpaceOnUse" x="0" y="0" width="84" height="36">
<path d="M83.3904 0.921387H0.397583V35.3461H83.3904V0.921387Z" fill="white"/>
</mask>
<g mask="url(#mask42_535_32965)">
<path d="M7.14805 16.6787H6.05298L6.33669 13.2699V13.0295H7.4514L7.14805 16.6787ZM6.29565 16.455H6.94274L7.20872 13.2536H6.5594L6.55909 13.284L6.29565 16.455Z" fill="white"/>
</g>
<mask id="mask43_535_32965" style="mask-type:luminance" maskUnits="userSpaceOnUse" x="0" y="0" width="84" height="36">
<path d="M83.3904 0.921387H0.397583V35.3461H83.3904V0.921387Z" fill="white"/>
</mask>
<g mask="url(#mask43_535_32965)">
<path fill-rule="evenodd" clip-rule="evenodd" d="M8.97435 13.1417H8.66174H8.40486H8.09241V13.2749L7.8186 16.567H8.09241H8.38809H8.66174H8.60283H8.68968L8.97435 13.1417Z" fill="#E83B44"/>
</g>
<mask id="mask44_535_32965" style="mask-type:luminance" maskUnits="userSpaceOnUse" x="0" y="0" width="84" height="36">
<path d="M83.3904 0.921387H0.397583V35.3461H83.3904V0.921387Z" fill="white"/>
</mask>
<g mask="url(#mask44_535_32965)">
<path d="M8.79185 16.6787H7.69678L7.98048 13.2699V13.0295H9.0952L8.79185 16.6787ZM7.93945 16.455H8.58653L8.85252 13.2536H8.2032L8.20288 13.284L7.93945 16.455Z" fill="white"/>
</g>
<mask id="mask45_535_32965" style="mask-type:luminance" maskUnits="userSpaceOnUse" x="0" y="0" width="84" height="36">
<path d="M83.3904 0.921387H0.397583V35.3461H83.3904V0.921387Z" fill="white"/>
</mask>
<g mask="url(#mask45_535_32965)">
<path fill-rule="evenodd" clip-rule="evenodd" d="M14.0787 10.439L12.9742 10.15C12.9742 10.15 12.3498 9.13874 12.038 8.80199C11.7258 8.46476 10.9332 8.17603 10.7647 8.17603C10.5974 8.17603 9.08419 9.66852 9.08419 9.66852C9.08419 9.66852 8.77718 11.7374 9.04204 11.7374C9.30547 11.7374 9.42043 11.8364 9.42043 11.8364L9.78013 10.1256L10.3086 9.47517L10.4045 11.6181L8.89197 14.3621C8.89197 14.3621 9.10862 14.9399 9.44421 14.9399C9.78013 14.9399 11.1252 12.1236 11.1252 12.1236L12.2538 12.9418C12.2538 12.9418 12.6143 14.9882 12.9499 15.0364C13.2863 15.0849 13.7423 15.0849 13.7423 15.0849L13.1179 12.5328L11.7498 11.1849L11.8687 10.0773L12.638 10.9196C12.638 10.9196 13.6462 11.1849 13.9342 10.9923C14.2233 10.7998 14.0787 10.439 14.0787 10.439Z" fill="#E83B44"/>
</g>
<mask id="mask46_535_32965" style="mask-type:luminance" maskUnits="userSpaceOnUse" x="0" y="0" width="84" height="36">
<path d="M83.3904 0.921387H0.397583V35.3461H83.3904V0.921387Z" fill="white"/>
</mask>
<g mask="url(#mask46_535_32965)">
<path d="M13.8855 15.1964H13.7431C13.7241 15.1964 13.275 15.1956 12.9346 15.147C12.58 15.0959 12.2952 13.8041 12.1524 13.0058L11.168 12.2921C11.0553 12.524 10.7928 13.057 10.5096 13.5844C9.72121 15.0516 9.54128 15.0516 9.44452 15.0516C9.04347 15.0516 8.81325 14.4679 8.78802 14.4011L8.77014 14.3531L10.2926 11.5916L10.211 9.77321L9.88453 10.1749L9.49146 12.0442L9.34841 11.921C9.34618 11.9195 9.25438 11.8491 9.04251 11.8491C8.99462 11.8491 8.94991 11.8278 8.91655 11.7889C8.71714 11.557 8.89052 10.2172 8.97434 9.65173L8.97977 9.61459L9.00643 9.58818C10.0319 8.57665 10.6241 8.06384 10.7654 8.06384C10.9689 8.06384 11.786 8.36426 12.1202 8.72566C12.4045 9.0328 12.9271 9.86187 13.046 10.0523L14.1615 10.3448L14.1828 10.3968C14.2442 10.5509 14.2849 10.8925 13.9969 11.0847C13.9072 11.1445 13.7723 11.1735 13.5841 11.1735C13.1717 11.1735 12.6328 11.0333 12.6102 11.0275L12.5784 11.0191L11.954 10.3348L11.8673 11.1423L13.2192 12.4749L13.8855 15.1964ZM11.0829 11.9542L12.3568 12.8774L12.3645 12.9222C12.5457 13.9499 12.8227 14.8678 12.9697 14.9263C13.1787 14.9564 13.441 14.9671 13.6003 14.9706L13.0181 12.5898L11.634 11.226L11.7852 9.81866L12.6988 10.8188C12.8185 10.8486 13.2547 10.9502 13.5844 10.9502C13.7688 10.9502 13.8449 10.9179 13.8735 10.8989C14.0295 10.7947 14.0115 10.6181 13.991 10.5312L12.9038 10.2465L12.8803 10.2084C12.8741 10.1985 12.2578 9.20278 11.957 8.87803C11.6642 8.56097 10.9316 8.3012 10.7772 8.28808C10.6257 8.35594 9.8633 9.05857 9.18987 9.72151C9.07317 10.5221 9.00068 11.4426 9.07716 11.626C9.18876 11.6293 9.27625 11.6487 9.34219 11.6714L9.67778 10.0759L10.4079 9.17669L10.5184 11.6444L9.01633 14.3693C9.08434 14.5237 9.25246 14.8209 9.4383 14.8278C9.65064 14.7412 10.4092 13.3651 11.0251 12.0751L11.0829 11.9542Z" fill="white"/>
</g>
<mask id="mask47_535_32965" style="mask-type:luminance" maskUnits="userSpaceOnUse" x="0" y="0" width="84" height="36">
<path d="M83.3904 0.921387H0.397583V35.3461H83.3904V0.921387Z" fill="white"/>
</mask>
<g mask="url(#mask47_535_32965)">
<path fill-rule="evenodd" clip-rule="evenodd" d="M11.6607 6.52185C11.2288 6.52185 10.8785 6.87301 10.8785 7.30515C10.8785 7.73841 11.2288 8.08877 11.6607 8.08877C12.0922 8.08877 12.442 7.73841 12.442 7.30515C12.442 6.87301 12.0922 6.52185 11.6607 6.52185Z" fill="#E83B44"/>
</g>
<mask id="mask48_535_32965" style="mask-type:luminance" maskUnits="userSpaceOnUse" x="0" y="0" width="84" height="36">
<path d="M83.3904 0.921387H0.397583V35.3461H83.3904V0.921387Z" fill="white"/>
</mask>
<g mask="url(#mask48_535_32965)">
<path d="M11.6601 8.20062C11.1676 8.20062 10.7664 7.79889 10.7664 7.30496C10.7664 6.81152 11.1674 6.40979 11.6601 6.40979C12.1526 6.40979 12.5531 6.81152 12.5531 7.30496C12.5531 7.79889 12.1526 8.20062 11.6601 8.20062ZM11.6601 6.6337C11.2905 6.6337 10.9897 6.93492 10.9897 7.30512C10.9897 7.67565 11.2905 7.97735 11.6601 7.97735C12.0294 7.97735 12.3302 7.67581 12.3302 7.30512C12.3302 6.93492 12.0294 6.6337 11.6601 6.6337Z" fill="white"/>
</g>
<mask id="mask49_535_32965" style="mask-type:luminance" maskUnits="userSpaceOnUse" x="0" y="0" width="84" height="36">
<path d="M83.3904 0.921387H0.397583V35.3461H83.3904V0.921387Z" fill="white"/>
</mask>
<g mask="url(#mask49_535_32965)">
<path fill-rule="evenodd" clip-rule="evenodd" d="M9.42436 11.7859L8.68803 11.5929C8.68803 11.5929 8.27149 10.9189 8.0641 10.6943C7.85591 10.4698 7.32745 10.2772 7.21537 10.2772C7.10346 10.2772 6.09476 11.2723 6.09476 11.2723C6.09476 11.2723 6.07863 12.4757 6.25505 12.4757H6.60709L6.55871 11.5772L6.91107 11.1434L6.97477 12.5721L5.96655 14.4013C5.96655 14.4013 6.11072 14.7865 6.33472 14.7865C6.55871 14.7865 7.45534 12.9091 7.45534 12.9091L8.20779 13.4543C8.20779 13.4543 8.44823 14.8187 8.67191 14.8506C8.89622 14.8829 9.20005 14.8829 9.20005 14.8829L8.78398 13.1812L7.87204 12.2827L7.95138 11.5445L8.4642 12.1058C8.4642 12.1058 9.1365 12.2827 9.32825 12.1542C9.52063 12.0261 9.42436 11.7859 9.42436 11.7859Z" fill="#E83B44"/>
</g>
<mask id="mask50_535_32965" style="mask-type:luminance" maskUnits="userSpaceOnUse" x="0" y="0" width="84" height="36">
<path d="M83.3904 0.921387H0.397583V35.3461H83.3904V0.921387Z" fill="white"/>
</mask>
<g mask="url(#mask50_535_32965)">
<path d="M9.33991 14.9956H9.1975C9.18473 14.9956 8.88282 14.9953 8.65324 14.9622C8.45495 14.9335 8.27006 14.4481 8.10322 13.5192L7.49494 13.0782C7.41144 13.2488 7.24907 13.5765 7.07441 13.9012C6.53861 14.8988 6.41424 14.8988 6.33185 14.8988C6.03937 14.8988 5.877 14.488 5.85943 14.4414L5.84155 14.3929L6.85967 12.546L6.80986 11.442L6.66968 11.6149L6.72205 12.5878H6.2525C6.22281 12.5878 6.1797 12.5793 6.13947 12.5387C5.98285 12.3794 5.97582 11.599 5.98029 11.2711L5.98109 11.2251L6.01398 11.1928C7.05525 10.1659 7.16541 10.1659 7.21251 10.1659C7.35269 10.1659 7.91451 10.3717 8.14282 10.619C8.32914 10.82 8.66393 11.3487 8.75653 11.4966L9.5042 11.6922L9.52511 11.7447C9.57014 11.857 9.59935 12.1067 9.38749 12.2483C9.32155 12.2924 9.22496 12.3136 9.09181 12.3136C8.81177 12.3136 8.4484 12.219 8.43307 12.2149L8.4013 12.2064L8.03314 11.8032L7.98588 12.2416L8.88218 13.1248L9.33991 14.9956ZM8.69539 14.7421C8.81257 14.7583 8.95227 14.7656 9.05477 14.7688L8.68038 13.2397L7.75262 12.3255L7.8639 11.2872L8.52088 12.0063C8.61236 12.0287 8.88506 12.09 9.09181 12.09C9.21251 12.09 9.25386 12.0688 9.26376 12.0622C9.338 12.0127 9.33959 11.9308 9.33113 11.8785L8.61412 11.6906L8.59065 11.6528C8.58618 11.6462 8.17746 10.9854 7.97949 10.7715C7.80244 10.5799 7.34087 10.4087 7.22704 10.3911C7.10953 10.4575 6.62945 10.9015 6.20301 11.3204C6.19966 11.7511 6.23223 12.2413 6.28859 12.3645H6.48656L6.44233 11.5404L7.00671 10.846L7.08511 12.5993L6.0879 14.4087C6.14027 14.5236 6.23462 14.6608 6.31876 14.6744C6.47139 14.572 6.96872 13.664 7.35189 12.8613L7.40968 12.7407L8.3071 13.3911L8.31509 13.4359C8.41503 14.0025 8.59033 14.6555 8.69539 14.7421Z" fill="white"/>
</g>
<mask id="mask51_535_32965" style="mask-type:luminance" maskUnits="userSpaceOnUse" x="0" y="0" width="84" height="36">
<path d="M83.3904 0.921387H0.397583V35.3461H83.3904V0.921387Z" fill="white"/>
</mask>
<g mask="url(#mask51_535_32965)">
<path fill-rule="evenodd" clip-rule="evenodd" d="M7.81139 9.17493C7.52369 9.17493 7.28979 9.40892 7.28979 9.69734C7.28979 9.98607 7.52369 10.2198 7.81139 10.2198C8.09909 10.2198 8.3325 9.98607 8.3325 9.69734C8.33266 9.40908 8.09909 9.17493 7.81139 9.17493Z" fill="#E83B44"/>
</g>
<mask id="mask52_535_32965" style="mask-type:luminance" maskUnits="userSpaceOnUse" x="0" y="0" width="84" height="36">
<path d="M83.3904 0.921387H0.397583V35.3461H83.3904V0.921387Z" fill="white"/>
</mask>
<g mask="url(#mask52_535_32965)">
<path d="M7.81045 10.3314C7.46128 10.3314 7.17773 10.0467 7.17773 9.69715C7.17773 9.3476 7.46144 9.06287 7.81045 9.06287C8.15929 9.06287 8.44284 9.3476 8.44284 9.69715C8.44284 10.0467 8.15929 10.3314 7.81045 10.3314ZM7.81045 9.28662C7.58422 9.28662 7.40061 9.47084 7.40061 9.69715C7.40061 9.92347 7.58438 10.1077 7.81045 10.1077C8.0362 10.1077 8.21996 9.92347 8.21996 9.69715C8.21996 9.47084 8.03636 9.28662 7.81045 9.28662Z" fill="white"/>
</g>
<mask id="mask53_535_32965" style="mask-type:luminance" maskUnits="userSpaceOnUse" x="0" y="0" width="84" height="36">
<path d="M83.3904 0.921387H0.397583V35.3461H83.3904V0.921387Z" fill="white"/>
</mask>
<g mask="url(#mask53_535_32965)">
<path d="M29.8109 28.3839C29.0343 28.3839 28.4022 27.7502 28.4022 26.9717C28.4022 26.1932 29.0343 25.5596 29.8109 25.5596C30.5874 25.5596 31.2195 26.1932 31.2195 26.9717C31.2195 27.7502 30.5874 28.3839 29.8109 28.3839ZM29.8109 25.8579C29.1983 25.8579 28.6998 26.3576 28.6998 26.9717C28.6998 27.5858 29.1983 28.0855 29.8109 28.0855C30.4235 28.0855 30.9219 27.5858 30.9219 26.9717C30.9221 26.3576 30.4235 25.8579 29.8109 25.8579Z" fill="white"/>
</g>
<mask id="mask54_535_32965" style="mask-type:luminance" maskUnits="userSpaceOnUse" x="0" y="0" width="84" height="36">
<path d="M83.3904 0.921387H0.397583V35.3461H83.3904V0.921387Z" fill="white"/>
</mask>
<g mask="url(#mask54_535_32965)">
<path d="M22.2458 28.3839C21.4692 28.3839 20.8372 27.7502 20.8372 26.9717C20.8372 26.1932 21.4692 25.5596 22.2458 25.5596C23.0224 25.5596 23.6544 26.1932 23.6544 26.9717C23.6544 27.7502 23.0224 28.3839 22.2458 28.3839ZM22.2458 25.8579C21.6332 25.8579 21.1348 26.3576 21.1348 26.9717C21.1348 27.5858 21.6332 28.0855 22.2458 28.0855C22.8584 28.0855 23.3568 27.5858 23.3568 26.9717C23.3568 26.3576 22.8584 25.8579 22.2458 25.8579Z" fill="white"/>
</g>
<mask id="mask55_535_32965" style="mask-type:luminance" maskUnits="userSpaceOnUse" x="0" y="0" width="84" height="36">
<path d="M83.3904 0.921387H0.397583V35.3461H83.3904V0.921387Z" fill="white"/>
</mask>
<g mask="url(#mask55_535_32965)">
<path d="M27.3264 27.6723H24.6445L24.6365 27.5321C24.4671 24.6531 20.9841 23.7613 20.949 23.7524L20.4366 23.6258L20.9391 23.4655C21.0096 23.4427 22.6804 22.9184 23.5442 23.4071C24.3057 23.8382 25.8842 23.534 26.2356 23.1191C26.6788 22.5956 28.1299 22.4338 28.9523 22.9911L28.7855 23.238C28.1197 22.7869 26.8129 22.8982 26.4627 23.3121C26.0016 23.857 24.2467 24.1471 23.3984 23.667C22.9079 23.3896 22.0552 23.5074 21.5177 23.6241C22.5197 23.9968 24.7042 25.0678 24.9231 27.3741H27.0757C27.1664 26.9213 27.547 25.3859 28.6483 24.5946C29.1626 24.2248 29.761 24.0719 30.4299 24.139C30.2147 23.5541 29.4974 21.9784 27.9135 21.617L27.9794 21.326C30.1006 21.81 30.763 24.1793 30.7901 24.2803L30.8509 24.5063L30.621 24.466C29.9356 24.3467 29.3302 24.4714 28.8219 24.837C27.6489 25.6801 27.3495 27.5281 27.3467 27.5463L27.3264 27.6723Z" fill="white"/>
</g>
<mask id="mask56_535_32965" style="mask-type:luminance" maskUnits="userSpaceOnUse" x="0" y="0" width="84" height="36">
<path d="M83.3904 0.921387H0.397583V35.3461H83.3904V0.921387Z" fill="white"/>
</mask>
<g mask="url(#mask56_535_32965)">
<path d="M15.0817 27.5345H14.353L14.3816 27.361C14.3937 27.2883 14.4062 27.2032 14.4062 27.121C14.4062 26.4749 13.8817 25.9491 13.2372 25.9491C12.5926 25.9491 12.0682 26.4749 12.0682 27.121C12.0682 27.2032 12.0806 27.2883 12.0923 27.3606L12.1212 27.5346H6.97375L7.00264 27.3606C7.01478 27.2883 7.02723 27.2036 7.02723 27.121C7.02723 26.4749 6.50276 25.9491 5.85824 25.9491C5.21371 25.9491 4.68924 26.4749 4.68924 27.121C4.68924 27.2032 4.7017 27.2883 4.71335 27.3606L4.74225 27.5346H4.5406C4.16765 27.5346 3.86462 27.2305 3.86462 26.857V22.1018C3.86462 21.7316 4.15855 21.4281 4.53358 21.4113L14.1986 21.411C14.7809 21.411 15.2801 21.8292 15.3858 22.4049L15.6896 24.2974C15.7347 24.6137 15.7573 24.9053 15.7573 25.1665V26.8571C15.7576 27.2302 15.4546 27.5345 15.0817 27.5345ZM14.698 27.2361H15.0815C15.2902 27.2361 15.4599 27.0658 15.4599 26.8568V25.1662C15.4599 24.9189 15.4383 24.6415 15.3955 24.3417L15.0928 22.4552C15.0138 22.0245 14.6372 21.7089 14.1988 21.7089H4.54076C4.33513 21.7185 4.16238 21.8945 4.16238 22.1015V26.8566C4.16238 27.014 4.25865 27.1494 4.39484 27.2067C4.39308 27.1783 4.39196 27.1499 4.39196 27.1209C4.39196 26.3104 5.05006 25.6508 5.8584 25.6508C6.66689 25.6508 7.32483 26.3105 7.32483 27.1209C7.32483 27.1601 7.32259 27.1987 7.3194 27.2361H11.7763C11.773 27.1987 11.7709 27.1601 11.7709 27.1209C11.7709 26.3104 12.4285 25.6508 13.2373 25.6508C14.0458 25.6508 14.7038 26.3105 14.7038 27.1209C14.7036 27.1603 14.7014 27.1987 14.698 27.2361ZM15.2174 25.1566H13.1755L12.2976 24.2768V21.9525H14.1988C14.5253 21.9525 14.8093 22.1938 14.8597 22.5143L15.1625 24.3894C15.1899 24.593 15.2174 24.7996 15.2174 25.0077V25.1566ZM13.2986 24.8584H14.9151C14.9067 24.7193 14.888 24.5793 14.8684 24.4328L14.5661 22.5613C14.5384 22.3841 14.3806 22.2505 14.1991 22.2505H12.5952V24.1532L13.2986 24.8584ZM12.0682 24.3641H9.66266V21.9526H12.0682V24.3641ZM9.95977 24.0658H11.7706V22.2505H9.95977V24.0658ZM9.43275 24.3641H7.02723V21.9526H9.43275V24.3641ZM7.32483 24.0658H9.13564V22.2505H7.32483V24.0658ZM6.79733 24.3641H4.3918V22.3657C4.3918 22.138 4.577 21.9526 4.80419 21.9526H6.79733V24.3641ZM4.6894 24.0658H6.50021V22.2505H4.80435C4.74097 22.2505 4.6894 22.3022 4.6894 22.3657V24.0658Z" fill="#E83B44"/>
</g>
<mask id="mask57_535_32965" style="mask-type:luminance" maskUnits="userSpaceOnUse" x="0" y="0" width="84" height="36">
<path d="M83.3904 0.921387H0.397583V35.3461H83.3904V0.921387Z" fill="white"/>
</mask>
<g mask="url(#mask57_535_32965)">
<path d="M13.2316 28.1948C12.6408 28.1948 12.1603 27.7134 12.1603 27.1213C12.1603 26.5291 12.6408 26.0474 13.2316 26.0474C13.8223 26.0474 14.3028 26.5291 14.3028 27.1213C14.3028 27.7135 13.8223 28.1948 13.2316 28.1948ZM13.2316 26.3457C12.8048 26.3457 12.4579 26.6935 12.4579 27.1213C12.4579 27.5488 12.8048 27.8969 13.2316 27.8969C13.658 27.8969 14.0053 27.5488 14.0053 27.1213C14.0053 26.6935 13.658 26.3457 13.2316 26.3457Z" fill="#E83B44"/>
</g>
<mask id="mask58_535_32965" style="mask-type:luminance" maskUnits="userSpaceOnUse" x="0" y="0" width="84" height="36">
<path d="M83.3904 0.921387H0.397583V35.3461H83.3904V0.921387Z" fill="white"/>
</mask>
<g mask="url(#mask58_535_32965)">
<path d="M5.85547 28.1948C5.26474 28.1948 4.78418 27.7134 4.78418 27.1213C4.78418 26.5291 5.26474 26.0474 5.85547 26.0474C6.44619 26.0474 6.92675 26.5291 6.92675 27.1213C6.92675 27.7135 6.44619 28.1948 5.85547 28.1948ZM5.85547 26.3457C5.42903 26.3457 5.08178 26.6935 5.08178 27.1213C5.08178 27.5488 5.42903 27.8969 5.85547 27.8969C6.28222 27.8969 6.62915 27.5488 6.62915 27.1213C6.62915 26.6935 6.28222 26.3457 5.85547 26.3457Z" fill="#E83B44"/>
</g>
<mask id="mask59_535_32965" style="mask-type:luminance" maskUnits="userSpaceOnUse" x="0" y="0" width="84" height="36">
<path d="M83.3904 0.921387H0.397583V35.3461H83.3904V0.921387Z" fill="white"/>
</mask>
<g mask="url(#mask59_535_32965)">
<path d="M16.0819 23.3744C16.0819 23.457 16.0252 23.524 15.9553 23.524C15.8857 23.524 15.829 23.457 15.829 23.3744V22.4145C15.829 22.332 15.8857 22.2649 15.9553 22.2649C16.0252 22.2649 16.0819 22.3321 16.0819 22.4145V23.3744Z" fill="#E83B44"/>
</g>
<mask id="mask60_535_32965" style="mask-type:luminance" maskUnits="userSpaceOnUse" x="0" y="0" width="84" height="36">
<path d="M83.3904 0.921387H0.397583V35.3461H83.3904V0.921387Z" fill="white"/>
</mask>
<g mask="url(#mask60_535_32965)">
<path d="M16.059 22.3534C16.059 22.4235 15.9858 22.4803 15.8958 22.4803H15.3546C15.2645 22.4803 15.1914 22.4235 15.1914 22.3534C15.1914 22.2833 15.2645 22.2264 15.3546 22.2264H15.8958C15.9857 22.2264 16.059 22.2834 16.059 22.3534Z" fill="#E83B44"/>
</g>
<mask id="mask61_535_32965" style="mask-type:luminance" maskUnits="userSpaceOnUse" x="0" y="0" width="84" height="36">
<path d="M83.3904 0.921387H0.397583V35.3461H83.3904V0.921387Z" fill="white"/>
</mask>
<g mask="url(#mask61_535_32965)">
<path d="M22.6602 15.1227C21.8336 15.1227 21.1608 14.4484 21.1608 13.6197C21.1608 12.7909 21.8334 12.1165 22.6602 12.1165C23.4869 12.1165 24.1597 12.7908 24.1597 13.6197C24.1597 14.4484 23.4871 15.1227 22.6602 15.1227ZM22.6602 12.4148C21.9975 12.4148 21.4584 12.9553 21.4584 13.6197C21.4584 14.284 21.9975 14.8245 22.6602 14.8245C23.323 14.8245 23.8621 14.284 23.8621 13.6197C23.8621 12.9551 23.3231 12.4148 22.6602 12.4148Z" fill="#E83B44"/>
</g>
<mask id="mask62_535_32965" style="mask-type:luminance" maskUnits="userSpaceOnUse" x="0" y="0" width="84" height="36">
<path d="M83.3904 0.921387H0.397583V35.3461H83.3904V0.921387Z" fill="white"/>
</mask>
<g mask="url(#mask62_535_32965)">
<path d="M29.4146 15.1227C28.5879 15.1227 27.9152 14.4484 27.9152 13.6197C27.9152 12.7909 28.5878 12.1165 29.4146 12.1165C30.2413 12.1165 30.9141 12.7908 30.9141 13.6197C30.9141 14.4484 30.2413 15.1227 29.4146 15.1227ZM29.4146 12.4148C28.7519 12.4148 28.2128 12.9553 28.2128 13.6197C28.2128 14.284 28.7519 14.8245 29.4146 14.8245C30.0774 14.8245 30.6165 14.284 30.6165 13.6197C30.6165 12.9551 30.0774 12.4148 29.4146 12.4148Z" fill="#E83B44"/>
</g>
</g>
<defs>
<clipPath id="clip0_535_32965">
<rect width="83.7065" height="34.7207" fill="white" transform="translate(0.0423584 0.774414)"/>
</clipPath>
</defs>
</svg>
