<svg width="100" height="100" viewBox="0 0 100 100" fill="none" xmlns="http://www.w3.org/2000/svg">
<rect width="100" height="100" fill="white"/>
<path d="M65.5555 94.8136C64.9774 95.0055 48.4772 94.9575 47.8486 94.5612C47.6113 94.4123 47.4775 92.0064 47.3992 89.0982C47.3824 88.4704 47.3689 87.825 47.3588 87.1619C47.2856 82.8853 47.3108 78.3438 47.3108 78.3438H58.348L58.0956 87.1619L58.04 89.0982C58.04 89.0982 64.3513 91.9433 64.99 92.4558C65.6287 92.9682 66.1311 94.6243 65.5555 94.8136Z" fill="#DD6A57"/>
<path d="M65.5974 94.832C65.2212 94.9557 58.193 94.9809 53.0758 94.8749C51.8918 94.8497 50.8038 94.8168 49.9353 94.779C48.7311 94.7234 47.9157 94.6578 47.792 94.5745C47.5017 94.3877 47.3628 90.8584 47.2871 87.1348H58.0819L58.0264 89.0812C58.0264 89.0812 64.3705 91.9414 65.0167 92.4564C65.663 92.9714 66.1856 94.6452 65.5974 94.832Z" fill="#FFC727"/>
<path d="M65.371 94.1752C62.594 94.0969 51.365 94.0515 48.6108 94.1878C48.5881 94.1878 48.5881 94.2055 48.6108 94.2055C51.365 94.3418 62.589 94.2964 65.371 94.2206C65.4291 94.2181 65.4291 94.1752 65.371 94.1752Z" fill="#263238"/>
<path d="M58.4416 88.4727C57.3485 88.2632 56.008 88.4298 55.1598 89.2048C55.127 89.2351 55.1598 89.2806 55.2052 89.2705C56.2526 88.9369 57.3324 88.7152 58.4265 88.6091C58.4446 88.6111 58.4627 88.6058 58.4769 88.5944C58.4911 88.5831 58.5002 88.5665 58.5022 88.5485C58.5042 88.5304 58.499 88.5123 58.4876 88.498C58.4763 88.4838 58.4597 88.4747 58.4416 88.4727Z" fill="#263238"/>
<path d="M59.2278 88.9501C58.1347 88.7431 56.7967 88.9072 55.9586 89.6847C55.9258 89.715 55.9586 89.7605 56.004 89.7504C57.0511 89.4154 58.131 89.1936 59.2253 89.089C59.2415 89.0862 59.2563 89.0778 59.267 89.0653C59.2777 89.0529 59.2837 89.037 59.284 89.0206C59.2843 89.0041 59.2789 88.9881 59.2686 88.9752C59.2584 88.9624 59.2439 88.9535 59.2278 88.9501Z" fill="#263238"/>
<path d="M60.0178 89.4288C58.9247 89.2192 57.5842 89.3859 56.736 90.1609C56.7031 90.1912 56.7359 90.2391 56.7814 90.2265C57.8287 89.8927 58.9085 89.671 60.0027 89.5651C60.0207 89.5671 60.0389 89.5619 60.0531 89.5505C60.0673 89.5391 60.0764 89.5226 60.0784 89.5045C60.0804 89.4864 60.0752 89.4683 60.0638 89.4541C60.0524 89.4399 60.0359 89.4308 60.0178 89.4288Z" fill="#263238"/>
<path d="M60.801 89.9062C59.7079 89.6992 58.3699 89.8633 57.5191 90.6408C57.4863 90.6711 57.5318 90.7165 57.5671 90.7064C58.6178 90.3669 59.702 90.1418 60.801 90.0349C60.8134 90.0293 60.8239 90.0203 60.8312 90.0089C60.8386 89.9974 60.8425 89.9841 60.8425 89.9706C60.8425 89.957 60.8386 89.9437 60.8312 89.9323C60.8239 89.9208 60.8134 89.9118 60.801 89.9062Z" fill="#263238"/>
<path d="M60.4698 85.945C60.0406 85.3517 59.2378 85.6168 58.7809 85.998C58.0072 86.6705 57.4232 87.5339 57.0869 88.5023C57.0858 88.5066 57.0856 88.5112 57.0865 88.5156C57.0873 88.52 57.0891 88.5242 57.0918 88.5278C57.0945 88.5314 57.0979 88.5344 57.1018 88.5366C57.1058 88.5387 57.1102 88.5399 57.1147 88.5402C57.1135 88.5617 57.1175 88.5832 57.1263 88.6028C57.135 88.6225 57.1483 88.6398 57.1651 88.6534C57.1818 88.6669 57.2016 88.6763 57.2226 88.6808C57.2437 88.6852 57.2655 88.6846 57.2863 88.679C58.1901 88.3458 59.1974 88.1034 59.9749 87.5026C60.4268 87.1542 60.8737 86.5003 60.4698 85.945ZM58.5536 87.8939C58.1119 88.0681 57.665 88.2195 57.2308 88.3988C57.564 87.9116 57.872 87.4142 58.2532 86.9598C58.4322 86.7388 58.6262 86.5305 58.8339 86.3363C59.1595 86.0409 60.4521 85.4123 60.2552 86.614C60.1466 87.2855 59.0787 87.6869 58.5536 87.8939Z" fill="#263238"/>
<path d="M54.3077 88.2078C55.2089 88.5965 56.2465 88.5789 57.2033 88.6748C57.225 88.6754 57.2464 88.6708 57.266 88.6614C57.2855 88.652 57.3025 88.6381 57.3156 88.6208C57.3287 88.6035 57.3374 88.5834 57.3412 88.562C57.3449 88.5407 57.3435 88.5188 57.3371 88.4981C57.3414 88.4969 57.3454 88.4947 57.3486 88.4916C57.3519 88.4886 57.3544 88.4848 57.3558 88.4806C57.3573 88.4764 57.3578 88.4718 57.3572 88.4674C57.3565 88.463 57.3548 88.4588 57.3522 88.4552C56.7836 87.6001 56 86.9097 55.0802 86.4532C54.5399 86.2008 53.6993 86.1427 53.4317 86.8243C53.1641 87.5059 53.7826 87.9831 54.3077 88.2078ZM53.8154 87.4277C53.3256 86.3144 54.7318 86.5971 55.1231 86.8016C55.3736 86.9383 55.614 87.0927 55.8426 87.2636C56.3222 87.6069 56.7464 88.0209 57.1907 88.4021C56.7211 88.3264 56.2516 88.2911 55.7795 88.233C55.219 88.1623 54.0855 88.0411 53.8154 87.4277Z" fill="#263238"/>
<path d="M54.1989 94.8777C53.0149 94.8524 50.8186 94.8247 49.9451 94.7868C48.7409 94.7313 47.9255 94.6656 47.8018 94.5823C47.5115 94.3955 47.3726 90.8662 47.2969 87.1426L54.1989 94.8777Z" fill="#263238"/>
<path d="M43.7754 31.0498C43.7754 31.0498 46.2519 58.9355 46.6634 61.0637C46.7568 61.5484 46.8149 64.184 46.8528 67.5719C46.9386 74.9636 46.8881 86.276 46.8881 86.276H58.5211C58.5211 86.276 58.1752 65.1963 57.6602 60.945C57.1452 56.6938 53.8532 31.0498 53.8532 31.0498H43.7754Z" fill="#455A64"/>
<path d="M57.9878 84.2495C56.1727 84.2117 56.6927 84.1965 54.8776 84.1814C53.989 84.1814 48.1523 84.1208 47.3218 84.2571C47.3179 84.2586 47.3146 84.2611 47.3122 84.2645C47.3099 84.2679 47.3086 84.2719 47.3086 84.2761C47.3086 84.2802 47.3099 84.2842 47.3122 84.2876C47.3146 84.291 47.3179 84.2936 47.3218 84.295C48.1523 84.4338 53.989 84.3808 54.8776 84.3733C56.6927 84.3556 56.1727 84.3404 57.9878 84.3026C58.0232 84.3026 58.0232 84.2521 57.9878 84.2495Z" fill="#263238"/>
<path d="M49.0891 73.0649L49.0512 68.0159C49.0512 66.38 49.0512 64.734 48.9654 63.1108C48.8063 59.8062 48.1373 56.547 47.6602 53.2879C47.1831 50.0288 46.7842 46.7242 46.4232 43.4423C46.0193 39.7565 45.6658 36.0657 45.2846 32.3774C45.2846 32.3547 45.2417 32.3547 45.2442 32.3774C45.7921 38.9613 46.4055 45.5452 47.3169 52.0913C47.5441 53.7204 47.7915 55.3454 48.0591 56.9661C48.3317 58.6096 48.6018 60.248 48.7306 61.9116C48.8593 63.5753 48.877 65.1683 48.8947 66.7966C48.9115 68.4796 48.9283 70.1626 48.9452 71.8456C48.9805 75.5903 49.0167 79.3358 49.0537 83.0822C49.0537 83.1529 49.1673 83.1503 49.1673 83.0822L49.0891 73.0649Z" fill="#263238"/>
<path d="M41.3223 31.0501C41.3223 31.0501 46.2526 58.9359 46.6641 61.064C46.7575 61.5487 46.8156 64.1843 46.8535 67.5722L52.4074 31.04L41.3223 31.0501Z" fill="#263238"/>
<path d="M51.4791 97.104C50.8883 97.2504 34.4462 95.8821 33.8529 95.4353C33.6257 95.2661 33.6863 92.8577 33.8403 89.952C33.8731 89.326 33.911 88.6771 33.9539 88.0208C34.224 83.7518 35.0218 79.1572 35.0218 79.1572L45.4026 80.0913L44.6452 88.8816L44.4357 90.8053C44.4357 90.8053 50.4945 94.1452 51.0953 94.7082C51.6962 95.2712 52.0698 96.9626 51.4791 97.104Z" fill="#DD6A57"/>
<path d="M51.5245 97.1347C50.9312 97.2811 34.3957 95.9052 33.7999 95.4559C33.5222 95.2463 33.6686 91.7196 33.9009 88.001L44.6603 88.8618L44.4508 90.7981C44.4508 90.7981 50.545 94.1557 51.1483 94.7212C51.7517 95.2867 52.1203 96.9908 51.5245 97.1347Z" fill="#FFC727"/>
<path d="M51.3443 96.4523C48.5674 96.1544 37.3939 95.2128 34.6371 95.127C34.6144 95.127 34.6119 95.1421 34.6371 95.1446C37.3737 95.5006 48.5649 96.3539 51.3443 96.4978C51.3999 96.5028 51.4024 96.4599 51.3443 96.4523Z" fill="#263238"/>
<path d="M44.8962 90.2145C43.8207 89.9217 42.4726 89.9772 41.5739 90.6841C41.5411 90.7119 41.5739 90.7624 41.6168 90.7548C42.6864 90.5038 43.78 90.3692 44.8785 90.3534C44.8955 90.3532 44.9119 90.3468 44.9246 90.3354C44.9373 90.3241 44.9454 90.3085 44.9476 90.2916C44.9497 90.2748 44.9457 90.2577 44.9363 90.2435C44.9268 90.2293 44.9126 90.2191 44.8962 90.2145Z" fill="#263238"/>
<path d="M45.6546 90.7556C44.5791 90.4627 43.231 90.5183 42.3348 91.2251C42.2995 91.2529 42.3348 91.3034 42.3752 91.2933C43.4457 91.0431 44.5402 90.9093 45.6394 90.8944C45.6562 90.8936 45.6722 90.8869 45.6845 90.8753C45.6968 90.8638 45.7046 90.8482 45.7064 90.8315C45.7082 90.8147 45.704 90.7979 45.6945 90.7839C45.685 90.77 45.6708 90.76 45.6546 90.7556Z" fill="#263238"/>
<path d="M46.387 91.2977C45.3141 91.0023 43.966 91.0604 43.0672 91.7673C43.0319 91.795 43.0673 91.8455 43.1076 91.8354C44.1783 91.5858 45.2726 91.4512 46.3718 91.434C46.3875 91.4319 46.4019 91.4246 46.413 91.4134C46.424 91.4021 46.4309 91.3874 46.4326 91.3718C46.4344 91.3561 46.4308 91.3403 46.4226 91.3269C46.4143 91.3135 46.4018 91.3032 46.387 91.2977Z" fill="#263238"/>
<path d="M47.135 91.8348C46.0621 91.5394 44.714 91.5975 43.8153 92.3044C43.78 92.3321 43.8153 92.3801 43.8557 92.3725C44.9264 92.1229 46.0206 91.9883 47.1199 91.9711C47.138 91.9731 47.1561 91.9679 47.1703 91.9565C47.1845 91.9452 47.1936 91.9286 47.1956 91.9105C47.1976 91.8925 47.1924 91.8743 47.181 91.8601C47.1696 91.8459 47.1531 91.8368 47.135 91.8348Z" fill="#263238"/>
<path d="M47.1186 87.8584C46.7374 87.2323 45.917 87.4317 45.4297 87.7776C44.605 88.3843 43.9545 89.1975 43.5439 90.1355C43.5419 90.1397 43.5409 90.1444 43.541 90.1491C43.5411 90.1538 43.5423 90.1585 43.5445 90.1626C43.5467 90.1668 43.5499 90.1704 43.5537 90.1731C43.5576 90.1759 43.562 90.1777 43.5667 90.1784C43.5667 90.2617 43.6298 90.3551 43.7257 90.3273C44.6547 90.0749 45.6771 89.9083 46.5027 89.3731C46.9798 89.06 47.4771 88.4516 47.1186 87.8584ZM45.0536 89.6482C44.5992 89.7871 44.1422 89.9007 43.6929 90.0572C44.0478 89.5875 44.4261 89.1358 44.8264 88.7041C45.023 88.4978 45.233 88.3046 45.455 88.126C45.8059 87.8584 47.1414 87.3358 46.851 88.5173C46.6895 89.1686 45.5938 89.4841 45.0536 89.6482Z" fill="#263238"/>
<path d="M40.7935 89.6212C41.6594 90.0806 42.6944 90.1463 43.6436 90.3179C43.7421 90.3356 43.8002 90.2371 43.7901 90.1538C43.7943 90.1525 43.7982 90.1502 43.8014 90.1473C43.8047 90.1443 43.8072 90.1406 43.8089 90.1365C43.8106 90.1324 43.8114 90.128 43.8112 90.1236C43.811 90.1192 43.8098 90.1148 43.8077 90.1109C43.3115 89.214 42.588 88.4635 41.7099 87.9348C41.205 87.6369 40.3593 87.5132 40.0386 88.1721C39.718 88.831 40.2861 89.3536 40.7935 89.6212ZM40.3643 88.8032C39.9654 87.6546 41.3463 88.0459 41.7175 88.2857C41.9555 88.4388 42.1832 88.6075 42.3991 88.7906C42.851 89.1743 43.2397 89.6111 43.6613 90.0352C43.1993 89.9216 42.7348 89.8484 42.2703 89.7524C41.7074 89.6489 40.5865 89.4369 40.3643 88.8032Z" fill="#263238"/>
<path d="M45.4946 87.1648L33.1699 86.6119C33.1699 86.6119 36.9996 62.9295 37.0577 61.3668C37.2117 57.2998 39.6604 31.0449 39.6604 31.0449H53.8558C53.8558 31.0449 52.9596 37.1037 51.4297 40.9486C50.3996 41.3079 49.4049 41.7617 48.4584 42.3042C48.4584 42.3042 47.1305 59.6678 47.08 61.8313C46.9815 66.1078 45.4946 87.1648 45.4946 87.1648Z" fill="#455A64"/>
<path d="M44.8963 85.2789C43.0837 85.1653 43.6038 85.1729 41.7912 85.077C40.9051 85.0315 35.0735 84.7336 34.2379 84.8371C34.2202 84.8371 34.2202 84.8699 34.2379 84.8725C35.0609 85.0467 40.895 85.2411 41.7836 85.2713C43.5987 85.3294 43.0787 85.2941 44.8938 85.3319C44.9191 85.3345 44.9216 85.2814 44.8963 85.2789Z" fill="#263238"/>
<path d="M40.7038 32.5982C40.1761 39.2099 39.6334 45.8216 39.03 52.4282C38.4266 59.0348 37.7122 65.6768 36.8463 72.2759C36.3633 75.965 35.8331 79.6458 35.2559 83.3181C35.2559 83.3434 35.2912 83.3534 35.2937 83.3181C36.4651 76.7897 37.3133 70.2033 38.0707 63.6118C38.828 57.0203 39.4011 50.4136 39.9338 43.807C40.2367 40.0682 40.5094 36.3269 40.7946 32.5856C40.7896 32.5426 40.7063 32.5452 40.7038 32.5982Z" fill="#263238"/>
<path d="M51.9344 40.6807C50.7308 41.1182 49.5677 41.6596 48.4581 42.2989C48.4487 42.3032 48.4415 42.3111 48.4379 42.3208C48.4344 42.3305 48.4348 42.3413 48.4392 42.3506C48.4435 42.36 48.4514 42.3673 48.4611 42.3708C48.4708 42.3744 48.4816 42.3739 48.4909 42.3696C49.6623 41.8647 50.8564 41.3875 51.9975 40.8195C52.0159 40.8111 52.0302 40.7958 52.0373 40.7769C52.0444 40.7579 52.0437 40.7369 52.0353 40.7185C52.027 40.7001 52.0116 40.6858 51.9927 40.6787C51.9737 40.6716 51.9528 40.6723 51.9344 40.6807Z" fill="#263238"/>
<path d="M52.3093 32.6455C52.3093 32.6051 52.2335 32.595 52.2335 32.6455C52.2341 33.9523 52.1692 35.2582 52.0392 36.5585C51.9836 37.1619 51.4989 40.4967 50.4538 40.2519C50.277 40.2115 50.2013 40.0398 50.1609 39.7747C50.1661 39.4337 50.2127 39.0947 50.2998 38.7649C50.4159 38.0682 50.5093 37.3689 50.5699 36.662C50.6907 35.3496 50.6763 34.0282 50.527 32.7187C50.5249 32.7113 50.5205 32.7047 50.5143 32.7C50.5082 32.6953 50.5006 32.6927 50.4929 32.6927C50.4851 32.6927 50.4776 32.6953 50.4715 32.7C50.4653 32.7047 50.4609 32.7113 50.4588 32.7187C50.4906 34.5384 50.3842 36.3579 50.1407 38.1616C50.0095 39.03 49.5727 40.3352 50.479 40.469C51.3853 40.6028 51.9937 38.4165 52.1124 37.8208C52.4025 36.1115 52.4687 34.3718 52.3093 32.6455Z" fill="#263238"/>
<path d="M50.4802 40.336C50.386 40.5612 50.3068 40.7922 50.2428 41.0278C50.1748 41.2092 50.1423 41.402 50.1469 41.5958C50.1469 41.6311 50.1999 41.6362 50.2176 41.6109C50.3287 41.4402 50.4138 41.2538 50.4701 41.058C50.5483 40.8435 50.6316 40.6314 50.7074 40.4168C50.7181 40.3867 50.7164 40.3535 50.7027 40.3247C50.6889 40.2958 50.6643 40.2735 50.6341 40.2628C50.604 40.2521 50.5709 40.2538 50.542 40.2675C50.5131 40.2813 50.4909 40.3059 50.4802 40.336Z" fill="#263238"/>
<path d="M50.7855 31.5302C50.6819 31.7069 40.1623 33.7467 39.6372 33.6761C39.6122 33.6719 39.5876 33.6652 39.564 33.6559C38.8975 33.4564 35.6182 31.2323 35.3683 31.0405C34.7523 30.5709 36.3958 26.3878 37.0067 25.6456C37.4106 25.1533 38.2563 24.858 38.2563 24.858C38.2563 24.858 39.665 17.4182 40.9575 15.7142C41.2807 15.2875 47.8267 14.1717 49.0789 14.5327C49.6141 14.6892 51.0228 15.7571 51.0985 15.9742C51.1667 16.2999 50.8864 31.3485 50.7855 31.5302Z" fill="#37474F"/>
<path d="M50.7859 31.5301C50.6824 31.7068 40.1628 33.7466 39.6377 33.6759C39.6126 33.6718 39.5881 33.665 39.5645 33.6557C40.1729 30.7626 43.0432 17.1858 43.1669 17.0823C43.2906 16.9788 49.5691 16.0902 51.0888 15.9766C51.1671 16.2997 50.8869 31.3483 50.7859 31.5301Z" fill="#263238"/>
<path d="M44.4796 15.7268C44.3584 15.6435 44.0757 14.2121 44.2271 13.9016C44.3988 13.5457 46.941 13.3336 47.1278 13.586C47.3146 13.8385 47.5999 15.2648 47.5317 15.328C47.4636 15.3911 47.0521 15.5021 46.9814 15.4188C46.9107 15.3355 46.7289 14.1566 46.686 14.0884C46.6431 14.0203 44.8507 14.1793 44.8053 14.2778C44.7598 14.3762 45.083 15.5577 45.0198 15.6208C44.9567 15.6839 44.5957 15.8152 44.4796 15.7268Z" fill="#37474F"/>
<path d="M49.2614 18.0995C51.1093 20.1191 59.3594 25.5115 62.4292 24.9965C64.4488 24.6607 70.7954 20.2908 72.1385 18.9099C73.7112 17.2942 70.4243 13.0581 69.2025 13.5781C67.6878 14.2269 62.6387 18.1222 61.2099 18.6271C60.3944 18.9225 55.1031 16.7615 50.1803 14.7419C48.3197 13.9896 48.0042 16.7312 49.2614 18.0995Z" fill="#DD6A57"/>
<path d="M72.1378 18.9102C72.6579 18.4255 74.8491 15.9969 75.3061 15.184C75.763 14.3711 76.9142 11.9375 76.3285 11.5235C75.7428 11.1095 75.349 11.7961 75.349 11.7961C75.349 11.7961 75.7176 10.5919 75.041 10.3269C74.5033 10.1173 73.8974 11.0514 73.8974 11.0514C73.8974 11.0514 74.2357 9.71089 73.5313 9.5367C72.8876 9.37513 72.4912 10.5465 72.4912 10.5465C72.4912 10.5465 72.6604 9.39532 72.0116 9.35998C71.2315 9.31959 70.9412 11.3089 70.3681 12.1698C70.2369 12.3641 67.4473 15.9338 67.4473 15.9338L72.1378 18.9102Z" fill="#DD6A57"/>
<path d="M72.4514 10.5129C72.0828 11.9821 71.8859 12.5804 70.9367 13.6836C70.919 13.7038 70.9367 13.7367 70.9695 13.7165C71.997 12.7067 72.2822 12.0276 72.5271 10.5204C72.5347 10.4346 72.469 10.4321 72.4514 10.5129Z" fill="#263238"/>
<path d="M73.8817 11.0541C73.5232 12.5688 73.1243 13.1822 72.218 14.4116C72.2054 14.4293 72.2332 14.452 72.2483 14.4369C73.243 13.3059 73.763 12.6016 73.9347 11.0541C73.9423 10.9859 73.8994 10.9859 73.8817 11.0541Z" fill="#263238"/>
<path d="M75.3031 11.8564C74.8487 13.2827 74.4725 14.0224 73.435 15.1004C73.4303 15.1056 73.4277 15.1123 73.4277 15.1193C73.4278 15.1263 73.4305 15.133 73.4352 15.1381C73.44 15.1432 73.4465 15.1463 73.4535 15.1468C73.4605 15.1473 73.4674 15.1451 73.4728 15.1408C74.6366 14.131 75.1138 13.2247 75.3435 11.8741C75.3586 11.7756 75.3309 11.7756 75.3031 11.8564Z" fill="#263238"/>
<path d="M65.7773 15.8147C65.7773 15.8147 66.7872 14.4086 67.1936 13.6765C67.6 12.9443 68.4306 10.7177 69.1375 10.6041C69.9327 10.4754 69.8368 12.6389 69.1375 13.9516C69.1375 13.9516 70.8668 15.6784 70.2533 16.981C69.6398 18.2837 65.7773 15.8147 65.7773 15.8147Z" fill="#DD6A57"/>
<path d="M69.1117 14.1083C69.8085 14.7571 70.4371 15.8401 70.2604 16.7717C70.2604 16.7995 70.2932 16.8121 70.3008 16.7843C70.629 15.8099 69.9095 14.5501 69.2531 14.0074C69.1319 13.9038 68.93 13.9392 69.1117 14.1083Z" fill="#263238"/>
<path d="M70.1232 21.194C70.1232 21.194 64.0165 25.9905 61.2875 25.3948C59.9318 25.0969 57.6749 24.0896 55.4356 22.8425C53.1636 21.5802 50.8915 20.0478 49.6091 18.7603C48.0944 17.2456 47.8697 15.7309 48.5109 14.9736C48.6418 14.8254 48.8016 14.7056 48.9804 14.6213C49.1593 14.5371 49.3534 14.4903 49.551 14.4838C50.1427 14.4668 50.7285 14.6052 51.25 14.8852C54.2214 16.3292 60.159 18.6164 60.8432 18.4877C61.5273 18.3589 65.7028 15.3396 65.7028 15.3396L70.1232 21.194Z" fill="#FFC727"/>
<path d="M68.6274 21.8558C68.4962 21.6033 68.3169 21.3812 68.1629 21.1439C68.0089 20.9066 67.8449 20.6743 67.6808 20.4446C67.3652 20.0003 67.0421 19.561 66.7164 19.1217L65.7369 17.8115C65.3986 17.3596 65.0755 16.8825 64.7018 16.4584C64.6867 16.4407 64.6564 16.4584 64.669 16.4811C64.9568 16.9658 65.3102 17.4202 65.6359 17.8797C65.9616 18.3391 66.2771 18.7885 66.6003 19.2404C66.9234 19.6923 67.2491 20.1442 67.5798 20.591C67.7439 20.8106 67.908 21.0277 68.0847 21.2398C68.2614 21.4519 68.4129 21.6841 68.6047 21.881C68.6274 21.8987 68.6426 21.8734 68.6274 21.8558Z" fill="#263238"/>
<path d="M55.4298 22.843C53.1577 21.5808 50.8857 20.0484 49.6032 18.7609C48.0885 17.2462 47.8638 15.7315 48.5051 14.9741C49.0933 14.6914 49.5149 14.5046 49.5452 14.4844C49.6562 14.6384 53.183 19.5864 55.4298 22.843Z" fill="#263238"/>
<path d="M54.7414 34.1575C54.388 34.5538 47.2336 35.445 42.4193 35.9044C40.0059 36.1367 38.1807 36.2579 38.0923 36.1569C37.855 35.8767 40.0034 24.9026 41.5812 20.77C42.591 18.1445 43.4367 16.7737 44.1688 15.9734C44.8479 15.2312 45.4311 14.9636 45.9208 14.6556C46.7968 14.0977 49.4198 14.229 49.8489 14.4032C50.3311 14.5875 51.8686 16.8494 52.3507 18.7756C52.8329 20.7018 54.9686 33.905 54.7414 34.1575Z" fill="#FFC727"/>
<path d="M41.5864 20.7673C42.5962 18.1418 43.4419 16.771 44.174 15.9707L46.4663 31.3475C44.0528 31.5797 38.2641 35.2378 38.1758 35.1343C38.3146 33.8998 40.0086 24.9024 41.5864 20.7673Z" fill="#263238"/>
<path d="M50.6228 15.2617C50.6228 15.2113 50.5773 15.2037 50.5773 15.2617C50.5622 15.9333 50.5445 16.7487 50.1254 17.2056C49.5776 17.7963 48.636 17.4833 48.0023 17.1905C47.0152 16.731 46.2629 15.9282 45.6495 15.0421C45.6473 15.0386 45.6445 15.0356 45.6412 15.0332C45.6379 15.0308 45.6341 15.0291 45.6301 15.0282C45.6261 15.0272 45.622 15.0271 45.618 15.0278C45.6139 15.0284 45.61 15.0299 45.6066 15.032C45.6031 15.0342 45.6001 15.037 45.5977 15.0403C45.5953 15.0436 45.5936 15.0474 45.5926 15.0514C45.5917 15.0554 45.5915 15.0595 45.5922 15.0635C45.5929 15.0676 45.5943 15.0714 45.5965 15.0749C46.3008 16.2539 47.4091 17.3293 48.79 17.6272C50.3501 17.9579 50.8474 16.6856 50.6228 15.2617Z" fill="#263238"/>
<path d="M49.5304 16.6639C48.6392 16.9895 46.8973 15.7753 46.1374 14.7124C46.087 14.6392 46.1072 13.8036 46.087 12.7888C46.0693 12.1728 46.039 11.4861 45.9633 10.86C45.9481 10.7338 46.4126 10.9156 46.4126 10.9156L47.2432 11.014L49.9924 11.3447C49.8615 12.1516 49.8302 12.9715 49.899 13.7859C49.9109 13.8716 49.9303 13.9561 49.957 14.0384C49.957 14.051 49.957 14.0636 49.957 14.0813C50.106 14.5534 50.3912 16.3458 49.5304 16.6639Z" fill="#DD6A57"/>
<path d="M49.9572 14.0478C49.9572 14.0604 49.9572 14.073 49.9572 14.0907C49.8266 14.1255 49.693 14.1483 49.5583 14.1589C46.9151 14.4113 46.1855 11.1042 46.1855 11.1042L47.2332 11.0234L49.9824 11.3541C49.8516 12.161 49.8202 12.9809 49.889 13.7954C49.9042 13.8813 49.927 13.9658 49.9572 14.0478Z" fill="#263238"/>
<path d="M44.9302 6.18348C44.6272 7.61235 45.7204 11.5708 46.7908 12.3786C48.3408 13.5525 50.7037 13.4692 51.6555 11.644C52.5769 9.87684 51.0622 4.74451 49.8883 4.02755C48.1489 2.9723 45.3745 4.07046 44.9302 6.18348Z" fill="#DD6A57"/>
<path d="M48.5781 8.36523C48.5781 8.36523 48.5604 8.38291 48.563 8.393C48.6438 8.65808 48.6917 8.97617 48.4746 9.13016C48.7649 9.02161 48.6968 8.60254 48.5781 8.36523Z" fill="#263238"/>
<path d="M48.2618 8.15057C47.8251 8.23388 48.0245 9.10484 48.431 9.02658C48.8374 8.94832 48.6304 8.07989 48.2618 8.15057Z" fill="#263238"/>
<path d="M50.1465 8.05176C50.1465 8.05176 50.1692 8.05176 50.1717 8.06943C50.2247 8.34208 50.3308 8.64249 50.5958 8.67784V8.69298C50.2904 8.71823 50.1541 8.31683 50.1465 8.05176Z" fill="#263238"/>
<path d="M50.3238 7.71377C50.7479 7.5825 50.9827 8.44336 50.5762 8.56706C50.1698 8.69076 49.9653 7.82485 50.3238 7.71377Z" fill="#263238"/>
<path d="M47.8274 7.83276C47.9345 7.77306 48.0382 7.70732 48.1379 7.63585C48.2555 7.58412 48.3529 7.4955 48.4156 7.3834C48.4276 7.34335 48.4263 7.30047 48.4117 7.26128C48.3971 7.22208 48.3701 7.18873 48.3348 7.16629C48.2585 7.13328 48.1747 7.12125 48.0921 7.13146C48.0096 7.14167 47.9313 7.17374 47.8653 7.22435C47.7154 7.30678 47.6012 7.44162 47.5446 7.60303C47.5358 7.64007 47.5375 7.67887 47.5497 7.71495C47.5619 7.75103 47.5841 7.78292 47.6137 7.80694C47.6432 7.83097 47.679 7.84613 47.7168 7.8507C47.7546 7.85527 47.793 7.84905 47.8274 7.83276Z" fill="#263238"/>
<path d="M50.5587 7.19904C50.4367 7.20536 50.3145 7.20536 50.1926 7.19904C50.0634 7.21369 49.9329 7.18529 49.8215 7.11825C49.7907 7.09013 49.77 7.0526 49.7627 7.01151C49.7554 6.97042 49.7619 6.92807 49.7811 6.89105C49.8301 6.82357 49.8961 6.77027 49.9723 6.73656C50.0486 6.70286 50.1325 6.68997 50.2153 6.69918C50.386 6.69367 50.5526 6.7522 50.6824 6.86328C50.7071 6.89061 50.7239 6.92419 50.7309 6.96038C50.7379 6.99658 50.7348 7.03399 50.7221 7.06858C50.7094 7.10317 50.6874 7.13361 50.6586 7.15661C50.6298 7.1796 50.5952 7.19428 50.5587 7.19904Z" fill="#263238"/>
<path d="M48.9985 10.0519C49.0916 10.1427 49.2025 10.2133 49.3241 10.2593C49.4457 10.3054 49.5755 10.3259 49.7054 10.3195C49.8188 10.3155 49.931 10.2951 50.0386 10.2589L50.0992 10.2387L50.1573 10.216C50.1707 10.2094 50.1817 10.1988 50.1889 10.1858C50.1962 10.1727 50.1992 10.1577 50.1977 10.1428C50.1987 10.1336 50.1987 10.1243 50.1977 10.115V10.0923C50.1547 9.88279 50.0613 9.57227 50.0613 9.57227C50.1472 9.59247 50.5662 9.6783 50.541 9.57227C50.3044 8.64166 49.9719 7.7381 49.5489 6.8761C49.5465 6.86974 49.5417 6.86457 49.5356 6.86173C49.5294 6.85889 49.5224 6.85861 49.516 6.86095C49.5097 6.86329 49.5045 6.86807 49.5017 6.87422C49.4988 6.88038 49.4986 6.88741 49.5009 6.89377C49.718 7.75463 50.0841 8.57257 50.3138 9.43343C50.1614 9.39954 50.0049 9.38847 49.8493 9.40061C49.8215 9.41575 50.0386 9.99892 50.0512 10.0948C49.8862 10.1496 49.7118 10.1709 49.5384 10.1575C49.3651 10.144 49.1961 10.0961 49.0414 10.0166C48.996 10.009 48.9783 10.0343 48.9985 10.0519Z" fill="#263238"/>
<path d="M49.892 10.1828C49.8124 10.357 49.6889 10.5075 49.5335 10.6195C49.4476 10.6788 49.345 10.7089 49.2407 10.7054C49.0109 10.7054 48.9605 10.5034 48.963 10.3242C48.964 10.2297 48.9759 10.1357 48.9983 10.0439C49.2738 10.1842 49.5869 10.2329 49.892 10.1828Z" fill="#263238"/>
<path d="M49.5335 10.619C49.4476 10.6782 49.345 10.7083 49.2407 10.7048C49.0109 10.7048 48.9605 10.5029 48.963 10.3236C49.0774 10.3018 49.1959 10.3191 49.2993 10.3727C49.4028 10.4262 49.4852 10.513 49.5335 10.619Z" fill="#FF99BA"/>
<path d="M45.566 9.357C46.4799 9.12727 46.2502 7.42322 46.2502 7.42322C46.2502 7.42322 47.7649 6.77947 47.6942 5.53994C47.6942 5.53994 49.421 6.12563 50.4888 5.41119C51.5567 4.69675 50.9937 3.43197 50.7842 3.17952C50.5747 2.92707 50.0647 3.61374 50.0647 3.61374C50.0647 3.61374 49.8123 2.88163 49.585 2.85638C49.3578 2.83114 49.2594 3.33604 49.2594 3.33604C48.2535 3.26962 47.2434 3.35472 46.2628 3.58849C44.9021 3.96464 44.5638 5.51217 44.5638 5.51217C44.5638 5.51217 43.8696 5.84793 43.7585 6.42099C43.6474 6.99406 44.9829 9.50342 45.566 9.357Z" fill="#263238"/>
<path d="M45.8811 7.5266C47.1434 7.38775 47.7442 6.38299 47.6331 5.17375C47.6331 5.17041 47.6345 5.1672 47.6368 5.16483C47.6392 5.16246 47.6424 5.16113 47.6458 5.16113C47.6491 5.16113 47.6523 5.16246 47.6547 5.16483C47.6571 5.1672 47.6584 5.17041 47.6584 5.17375C47.8906 6.26687 47.1737 7.72351 45.8912 7.58466C45.8534 7.57961 45.8483 7.52912 45.8811 7.5266Z" fill="#263238"/>
<path d="M44.5903 5.46453C44.5934 5.46285 44.5969 5.46244 44.6002 5.46339C44.6035 5.46434 44.6063 5.46656 44.608 5.46957C44.6097 5.47259 44.6101 5.47614 44.6091 5.47946C44.6082 5.48277 44.606 5.48557 44.603 5.48725C44.3025 5.7397 43.9415 5.94418 43.78 6.31276C43.5831 6.75707 43.7648 7.23421 43.9769 7.63308C44.3076 8.25158 44.8579 9.02408 45.5421 9.26644C45.5825 9.26644 45.5598 9.33712 45.5194 9.32703C44.709 9.07458 44.0248 8.06477 43.7371 7.30742C43.4139 6.48695 43.833 5.85835 44.5903 5.46453Z" fill="#263238"/>
<path d="M49.1101 5.55001C49.4327 5.64531 49.7752 5.65052 50.1005 5.56508C50.4258 5.47964 50.7215 5.3068 50.9556 5.06531C51.4857 4.45943 51.1676 3.75761 50.741 3.20979C50.7376 3.2037 50.7363 3.19671 50.7372 3.18981C50.738 3.18291 50.7411 3.17647 50.7459 3.17142C50.7506 3.16636 50.7569 3.16295 50.7637 3.16168C50.7706 3.16041 50.7776 3.16135 50.7839 3.16435C51.2888 3.61119 51.5261 4.42661 51.1171 5.01734C50.7082 5.60808 49.7539 5.84791 49.0773 5.63837C49.0193 5.6207 49.0521 5.53234 49.1101 5.55001Z" fill="#263238"/>
<path d="M46.0808 9.385C46.0808 9.385 45.0306 8.18586 44.4777 8.57463C43.9249 8.96341 44.811 10.7684 45.5305 10.9502C45.6211 10.98 45.7168 10.9912 45.8118 10.983C45.9069 10.9749 45.9993 10.9475 46.0835 10.9027C46.1677 10.8579 46.2419 10.7965 46.3018 10.7222C46.3616 10.648 46.4058 10.5624 46.4317 10.4705L46.0808 9.385Z" fill="#DD6A57"/>
<path d="M44.7422 9.08408C44.7422 9.08408 44.7422 9.10175 44.7422 9.10427C45.2471 9.24817 45.5526 9.66976 45.7823 10.1141C45.749 10.0682 45.7061 10.0302 45.6566 10.0026C45.6071 9.97508 45.5522 9.95869 45.4956 9.9546C45.4391 9.95051 45.3824 9.95882 45.3294 9.97896C45.2765 9.99909 45.2286 10.0306 45.189 10.0712C45.189 10.0712 45.189 10.0989 45.2042 10.0964C45.2879 10.0573 45.3819 10.0457 45.4727 10.0634C45.5634 10.0811 45.6462 10.1271 45.7091 10.1949C45.8116 10.3053 45.9021 10.4263 45.9792 10.5559C46.0044 10.5963 46.0802 10.5559 46.06 10.5155C45.9893 9.88687 45.4137 9.07398 44.7422 9.08408Z" fill="#263238"/>
<path d="M44.5563 15.3271C44.3568 15.0873 45.6317 14.383 45.9649 14.6506C46.2982 14.9181 47.9845 19.0558 47.4292 23.5469C46.8738 28.038 38.818 33.2814 38.4899 32.6099C38.43 32.4081 38.4146 32.1958 38.4446 31.9875C38.4747 31.7791 38.5496 31.5798 38.6641 31.4032C38.9695 31.0472 44.632 26.6319 45.2682 23.8473C45.8362 21.3683 45.0586 15.9355 44.5563 15.3271Z" fill="#455A64"/>
<path d="M41.4802 18.2004C36.3756 23.5802 31.7684 32.8047 34.5454 33.2844C36.9512 33.7009 44.497 31.5172 46.3626 30.7169C47.1755 30.3736 45.0524 23.5322 44.2067 23.9513C43.6281 24.2557 43.0242 24.5091 42.4016 24.7086C42.1492 24.6909 43.2423 21.861 44.3278 19.1294C45.8577 15.277 43.3963 16.1833 41.4802 18.2004Z" fill="#DD6A57"/>
<path d="M51.912 21.3689C52.0519 21.5315 52.139 21.7329 52.1615 21.9462C52.1841 22.1596 52.1411 22.3747 52.0382 22.563C52.3896 22.6588 52.6967 22.8739 52.9067 23.1714C53.2525 23.7142 52.5532 24.4917 52.5532 24.4917C52.8981 24.6663 53.1823 24.9408 53.3687 25.2794C53.6464 25.8322 53.0556 26.7183 53.0556 26.7183C53.2834 27.0535 53.3829 27.4594 53.3358 27.8619C53.1667 28.9323 51.6444 29.5811 50.6826 30.0027C49.7207 30.4243 46.5904 30.7222 45.9996 30.8383L43.2227 24.6785C43.2227 24.6785 47.0094 21.5557 48.2086 21.2199C49.2335 20.9422 51.3491 20.7756 51.912 21.3689Z" fill="#DD6A57"/>
<path d="M51.9499 22.4893C50.8012 22.5296 49.7258 22.9108 48.6327 23.2289C48.6296 23.2278 48.6264 23.2274 48.6231 23.2278C48.6199 23.2282 48.6168 23.2294 48.6141 23.2313C48.6115 23.2332 48.6093 23.2356 48.6078 23.2385C48.6063 23.2414 48.6055 23.2446 48.6055 23.2479C48.6055 23.2511 48.6063 23.2543 48.6078 23.2572C48.6093 23.2601 48.6115 23.2626 48.6141 23.2645C48.6168 23.2663 48.6199 23.2675 48.6231 23.2679C48.6264 23.2683 48.6296 23.2679 48.6327 23.2668C49.7182 22.9386 50.8543 22.8275 51.9499 22.5423C51.9556 22.5405 51.9605 22.537 51.964 22.5322C51.9675 22.5274 51.9694 22.5217 51.9694 22.5158C51.9694 22.5098 51.9675 22.5041 51.964 22.4993C51.9605 22.4945 51.9556 22.491 51.9499 22.4893Z" fill="#263238"/>
<path d="M52.497 24.4254C52.2368 24.4608 51.9823 24.5296 51.7396 24.6299C51.4872 24.7208 51.2171 24.8167 50.957 24.9152C50.437 25.1155 49.922 25.3275 49.412 25.5514C49.3893 25.5514 49.412 25.5993 49.4247 25.5892C49.9422 25.3923 50.4648 25.203 50.9899 25.0263C51.2423 24.9379 51.5175 24.8546 51.7825 24.7738C52.0373 24.7107 52.2845 24.6201 52.5197 24.5037C52.5301 24.5007 52.5388 24.4937 52.544 24.4842C52.5492 24.4747 52.5505 24.4636 52.5475 24.4532C52.5445 24.4428 52.5374 24.4341 52.528 24.4289C52.5185 24.4237 52.5074 24.4224 52.497 24.4254Z" fill="#263238"/>
<path d="M53.0316 26.7305C52.7967 26.7657 52.5696 26.8408 52.3601 26.9526L51.6532 27.2354C51.1811 27.4197 50.7091 27.6065 50.2319 27.7756C50.2067 27.7756 50.2319 27.8211 50.2319 27.8135C50.7192 27.6443 51.2089 27.4802 51.6936 27.3086L52.4055 27.0561C52.6304 26.9977 52.8426 26.8984 53.0316 26.7633C53.036 26.7633 53.0401 26.7616 53.0432 26.7585C53.0463 26.7554 53.048 26.7512 53.048 26.7469C53.048 26.7425 53.0463 26.7383 53.0432 26.7353C53.0401 26.7322 53.036 26.7305 53.0316 26.7305Z" fill="#263238"/>
<path d="M44.0807 23.6411L46.4108 31.2727C46.4108 31.2727 35.8079 34.5949 34.0407 33.3125C32.2736 32.03 36.0225 23.2296 42.8386 16.7845C45.2319 14.5125 45.2672 16.8274 44.4594 19.4403C43.5253 22.4697 42.7477 24.4237 42.7477 24.4237L44.0807 23.6411Z" fill="#FFC727"/>
<path d="M44.0718 23.6404C43.8194 23.7464 40.8985 25.453 40.6966 25.5868C40.5912 25.5994 40.4883 25.6274 40.3911 25.6701C40.2725 25.708 40.1563 25.7484 40.0377 25.7913C39.8155 25.8746 39.5908 25.9579 39.3687 26.0437C38.9323 26.2413 38.4816 26.4059 38.0206 26.536C37.9954 26.536 38.0206 26.5789 38.0206 26.5739C38.4971 26.4718 38.9674 26.3429 39.4293 26.1876C39.6615 26.1144 39.8938 26.0362 40.1235 25.9554L39.8711 26.1144C38.9193 26.7456 37.9853 27.4019 37.0386 28.0406C36.5008 28.4042 35.9657 28.7727 35.4204 29.1287C35.4169 29.132 35.4147 29.1365 35.4142 29.1413C35.4137 29.1461 35.4149 29.1509 35.4177 29.1548C35.4204 29.1588 35.4245 29.1617 35.4291 29.1629C35.4338 29.1641 35.4387 29.1636 35.4431 29.1615C37.3516 27.9144 43.8724 23.9307 44.1021 23.7161C44.1526 23.6808 44.1148 23.6152 44.0718 23.6404Z" fill="#263238"/>
<path d="M44.8645 29.5982C44.6802 29.063 44.5035 28.5278 44.3141 27.9952C43.9329 26.9323 43.5795 25.8468 43.1453 24.8042C43.1439 24.8003 43.1413 24.797 43.1379 24.7946C43.1345 24.7923 43.1305 24.791 43.1264 24.791C43.1222 24.791 43.1182 24.7923 43.1148 24.7946C43.1114 24.797 43.1089 24.8003 43.1074 24.8042C43.3474 25.9233 43.6783 27.0209 44.097 28.086C44.2939 28.6111 44.5186 29.1211 44.7509 29.6336C44.9831 30.146 45.2028 30.6711 45.4502 31.1786C45.2634 30.6535 45.0488 30.1309 44.8645 29.5982Z" fill="#263238"/>
<path d="M44.2676 21.465C44.0959 21.6821 43.8915 21.8715 43.7173 22.0911C43.7067 22.1017 43.6973 22.1136 43.6895 22.1264C43.942 21.4625 44.1641 20.7935 44.3888 20.122C44.3888 20.122 44.3762 20.1068 44.3711 20.122C44.0076 20.9399 43.6441 21.7604 43.3184 22.596C43.1568 23.0151 42.5838 24.5096 42.6166 24.5651C42.6494 24.6206 42.6671 24.6105 42.6923 24.5803C42.7176 24.55 43.1796 23.4417 43.1972 23.3634C43.2982 23.111 43.3992 22.8585 43.4976 22.6061C43.5008 22.5972 43.5051 22.5887 43.5103 22.5808C43.5456 22.5329 43.586 22.4874 43.6239 22.4395C43.7021 22.341 43.7753 22.2375 43.8511 22.1365C44.0051 21.932 44.1262 21.7023 44.2853 21.4978C44.3131 21.4701 44.2828 21.4448 44.2676 21.465Z" fill="#263238"/>
<path d="M46.456 31.2923C46.448 31.2517 46.4362 31.212 46.4206 31.1737C46.4055 31.1282 46.3903 31.0828 46.3727 31.0374C46.3561 30.9935 46.3418 30.9489 46.3297 30.9036L46.2995 30.7622C46.298 30.7583 46.2954 30.755 46.2921 30.7526C46.2887 30.7503 46.2846 30.749 46.2805 30.749C46.2764 30.749 46.2724 30.7503 46.269 30.7526C46.2656 30.755 46.263 30.7583 46.2616 30.7622L46.2995 30.8985C46.3109 30.9449 46.3185 30.9922 46.3222 31.0399C46.3222 31.0853 46.3222 31.1308 46.3398 31.1762L46.3525 31.2418C46.3515 31.262 46.3515 31.2823 46.3525 31.3024C45.8476 31.411 45.3578 31.5726 44.863 31.7038L43.313 32.1103C42.2678 32.3627 41.2252 32.643 40.175 32.8929C39.6448 33.0191 39.1172 33.1453 38.582 33.2589C38.582 33.2741 38.582 33.2892 38.582 33.3044C39.5918 33.1075 40.5789 32.9358 41.571 32.7086C42.6212 32.4561 43.6664 32.2037 44.6989 31.8932C45.2846 31.719 45.8955 31.5675 46.4661 31.3353C46.4688 31.332 46.4707 31.3281 46.4716 31.3239C46.4726 31.3198 46.4726 31.3155 46.4716 31.3113C46.4706 31.3072 46.4687 31.3033 46.466 31.3C46.4633 31.2967 46.4599 31.2941 46.456 31.2923Z" fill="#263238"/>
</svg>
