<svg width="56" height="59" viewBox="0 0 56 59" fill="none" xmlns="http://www.w3.org/2000/svg">
<g filter="url(#filter0_d_788_3428)">
<rect x="6.10352e-05" y="0.634766" width="56" height="56" rx="28" fill="#1D1D1B"/>
<g clip-path="url(#clip0_788_3428)">
<path d="M22.4459 27.7888C22.2459 27.5888 22.1336 27.3175 22.1336 27.0347C22.1336 26.7518 22.2459 26.4805 22.4459 26.2805L27.2459 21.4805C27.4459 21.2805 27.7172 21.1682 28 21.1682C28.2829 21.1682 28.5541 21.2805 28.7542 21.4805L33.5542 26.2805C33.7485 26.4817 33.856 26.7511 33.8536 27.0308C33.8511 27.3105 33.739 27.578 33.5412 27.7758C33.3434 27.9736 33.0759 28.0857 32.7962 28.0882C32.5165 28.0906 32.2471 27.9831 32.0459 27.7888L29.0667 24.9013V35.0347C29.0667 35.3175 28.9543 35.5889 28.7543 35.7889C28.5543 35.9889 28.2829 36.1013 28 36.1013C27.7171 36.1013 27.4458 35.9889 27.2458 35.7889C27.0458 35.5889 26.9334 35.3175 26.9334 35.0347V24.9013L23.9542 27.7888C23.7541 27.9888 23.4829 28.1011 23.2 28.1011C22.9172 28.1011 22.6459 27.9888 22.4459 27.7888Z" fill="white"/>
</g>
<rect x="0.500061" y="1.13477" width="55" height="55" rx="27.5" stroke="#1D1D1B"/>
</g>
<defs>
<filter id="filter0_d_788_3428" x="6.10352e-05" y="0.634766" width="56" height="58" filterUnits="userSpaceOnUse" color-interpolation-filters="sRGB">
<feFlood flood-opacity="0" result="BackgroundImageFix"/>
<feColorMatrix in="SourceAlpha" type="matrix" values="0 0 0 0 0 0 0 0 0 0 0 0 0 0 0 0 0 0 127 0" result="hardAlpha"/>
<feOffset dy="2"/>
<feColorMatrix type="matrix" values="0 0 0 0 0 0 0 0 0 0 0 0 0 0 0 0 0 0 0.043 0"/>
<feBlend mode="normal" in2="BackgroundImageFix" result="effect1_dropShadow_788_3428"/>
<feBlend mode="normal" in="SourceGraphic" in2="effect1_dropShadow_788_3428" result="shape"/>
</filter>
<clipPath id="clip0_788_3428">
<rect width="16" height="16" fill="white" transform="matrix(0 -1 1 0 20.0001 36.6348)"/>
</clipPath>
</defs>
</svg>
