<svg width="56" height="59" viewBox="0 0 56 59" fill="none" xmlns="http://www.w3.org/2000/svg">
<g filter="url(#filter0_d_788_3491)">
<rect width="56" height="56" rx="28" transform="matrix(4.37114e-08 -1 -1 -4.37114e-08 56 56.5)" fill="#1D1D1B"/>
<g clip-path="url(#clip0_788_3491)">
<path d="M28.8459 34.0541C29.0459 34.2541 29.3172 34.3665 29.6 34.3665C29.8828 34.3665 30.1541 34.2541 30.3541 34.0542L35.1541 29.2541C35.3541 29.0541 35.4664 28.7829 35.4664 28.5C35.4664 28.2172 35.3541 27.9459 35.1541 27.7459L30.3541 22.9459C30.153 22.7516 29.8835 22.6441 29.6038 22.6465C29.3242 22.6489 29.0566 22.7611 28.8589 22.9589C28.6611 23.1566 28.5489 23.4242 28.5465 23.7039C28.544 23.9835 28.6516 24.253 28.8459 24.4541L31.7333 27.4333L21.6 27.4333C21.3171 27.4333 21.0458 27.5457 20.8457 27.7458C20.6457 27.9458 20.5333 28.2171 20.5333 28.5C20.5333 28.7829 20.6457 29.0542 20.8457 29.2543C21.0458 29.4543 21.3171 29.5667 21.6 29.5667L31.7333 29.5667L28.8459 32.5459C28.6459 32.7459 28.5336 33.0172 28.5336 33.3C28.5336 33.5829 28.6459 33.8541 28.8459 34.0541Z" fill="white"/>
</g>
<rect x="-0.5" y="-0.5" width="55" height="55" rx="27.5" transform="matrix(4.37114e-08 -1 -1 -4.37114e-08 55 55.5)" stroke="#1D1D1B"/>
</g>
<defs>
<filter id="filter0_d_788_3491" x="0" y="0.5" width="56" height="58" filterUnits="userSpaceOnUse" color-interpolation-filters="sRGB">
<feFlood flood-opacity="0" result="BackgroundImageFix"/>
<feColorMatrix in="SourceAlpha" type="matrix" values="0 0 0 0 0 0 0 0 0 0 0 0 0 0 0 0 0 0 127 0" result="hardAlpha"/>
<feOffset dy="2"/>
<feColorMatrix type="matrix" values="0 0 0 0 0 0 0 0 0 0 0 0 0 0 0 0 0 0 0.043 0"/>
<feBlend mode="normal" in2="BackgroundImageFix" result="effect1_dropShadow_788_3491"/>
<feBlend mode="normal" in="SourceGraphic" in2="effect1_dropShadow_788_3491" result="shape"/>
</filter>
<clipPath id="clip0_788_3491">
<rect width="16" height="16" fill="white" transform="matrix(1 4.37114e-08 4.37114e-08 -1 20 36.5)"/>
</clipPath>
</defs>
</svg>
