<svg width="56" height="59" viewBox="0 0 56 59" fill="none" xmlns="http://www.w3.org/2000/svg">
<g filter="url(#filter0_d_788_3417)">
<rect y="0.591797" width="56" height="56" rx="28" fill="#1B8092"/>
<g clip-path="url(#clip0_788_3417)">
<path d="M22.4459 27.7459C22.2459 27.5459 22.1335 27.2746 22.1335 26.9918C22.1335 26.709 22.2459 26.4377 22.4459 26.2377L27.2459 21.4377C27.4459 21.2377 27.7171 21.1254 28 21.1254C28.2828 21.1254 28.5541 21.2377 28.7541 21.4377L33.5541 26.2377C33.7484 26.4388 33.8559 26.7083 33.8535 26.988C33.8511 27.2676 33.7389 27.5352 33.5411 27.7329C33.3434 27.9307 33.0758 28.0429 32.7961 28.0453C32.5165 28.0478 32.247 27.9402 32.0459 27.7459L29.0667 24.8585V34.9918C29.0667 35.2747 28.9543 35.546 28.7542 35.7461C28.5542 35.9461 28.2829 36.0585 28 36.0585C27.7171 36.0585 27.4458 35.9461 27.2457 35.7461C27.0457 35.546 26.9333 35.2747 26.9333 34.9918V24.8585L23.9541 27.7459C23.7541 27.9459 23.4828 28.0582 23.2 28.0582C22.9171 28.0582 22.6459 27.9459 22.4459 27.7459Z" fill="white"/>
</g>
<rect x="0.5" y="1.0918" width="55" height="55" rx="27.5" stroke="#1B8092"/>
</g>
<defs>
<filter id="filter0_d_788_3417" x="0" y="0.591797" width="56" height="58" filterUnits="userSpaceOnUse" color-interpolation-filters="sRGB">
<feFlood flood-opacity="0" result="BackgroundImageFix"/>
<feColorMatrix in="SourceAlpha" type="matrix" values="0 0 0 0 0 0 0 0 0 0 0 0 0 0 0 0 0 0 127 0" result="hardAlpha"/>
<feOffset dy="2"/>
<feColorMatrix type="matrix" values="0 0 0 0 0 0 0 0 0 0 0 0 0 0 0 0 0 0 0.043 0"/>
<feBlend mode="normal" in2="BackgroundImageFix" result="effect1_dropShadow_788_3417"/>
<feBlend mode="normal" in="SourceGraphic" in2="effect1_dropShadow_788_3417" result="shape"/>
</filter>
<clipPath id="clip0_788_3417">
<rect width="16" height="16" fill="white" transform="matrix(0 -1 1 0 20 36.5918)"/>
</clipPath>
</defs>
</svg>
